<?xml version="1.0" standalone="no"?>
<!DOCTYPE svg PUBLIC "-//W3C//DTD SVG 1.1//EN" "http://www.w3.org/Graphics/SVG/1.1/DTD/svg11.dtd" >
<svg xmlns="http://www.w3.org/2000/svg" xmlns:xlink="http://www.w3.org/1999/xlink" version="1.1">
<metadata>
Created by FontForge 20200427 at Fri Dec 12 19:22:08 2014
 By www
Copyright (c) 2006 by Rian Hughes / Device. All rights reserved.
</metadata>
<defs>
<font id="ParalucentW00-Heavy" horiz-adv-x="586" >
  <font-face 
    font-family="ParalucentW00-Heavy"
    font-weight="700"
    font-stretch="normal"
    units-per-em="1000"
    panose-1="2 0 5 3 4 0 0 2 0 4"
    ascent="800"
    descent="-200"
    x-height="510"
    cap-height="640"
    bbox="-97 -280 1864 937"
    underline-thickness="50"
    underline-position="-175"
    unicode-range="U+0020-FB02"
  />
<missing-glyph horiz-adv-x="463" 
d="M60 640h343v-640h-343v640zM80 20l141 300l-141 302v-602zM384 622l-142 -302l142 -300v602zM102 20h259l-130 277zM231 343l130 279h-259z" />
    <glyph glyph-name=".notdef" horiz-adv-x="463" 
d="M60 640h343v-640h-343v640zM80 20l141 300l-141 302v-602zM384 622l-142 -302l142 -300v602zM102 20h259l-130 277zM231 343l130 279h-259z" />
    <glyph glyph-name="glyph1" horiz-adv-x="0" 
 />
    <glyph glyph-name="glyph1" horiz-adv-x="0" 
 />
    <glyph glyph-name="glyph2" horiz-adv-x="0" 
 />
    <glyph glyph-name="space" unicode=" " horiz-adv-x="225" 
 />
    <glyph glyph-name="exclam" unicode="!" horiz-adv-x="255" 
d="M217 421l-21 -205h-134l-20 205v219h175v-219zM244 84q0 -52 -32 -73t-83 -21t-84 21t-33 73q0 53 33 73t84 20q25 0 46 -4.5t36.5 -15.5t24 -29t8.5 -44z" />
    <glyph glyph-name="quotedbl" unicode="&#x22;" horiz-adv-x="445" 
d="M417 571l-21 -184h-132l-22 184v69h175v-69zM202 571l-21 -184h-132l-22 184v69h175v-69z" />
    <glyph glyph-name="numbersign" unicode="#" horiz-adv-x="760" 
d="M531 145l-49 -145h-188l48 145h-51l-49 -145h-188l48 145h-75v150h128l15 45h-143v150h194l51 150h188l-51 -150h52l51 150h188l-51 -150h76v-150h-128l-15 -45h143v-150h-194zM352 347l-20 -58h68l20 58h-68z" />
    <glyph glyph-name="dollar" unicode="$" horiz-adv-x="542" 
d="M521 145q0 -22 -9 -44.5t-28 -42.5t-49.5 -35.5t-72.5 -23.5v-130h-175v130q-83 15 -124.5 60t-41.5 127h183q0 -41 15.5 -62.5t57.5 -21.5q33 0 49 14.5t10 43.5q-4 18 -28 27.5t-58 17t-73 16.5t-72 25t-54.5 43t-21.5 71q0 26 8 50t27 44t49 34.5t74 21.5v126h175
v-126q81 -14 113 -58t32 -123h-176q0 38 -14 57t-46 19q-37 0 -49 -14t-10 -37q2 -18 26 -27.5t58 -17t73.5 -16t73 -26t56 -46.5t22.5 -76z" />
    <glyph glyph-name="percent" unicode="%" horiz-adv-x="1352" 
d="M1317 225q0 -42 -10 -84t-37 -75.5t-74 -54.5t-121 -21q-75 0 -121.5 21t-73 55t-36 75.5t-9.5 83.5t9.5 83.5t36 75.5t73.5 55t122 21q74 0 121 -21t73.5 -55t36.5 -75.5t10 -83.5zM666 0h-189l17 49q2 5 4.5 12t7.5 23t15 43.5t26 74.5t39.5 116.5t57.5 168.5h-155
q11 -14 19.5 -40.5t8.5 -52.5q0 -42 -9 -82.5t-35.5 -72t-74 -51t-123.5 -19.5q-77 0 -124 21.5t-72.5 55.5t-34.5 76t-9 84t10 84t39 75.5t81.5 54t138.5 20.5h578zM1144 225q0 46 -15 65t-53 19q-35 0 -51 -19t-16 -65t15.5 -65t50.5 -19q37 0 53 19t16 65zM344 406
q0 45 -15 63t-53 18q-37 0 -52 -18t-15 -63q0 -47 15 -65.5t51 -18.5q37 0 53 18t16 66z" />
    <glyph glyph-name="ampersand" unicode="&#x26;" horiz-adv-x="701" 
d="M527 0l-56 62q-29 -35 -76.5 -53.5t-96.5 -18.5q-69 0 -117 18t-78 48t-43.5 68.5t-13.5 79.5q0 34 12.5 61.5t32 48.5t43.5 35t47 21l-92 100v170h445v-153h-250l153 -181q3 29 3.5 58.5t0.5 60.5h184q0 -87 -20.5 -146.5t-42.5 -99.5l162 -179h-197zM290 252
q-19 -5 -36.5 -18t-17.5 -33q0 -54 58 -54q15 0 35.5 5t31.5 22z" />
    <glyph glyph-name="quotesingle" unicode="'" horiz-adv-x="230" 
d="M202 571l-21 -184h-132l-22 184v69h175v-69z" />
    <glyph glyph-name="parenleft" unicode="(" horiz-adv-x="375" 
d="M362 -64q-102 0 -165.5 29.5t-98 81t-46.5 122t-12 152.5t12 152.5t47 122t98 81t165 29.5v-142q-57 0 -87.5 -18.5t-44.5 -51t-16 -77t-2 -96.5q0 -53 2 -97.5t16 -77t44.5 -51t87.5 -18.5v-141v0z" />
    <glyph glyph-name="parenright" unicode=")" horiz-adv-x="375" 
d="M335 321q0 -82 -12 -152.5t-47 -122t-98 -81t-166 -29.5v141q57 0 88 18.5t44.5 51t15.5 77t2 97.5q0 52 -2 96.5t-16 77t-44.5 51t-87.5 18.5v142q102 0 165.5 -29.5t98.5 -81t47 -122t12 -152.5z" />
    <glyph glyph-name="asterisk" unicode="*" horiz-adv-x="505" 
d="M370 444l115 -37l-81 -125l-88 67l24 -94h-174l21 94l-86 -67l-81 125l114 37l-114 36l81 125l86 -68l-21 102h174l-24 -102l89 68l80 -125z" />
    <glyph glyph-name="plus" unicode="+" horiz-adv-x="621" 
d="M400 182v-182h-179v182h-200v145h200v183h179v-183h200v-145h-200z" />
    <glyph glyph-name="comma" unicode="," horiz-adv-x="269" 
d="M251 80q0 -19 -3.5 -54t-8.5 -70q-5 -41 -12 -87h-91v122q-116 0 -116 89q0 53 33 74t83 21q25 0 46 -5t36.5 -16.5t24 -29.5t8.5 -44z" />
    <glyph glyph-name="hyphen" unicode="-" horiz-adv-x="402" 
d="M34 186v141h335v-141h-335z" />
    <glyph glyph-name="period" unicode="." horiz-adv-x="270" 
d="M251 83q0 -51 -32 -72t-83 -21q-50 0 -83 20.5t-33 72.5q0 26 8.5 44t24 28.5t37 15t46.5 4.5t46 -4.5t36.5 -15.5t24 -28.5t8.5 -43.5z" />
    <glyph glyph-name="slash" unicode="/" horiz-adv-x="381" 
d="M176 0h-189l219 640h188z" />
    <glyph glyph-name="zero" unicode="0" horiz-adv-x="622" 
d="M589 319q0 -65 -10.5 -124.5t-41 -105t-85 -72.5t-142.5 -27q-87 0 -141 27t-84 72.5t-40.5 105.5t-10.5 125t10.5 125t40.5 105.5t84 72.5t141 27q88 0 142.5 -27t85 -73t41 -105.5t10.5 -125.5zM396 319q0 39 -1 71t-8.5 55.5t-25 36.5t-51.5 13q-32 0 -49.5 -13
t-25 -36.5t-8.5 -55.5t-1 -70q0 -39 1 -71.5t8.5 -55.5t25 -36t49.5 -13q34 0 51.5 13t25 36t8.5 55t1 71z" />
    <glyph glyph-name="one" unicode="1" horiz-adv-x="370" 
d="M119 0v487h-110v117l137 36h165v-640h-192z" />
    <glyph glyph-name="two" unicode="2" horiz-adv-x="576" 
d="M220 150h321v-150h-506v130q0 60 23 99t57 64t74 40.5t75 29t60 28.5t28 40q3 21 -1 35.5t-13 23t-22.5 12.5t-28.5 4q-17 0 -30 -4t-22 -14.5t-13.5 -30.5t-4.5 -51h-180q0 55 13 100t42.5 77t78 49.5t119.5 17.5q73 0 122.5 -17.5t79.5 -47.5t41.5 -69t8.5 -82
q-3 -47 -28 -80t-61 -56.5t-77 -40t-75.5 -30.5t-57.5 -28.5t-23 -33.5v-15z" />
    <glyph glyph-name="three" unicode="3" horiz-adv-x="571" 
d="M537 206q0 -40 -13.5 -79t-43.5 -69.5t-78 -49t-117 -18.5q-71 0 -120 17.5t-79 48t-43 72.5t-13 91h180q0 -49 18.5 -66.5t52.5 -17.5q29 0 48.5 17.5t19.5 49.5q0 15 -3 29t-11.5 24.5t-24 17t-40.5 6.5h-148v99l203 109h-275v153h466v-176l-180 -90q94 0 147.5 -40.5
t53.5 -127.5z" />
    <glyph glyph-name="four" unicode="4" horiz-adv-x="619" 
d="M517 114v-114h-192v114h-310v147l280 379h222v-389h93v-137h-93zM325 455l-155 -204h155v204z" />
    <glyph glyph-name="five" unicode="5" horiz-adv-x="576" 
d="M555 209q0 -42 -13.5 -81.5t-44 -70t-78.5 -49t-117 -18.5q-71 0 -119.5 15.5t-79 44.5t-44 72t-13.5 97h184q0 -42 16 -63t56 -21q30 0 46.5 22t16.5 54q0 14 -2.5 29t-10.5 27t-23.5 20t-42.5 8h-224v345h463l1 -153h-281v-75h55q55 0 101.5 -10.5t80.5 -34t53.5 -62.5
t19.5 -96z" />
    <glyph glyph-name="six" unicode="6" horiz-adv-x="607" 
d="M574 210q0 -43 -15 -82.5t-46.5 -70t-80.5 -49t-117 -18.5q-80 0 -134 20.5t-86.5 62t-46.5 103t-14 144.5q0 82 15 144t47.5 103.5t84.5 62t126 20.5q127 0 188.5 -48t61.5 -156h-180q0 25 -18 43.5t-58 18.5q-35 0 -59.5 -31.5t-24.5 -109.5q24 22 58 30.5t69 8.5
q60 0 103.5 -15t71.5 -41t41.5 -62t13.5 -78zM392 205q0 35 -24 52.5t-59 17.5q-36 0 -60.5 -17.5t-24.5 -52.5t24.5 -52.5t60.5 -17.5q35 0 59 17.5t24 52.5z" />
    <glyph glyph-name="seven" unicode="7" horiz-adv-x="532" 
d="M264 0h-209l281 487h-322v153h505v-150z" />
    <glyph glyph-name="eight" unicode="8" horiz-adv-x="617" 
d="M310 130q30 0 48.5 5.5t29 14.5t14 21t3.5 24q0 13 -4 25.5t-15 21.5t-29.5 14.5t-46.5 5.5t-46 -5.5t-28.5 -14.5t-14.5 -21.5t-4 -25.5q0 -12 3.5 -24t13.5 -21t28.5 -14.5t47.5 -5.5zM312 -10q-78 0 -131 14.5t-85.5 40t-47 59.5t-14.5 74q0 59 32.5 97.5t89.5 54.5
q-49 12 -79.5 45.5t-30.5 91.5q0 41 14 75t45.5 58t82 37t123.5 13t123.5 -13t82 -37t45.5 -58t14 -75q0 -58 -30.5 -91.5t-79.5 -45.5q57 -16 89.5 -54.5t32.5 -97.5q0 -40 -14.5 -74t-47 -59.5t-85 -40t-129.5 -14.5zM311 401q25 0 40.5 4t24.5 11.5t12 18.5t3 24
q0 10 -3.5 19.5t-12.5 17t-24.5 12t-39.5 4.5t-39.5 -4.5t-24.5 -12t-12.5 -17t-3.5 -19.5q0 -13 3 -24t12 -18.5t24.5 -11.5t40.5 -4z" />
    <glyph glyph-name="nine" unicode="9" horiz-adv-x="601" 
d="M574 321q0 -82 -15 -144t-48 -103.5t-85 -62.5t-126 -21q-63 0 -113 11.5t-84.5 36t-52.5 63.5t-18 93h184q0 -31 23 -46.5t62 -15.5q41 0 63.5 31.5t22.5 111.5q-19 -20 -53.5 -30.5t-69.5 -10.5q-61 0 -104.5 15t-71.5 41.5t-41 63t-13 78.5q0 43 14.5 82.5t46 69.5
t80.5 48t117 18q80 0 134 -20.5t87 -61.5t47 -103t14 -144zM382 436q0 36 -24 53t-59 17t-59.5 -17t-24.5 -53q0 -35 24.5 -52.5t59.5 -17.5t59 17.5t24 52.5z" />
    <glyph glyph-name="colon" unicode=":" horiz-adv-x="270" 
d="M251 427q0 -51 -32 -71.5t-83 -20.5q-50 0 -83 21t-33 71q0 26 8.5 44t24 29t37 15.5t46.5 4.5t46 -4.5t36.5 -15.5t24 -29t8.5 -44zM251 83q0 -51 -32 -72t-83 -21q-50 0 -83 20.5t-33 72.5q0 26 8.5 44t24 28.5t37 15t46.5 4.5t46 -4.5t36.5 -15.5t24 -28.5t8.5 -43.5z
" />
    <glyph glyph-name="semicolon" unicode=";" horiz-adv-x="269" 
d="M251 427q0 -51 -32 -71.5t-83 -20.5q-50 0 -83 21t-33 71q0 26 8.5 44t24 29t37 15.5t46.5 4.5t46 -4.5t36.5 -15.5t24 -29t8.5 -44zM251 80q0 -19 -3.5 -54t-8.5 -70q-5 -41 -12 -87h-91v122q-116 0 -116 89q0 53 33 74t83 21q25 0 46 -5t36.5 -16.5t24 -29.5t8.5 -44z
" />
    <glyph glyph-name="less" unicode="&#x3c;" horiz-adv-x="559" 
d="M241 185l95 -141h-196l-121 211l121 212h196l-92 -137h293v-145h-296z" />
    <glyph glyph-name="equal" unicode="=" horiz-adv-x="646" 
d="M34 299v145h578v-145h-578zM34 75v145h578v-145h-578z" />
    <glyph glyph-name="greater" unicode="&#x3e;" horiz-adv-x="559" 
d="M419 44h-197l97 141h-298v145h295l-94 137h197l121 -212z" />
    <glyph glyph-name="question" unicode="?" horiz-adv-x="551" 
d="M517 431q0 -58 -22.5 -92.5t-57 -53t-74.5 -25t-76 -7.5l-13 -40h-154v157l115 1q51 0 71.5 15.5t20.5 44.5q0 62 -58 62q-34 0 -53.5 -14t-19.5 -61h-187q0 55 13.5 98t43.5 73t79 45.5t120 15.5q69 0 117 -18.5t78 -49t43.5 -70t13.5 -81.5zM320 84q0 -52 -32 -73
t-83 -21q-52 0 -84 21t-32 73q0 53 32.5 73t83.5 20q25 0 46 -4.5t36.5 -15.5t24 -29t8.5 -44z" />
    <glyph glyph-name="at" unicode="@" horiz-adv-x="904" 
d="M877 349q0 -54 -12 -99.5t-38.5 -78.5t-69.5 -51t-105 -18h-73l-25 54q-17 -28 -49.5 -43.5t-74.5 -15.5q-78 0 -123 32.5t-45 95.5q0 39 12.5 62t42 36.5t78 19.5t119.5 12q0 31 -8.5 50t-40.5 19q-30 0 -41.5 -14.5t-11.5 -29.5l-150 -4q0 36 9.5 66t32.5 52t60 34.5
t93 12.5q66 0 105.5 -15.5t61.5 -42t29 -62t7 -75.5v-119q11 0 21.5 4.5t19 17.5t13.5 37t5 63q0 55 -14 101t-45.5 79.5t-83 52t-126.5 18.5q-74 0 -124 -22t-80 -60t-42.5 -89t-12.5 -109q0 -63 12.5 -115t44.5 -88.5t86.5 -56.5t137.5 -20h152q38 0 73 1v-130h-211
q-145 0 -233.5 33.5t-137 90t-65 130.5t-16.5 155q0 50 7.5 99.5t25.5 95t49 85t77 68t110 45t148 16.5q85 0 149.5 -15.5t112 -42.5t79 -64t50.5 -79t27 -88t8 -91zM455 289q-26 -3 -37.5 -13t-11.5 -24q0 -36 46 -36q26 0 43 20.5t17 58.5z" />
    <glyph glyph-name="A" unicode="A" horiz-adv-x="640" 
d="M452 0l-31 105h-200l-34 -105h-201l226 640h224l218 -640h-202zM321 482l-65 -236h130z" />
    <glyph glyph-name="B" unicode="B" horiz-adv-x="620" 
d="M592 200q0 -42 -12 -78.5t-42.5 -63.5t-84 -42.5t-136.5 -15.5h-258v640h260q71 0 120 -12.5t79 -36t43 -57t13 -74.5q0 -15 -5 -34t-16 -36.5t-29 -31t-44 -17.5q26 -4 46.5 -18.5t35 -34.5t22.5 -43.5t8 -44.5zM397 199q0 26 -14 42t-59 16h-73v-120h70q47 0 61.5 18
t14.5 44zM384 446q0 11 -2.5 21t-9.5 17t-20 11t-35 4h-66v-107h64q44 0 56.5 15.5t12.5 38.5z" />
    <glyph glyph-name="C" unicode="C" horiz-adv-x="665" 
d="M631 271q0 -59 -15 -110t-49.5 -89t-91 -60t-139.5 -22q-96 0 -155 29t-91.5 76t-43.5 106t-11 119t11.5 119t44 106t91.5 76t154 29q82 0 138.5 -22.5t91.5 -61t50 -89t15 -106.5h-192q-4 35 -11.5 58.5t-20 38t-30 21t-41.5 6.5q-35 0 -56.5 -14t-32.5 -38t-14.5 -55.5
t-3.5 -67.5t3 -68t13.5 -56t32 -38t58.5 -14q24 0 41.5 6.5t29.5 21t19.5 39t12.5 60.5h192v0z" />
    <glyph glyph-name="D" unicode="D" horiz-adv-x="657" 
d="M619 324q0 -72 -19.5 -131.5t-58.5 -102.5t-98 -66.5t-137 -23.5h-247v640h257q77 0 134 -22t94.5 -63.5t56 -100t18.5 -130.5zM430 325q0 54 -9.5 86.5t-27.5 49t-45 21.5t-62 5h-35v-334h31q35 0 62.5 6t46.5 24.5t29 52t10 89.5z" />
    <glyph glyph-name="E" unicode="E" horiz-adv-x="567" 
d="M59 0v640h475v-153h-284v-92h255v-139h-255v-103h284v-153h-475z" />
    <glyph glyph-name="F" unicode="F" horiz-adv-x="542" 
d="M250 487v-111h256v-147h-256v-229h-191v640h468v-153h-277z" />
    <glyph glyph-name="G" unicode="G" horiz-adv-x="684" 
d="M514 0l-29 70q-27 -41 -67 -60.5t-98 -19.5q-90 0 -146 29t-86.5 76t-41.5 106t-11 119t11.5 119t44 106t91.5 76t154 29q82 0 138 -18.5t90.5 -49.5t50 -71.5t15.5 -83.5h-193q-2 16 -8 29.5t-18 23t-30 15t-45 5.5q-37 0 -58.5 -15t-32 -39.5t-13.5 -57t-3 -68.5
t2.5 -68.5t13 -57.5t32 -40t58.5 -15q40 0 68.5 27.5t33.5 72.5h-113v138h307v-377h-117z" />
    <glyph glyph-name="H" unicode="H" horiz-adv-x="676" 
d="M424 0v250h-173v-250h-192v640h192v-238h173v238h192v-640h-192z" />
    <glyph glyph-name="I" unicode="I" horiz-adv-x="309" 
d="M59 0v640h192v-640h-192z" />
    <glyph glyph-name="J" unicode="J" horiz-adv-x="387" 
d="M330 196q0 -49 -9 -86.5t-33 -63t-66.5 -39t-109.5 -13.5q-43 0 -98 6v156q33 -6 56 -6q25 0 38.5 6.5t20 18.5t7.5 28.5t1 36.5v400h193v-444z" />
    <glyph glyph-name="K" unicode="K" horiz-adv-x="627" 
d="M402 0l-151 279v-279h-192v640h192v-249l138 249h250l-229 -306l241 -334h-249z" />
    <glyph glyph-name="L" unicode="L" horiz-adv-x="465" 
d="M61 0v640h193l-2 -487h199v-153h-390z" />
    <glyph glyph-name="M" unicode="M" horiz-adv-x="896" 
d="M646 0v390l-110 -390h-176l-110 391v-391h-191v640h272l117 -431l117 431h272v-640h-191z" />
    <glyph glyph-name="N" unicode="N" horiz-adv-x="724" 
d="M450 0l-195 346v-346h-194v640h220l189 -354v354h194v-640h-214z" />
    <glyph glyph-name="O" unicode="O" horiz-adv-x="691" 
d="M656 319q0 -60 -12 -119t-45.5 -105.5t-94.5 -75.5t-159 -29t-158.5 29t-94.5 75.5t-45.5 106t-11.5 119.5t12 119.5t45.5 106t94 75.5t158.5 29t159 -29t94.5 -76t45.5 -106t12 -120zM461 319q0 36 -2.5 68t-14 56t-35 38t-64.5 14t-64 -14t-34.5 -38t-14.5 -55.5
t-3 -67.5t3 -68t14.5 -56t34.5 -38t64 -14t64.5 14t35 38t14 56t2.5 67z" />
    <glyph glyph-name="P" unicode="P" horiz-adv-x="617" 
d="M581 411q0 -36 -6 -76t-33 -73.5t-81.5 -55t-150.5 -21.5h-59v-185h-192v640h243q97 0 152.5 -22t83.5 -56t35.5 -74t7.5 -77zM387 411q0 31 -16.5 53.5t-63.5 22.5h-56v-153h56q24 0 39.5 6.5t24.5 17t12.5 24.5t3.5 29z" />
    <glyph glyph-name="Q" unicode="Q" horiz-adv-x="697" 
d="M664 0h-292q-107 0 -173 26t-102.5 70t-49 102t-12.5 122q0 60 12 119.5t45.5 106t94 75.5t158.5 29t159 -26.5t94.5 -68t45.5 -93t12 -101.5q0 -34 -3 -68t-10.5 -65t-22 -57t-36.5 -44l80 -26v-101zM461 319q0 36 -2.5 68t-14 56.5t-35 38.5t-64.5 14t-64 -14
t-34.5 -38t-14.5 -56t-3 -68q0 -86 24 -126t92 -40q34 0 56.5 9.5t36 30t18.5 51.5t5 74z" />
    <glyph glyph-name="R" unicode="R" horiz-adv-x="617" 
d="M390 0l-139 237v-237h-192v640h250q62 0 106.5 -10.5t75 -27.5t48.5 -40t27 -48t12 -50.5t3 -48.5q0 -65 -32.5 -116t-104.5 -65l185 -234h-239zM387 415q0 35 -17 53.5t-68 18.5h-51v-142h51q52 0 68.5 19t16.5 51z" />
    <glyph glyph-name="S" unicode="S" horiz-adv-x="615" 
d="M587 200q0 -35 -12.5 -72.5t-43.5 -68t-82 -50t-128 -19.5q-80 0 -136 16.5t-91 48t-51 77t-16 104.5h192q0 -50 22 -75t76 -25q27 0 43 6t25 15t11.5 19t2.5 19q0 24 -26 36t-65.5 20t-85.5 17t-86 28t-67 51.5t-29 88.5q-2 42 11 81t44 68.5t83 47t129 17.5
q78 0 130.5 -18t84 -49t45 -73t13.5 -90h-189q0 45 -19 65t-70 20q-23 0 -38 -5t-23 -13.5t-10 -20t0 -24.5q3 -20 31 -29.5t67.5 -17t84.5 -17t83.5 -29.5t64 -55.5t25.5 -93.5z" />
    <glyph glyph-name="T" unicode="T" horiz-adv-x="520" 
d="M355 487v-487h-190v487h-151v153h492v-153h-151z" />
    <glyph glyph-name="U" unicode="U" horiz-adv-x="675" 
d="M626 281q0 -75 -16 -129.5t-51 -90.5t-89.5 -53.5t-132.5 -17.5q-77 0 -132 17.5t-89.5 53.5t-50.5 90.5t-16 129.5v359h193v-359q0 -38 4.5 -63.5t15.5 -40.5t29.5 -21.5t45.5 -6.5q28 0 46 6.5t29 21.5t15.5 40.5t4.5 63.5v359h194v-359v0z" />
    <glyph glyph-name="V" unicode="V" horiz-adv-x="639" 
d="M426 0h-221l-220 640h207l125 -459l129 459h206z" />
    <glyph glyph-name="W" unicode="W" horiz-adv-x="964" 
d="M786 0h-207l-98 419l-97 -419h-208l-181 640h202l88 -424l97 424h204l98 -424l87 424h196z" />
    <glyph glyph-name="X" unicode="X" horiz-adv-x="601" 
d="M401 0l-100 205l-101 -205h-214l208 339l-193 301h228l72 -165l71 165h228l-191 -301l207 -339h-215z" />
    <glyph glyph-name="Y" unicode="Y" horiz-adv-x="656" 
d="M421 199v-199h-197v199l-224 441h214l108 -261l115 261h219z" />
    <glyph glyph-name="Z" unicode="Z" horiz-adv-x="582" 
d="M34 0v159l281 328h-281v153h502v-152l-291 -335h304v-153h-515z" />
    <glyph glyph-name="bracketleft" unicode="[" horiz-adv-x="344" 
d="M59 -66v772h272v-142h-97v-488h97v-142h-272z" />
    <glyph glyph-name="backslash" unicode="\" horiz-adv-x="381" 
d="M205 0l-218 640h188l219 -640h-189z" />
    <glyph glyph-name="bracketright" unicode="]" horiz-adv-x="344" 
d="M12 -66v142h98v488h-98v142h273v-772h-273z" />
    <glyph glyph-name="asciicircum" unicode="^" horiz-adv-x="566" 
d="M282 256l-242 -37v143l242 37l244 -37v-143z" />
    <glyph glyph-name="underscore" unicode="_" horiz-adv-x="754" 
d="M-26 -280v114h808v-114h-808z" />
    <glyph glyph-name="grave" unicode="`" horiz-adv-x="567" 
d="M41 605v141l486 -64v-140z" />
    <glyph glyph-name="a" unicode="a" 
d="M440 0l-33 70q-31 -41 -75 -60.5t-107 -19.5q-42 0 -78.5 8.5t-63.5 27t-42.5 46.5t-15.5 67q0 43 18 73t58 50t103 31.5t152 17.5q0 53 -13 73.5t-53 20.5q-38 0 -51 -19t-13 -55h-185q0 36 11 70t38.5 60.5t75 42.5t119.5 16q84 0 135 -19t78.5 -51t36.5 -74t9 -89
v-287h-104zM279 214q-35 -5 -48.5 -21.5t-13.5 -33.5q0 -24 14.5 -37t47.5 -13q32 0 54 27.5t22 85.5z" />
    <glyph glyph-name="b" unicode="b" horiz-adv-x="595" 
d="M567 255q0 -45 -10 -92t-36 -85.5t-70 -63t-111 -24.5q-60 0 -98.5 21t-59.5 47l-31 -58h-105v707h186v-230q29 20 62.5 31.5t82.5 11.5q58 0 95 -24.5t58 -63t29 -85.5t8 -92zM377 255q0 24 -1.5 45t-8.5 37t-21.5 25t-40.5 9q-27 0 -42 -9.5t-22 -25.5t-8.5 -37
t-1.5 -44q0 -25 1.5 -46.5t9 -37.5t22.5 -25.5t42 -9.5q26 0 40.5 9.5t21 25.5t8 38t1.5 46z" />
    <glyph glyph-name="c" unicode="c" horiz-adv-x="567" 
d="M540 219q0 -57 -18 -100t-51.5 -71.5t-80.5 -43t-105 -14.5q-81 0 -131.5 23.5t-78.5 61.5t-38 85t-10 94t10 94.5t38 85.5t77.5 62t129.5 24q59 0 107 -15t81.5 -44.5t51.5 -73t18 -100.5h-180q0 26 -7 42.5t-18 25.5t-24.5 12.5t-26.5 3.5q-39 0 -61 -27t-22 -88
t21.5 -88.5t61.5 -27.5q13 0 26.5 4t24.5 13t17.5 24t6.5 38h181v0z" />
    <glyph glyph-name="d" unicode="d" horiz-adv-x="595" 
d="M445 0l-33 58q-8 -11 -23 -23t-35.5 -21.5t-45.5 -16t-53 -6.5q-68 0 -112 23.5t-69.5 61t-36 85t-10.5 94.5q0 45 8 92t29.5 85.5t58.5 63t94 24.5q49 0 83.5 -11.5t61.5 -31.5v230h187v-707h-104zM364 255q0 23 -1 44t-8 36.5t-22 24.5t-42 9q-26 0 -41 -9t-22.5 -24
t-9 -36t-1.5 -45t1.5 -45t9 -36.5t22 -24.5t40.5 -9q27 0 41.5 8.5t22 24t9 36.5t1.5 46z" />
    <glyph glyph-name="e" unicode="e" horiz-adv-x="575" 
d="M550 169q-2 -38 -17.5 -71t-46 -57t-77 -37.5t-112.5 -13.5q-86 0 -138.5 24t-81.5 62t-38.5 85.5t-9.5 94.5t10 94t39 85t81.5 61.5t136.5 23.5q66 0 110 -16t72 -42t42 -58.5t20 -66.5t6 -65.5v-55.5h-181h-160q3 -54 23 -79.5t62 -25.5q38 0 55.5 16.5t19.5 42.5z
M365 311q-5 50 -21.5 70t-57.5 20q-38 0 -57 -19t-24 -71h160z" />
    <glyph glyph-name="f" unicode="f" horiz-adv-x="426" 
d="M281 360v-360h-186v360h-83v110l83 40v36q0 52 19 86t57.5 52.5t95.5 23.5t134 -1v-143q-36 4 -59 2.5t-35.5 -6.5t-17 -14t-4.5 -19v-17h116v-150h-120z" />
    <glyph glyph-name="g" unicode="g" horiz-adv-x="550" 
d="M540 -49q0 -32 -11 -61.5t-39.5 -52.5t-78.5 -37t-127 -14q-79 0 -131 12t-83 35.5t-43.5 58t-12.5 80.5h183q0 -8 2.5 -18t11.5 -18.5t26.5 -14.5t47.5 -6q42 0 56 13.5t14 30.5q0 18 -25 25.5t-62 11.5t-81 7.5t-81 13t-62 27.5t-25 52t26 55t69 28q-25 7 -41.5 24.5
t-26 37t-13 38.5t-3.5 31q0 38 11 74t40.5 64t82 45t135.5 17h238l-2 -97l-79 -15q30 -14 46.5 -40.5t16.5 -61.5t-11.5 -64t-43 -49.5t-86.5 -31.5t-141 -11q-17 0 -27 -6.5t-10 -14.5q0 -10 11.5 -15t39.5 -7q76 -7 131.5 -15t87.5 -22q37 -15 53.5 -41t16.5 -68zM331 315
q0 32 -10.5 47t-48.5 15q-36 0 -47 -15t-11 -47q0 -36 11.5 -52.5t46.5 -16.5t47 16t12 53z" />
    <glyph glyph-name="h" unicode="h" 
d="M357 0v281q0 27 -3 44t-9.5 26.5t-18 13t-29.5 3.5q-17 0 -29 -3.5t-19.5 -13t-11 -26.5t-3.5 -44l-2 -281h-186v707h186v-237q17 19 50 34.5t71 15.5q68 0 106.5 -18t57 -49t23 -73t4.5 -91v-289h-187z" />
    <glyph glyph-name="i" unicode="i" horiz-adv-x="271" 
d="M42 0v510h189v-510h-189zM252 656q0 -31 -8.5 -49.5t-24 -28.5t-37 -13.5t-46.5 -3.5t-46.5 3t-37 13t-24 28.5t-8.5 50.5t8.5 50.5t24 28.5t37 12.5t46.5 2.5t46.5 -2.5t37 -12.5t24 -28.5t8.5 -50.5z" />
    <glyph glyph-name="j" unicode="j" horiz-adv-x="267" 
d="M231 -27q0 -51 -14 -89.5t-47 -61.5t-86.5 -30t-131.5 5v145q31 -6 49 -5t27.5 10.5t12 29t2.5 51.5v482h187zM252 656q0 -31 -8.5 -49.5t-24 -28.5t-37 -13.5t-46.5 -3.5t-46.5 3t-37 13t-24 28.5t-8.5 50.5t8.5 50.5t24 28.5t37 12.5t46.5 2.5t46.5 -2.5t37 -12.5
t24 -28.5t8.5 -50.5z" />
    <glyph glyph-name="k" unicode="k" horiz-adv-x="554" 
d="M339 0l-108 202v-202h-185v707h185v-385l96 188h237l-178 -243l188 -267h-235z" />
    <glyph glyph-name="l" unicode="l" horiz-adv-x="280" 
d="M47 0v707h185v-707h-185z" />
    <glyph glyph-name="m" unicode="m" horiz-adv-x="835" 
d="M604 0v306q0 23 -9.5 42t-35.5 19q-28 0 -36.5 -18t-8.5 -43v-306h-189v306q0 12 -1.5 23t-6 19.5t-13.5 13.5t-23 5q-28 0 -37.5 -18t-9.5 -43v-306h-188v510h105l31 -60q7 13 21.5 25.5t33 22.5t41 16t45.5 6q21 0 43 -3.5t43 -11t39 -21t32 -32.5q20 29 60 48.5
t91 19.5q54 0 85.5 -15t48.5 -42t22 -64.5t5 -81.5v-317h-188z" />
    <glyph glyph-name="n" unicode="n" 
d="M357 0v285q0 26 -3 42.5t-9.5 25.5t-18 12.5t-29.5 3.5q-35 0 -49 -17t-14 -67v-285h-188v510h105l31 -62q25 31 66 51.5t95 20.5q67 0 107 -17.5t61 -48.5t27 -72.5t6 -89.5v-292h-187z" />
    <glyph glyph-name="o" unicode="o" horiz-adv-x="566" 
d="M539 254q0 -47 -11 -94.5t-39.5 -85t-78.5 -61t-128 -23.5q-79 0 -128.5 23.5t-77.5 61.5t-38.5 85t-10.5 94q0 46 10.5 93.5t39 86t78.5 62.5t129 24q78 0 127.5 -24t78 -62.5t39 -86t10.5 -93.5zM367 254q0 60 -19 88t-64 28t-65 -28t-20 -88q0 -61 20.5 -88t62.5 -27
q45 0 65 26.5t20 88.5z" />
    <glyph glyph-name="p" unicode="p" horiz-adv-x="595" 
d="M567 255q0 -45 -8 -92t-29 -85.5t-58 -63t-95 -24.5q-51 0 -83.5 12t-61.5 32v-234h-186v710h105l31 -60q20 24 61 47t99 23q67 0 111 -24.5t69 -63t35 -85.5t10 -92zM377 255q0 24 -1.5 45t-8 36.5t-21 24.5t-40.5 9q-27 0 -42 -8.5t-22.5 -24t-9 -36.5t-1.5 -46
q0 -24 1.5 -44.5t8.5 -36t22 -24.5t42 -9q26 0 40.5 8.5t21.5 24t8.5 36.5t1.5 45z" />
    <glyph glyph-name="q" unicode="q" horiz-adv-x="592" 
d="M361 -200v234q-27 -20 -61.5 -32t-83.5 -12q-58 0 -95 24.5t-58 63t-29 85.5t-8 92t10.5 92t36 85.5t69.5 63t112 24.5q28 0 53 -7t45.5 -17.5t35.5 -23t23 -22.5l33 60h103v-710h-186zM362 255q0 25 -1.5 46t-8.5 36.5t-21.5 24t-41.5 8.5q-26 0 -40.5 -9t-22 -24.5
t-9 -36.5t-1.5 -45t1.5 -45t9 -36.5t22.5 -24t41 -8.5q27 0 41.5 9t21.5 24.5t8 36t1 44.5z" />
    <glyph glyph-name="r" unicode="r" horiz-adv-x="381" 
d="M360 355q-42 4 -66.5 2.5t-38 -10t-17.5 -25t-4 -40.5v-282h-188v510h105l31 -62q12 16 27 30t36 23.5t49 14.5t66 3v-164v0z" />
    <glyph glyph-name="s" unicode="s" horiz-adv-x="535" 
d="M517 147q0 -27 -13.5 -54.5t-43 -50.5t-75.5 -37.5t-111 -14.5q-129 0 -193 45.5t-64 149.5h183q0 -41 16 -62.5t56 -21.5q61 0 61 44q0 24 -23 36.5t-57 21t-74 17t-74 25t-57 44t-23 73.5q0 31 12 60t40.5 50.5t74.5 34.5t114 13q67 0 112.5 -10.5t73.5 -33t40 -57.5
t12 -84h-177q0 38 -14 57t-46 19q-33 0 -46 -11t-13 -29q0 -23 23 -35t57 -20t74.5 -17t74.5 -26.5t57 -47t23 -78.5z" />
    <glyph glyph-name="t" unicode="t" horiz-adv-x="434" 
d="M412 -7q-41 -3 -75 -3q-65 0 -108.5 9.5t-70 30t-38 51t-11.5 72.5v207h-84v112l84 40v128h187v-130h116v-150h-112v-170q0 -29 12.5 -40.5t48.5 -11.5q21 0 51 3v-148v0z" />
    <glyph glyph-name="u" unicode="u" 
d="M436 0l-31 61q-25 -32 -64.5 -51.5t-94.5 -19.5q-68 0 -108.5 17t-61.5 47t-27.5 71t-6.5 88v297h187v-289q0 -51 13 -67t47 -16q35 0 49 16t14 67v289h188v-510h-104z" />
    <glyph glyph-name="v" unicode="v" horiz-adv-x="555" 
d="M370 0h-195l-189 510h205l83 -340l85 340h210z" />
    <glyph glyph-name="w" unicode="w" horiz-adv-x="807" 
d="M662 0h-197l-68 330l-67 -330h-189l-139 510h202l43 -326l63 326h175l70 -336l50 336h200z" />
    <glyph glyph-name="x" unicode="x" horiz-adv-x="574" 
d="M365 0l-76 159l-80 -159h-223l195 265l-179 245h208l77 -143l78 143h207l-180 -245l195 -265h-222z" />
    <glyph glyph-name="y" unicode="y" horiz-adv-x="591" 
d="M544 5q0 -39 -9 -77t-35.5 -69t-75.5 -50t-130 -19q-76 0 -125 11.5t-77 33t-39 53.5t-11 74h179q0 -26 16 -44t58 -18q21 0 33.5 7t18.5 19t8 28t2 35v56q-17 -21 -50 -35.5t-68 -14.5q-68 0 -106.5 18t-58 49t-24 73t-4.5 91v284h186v-276q0 -28 3 -45.5t10 -27
t18.5 -13t28.5 -3.5q18 0 30 3.5t19.5 13t11 27t3.5 45.5l1 276h187v-505z" />
    <glyph glyph-name="z" unicode="z" horiz-adv-x="526" 
d="M34 0v136l226 228h-226v146h448v-136l-231 -228h241v-146h-458z" />
    <glyph glyph-name="braceleft" unicode="{" horiz-adv-x="410" 
d="M125 -69v320h-103v144h103v311h272v-142h-97v-490h97v-143h-272z" />
    <glyph glyph-name="bar" unicode="|" horiz-adv-x="277" 
d="M51 -66v773h175v-773h-175z" />
    <glyph glyph-name="braceright" unicode="}" horiz-adv-x="410" 
d="M285 251v-320h-273v143h98v490h-98v142h273v-311h101v-144h-101z" />
    <glyph glyph-name="asciitilde" unicode="~" horiz-adv-x="590" 
d="M45 240q-2 8 -3 18q-1 8 -1.5 18.5t-0.5 23.5q0 27 6 50t21.5 40t42.5 27t69 10q22 0 44.5 -9t44.5 -19.5t44 -19t45 -8.5q11 0 19 5.5t8 20.5q0 4 -1 8t-2 9h165q1 -8 2 -18q1 -8 2 -19t1 -23q0 -27 -6 -50.5t-21.5 -40.5t-42.5 -27t-69 -10q-23 0 -45 8.5t-44 19
t-44 19.5t-45 9q-11 0 -19 -5.5t-8 -20.5q0 -4 1 -7.5t2 -8.5h-165z" />
    <glyph glyph-name="uni00A0" unicode="&#xa0;" horiz-adv-x="225" 
 />
    <glyph glyph-name="exclamdown" unicode="&#xa1;" horiz-adv-x="255" 
d="M217 0h-175v219l20 203h134l21 -203v-219zM244 556q0 -26 -8.5 -44t-24 -29t-36.5 -16t-46 -5q-26 0 -47 5t-37 16t-24.5 29t-8.5 44q0 52 33 73t84 21t83 -21t32 -73z" />
    <glyph glyph-name="cent" unicode="&#xa2;" horiz-adv-x="567" 
d="M540 225q0 -91 -44.5 -145.5t-121.5 -73.5v-134h-175l-2 133q-53 12 -86 38t-52 60.5t-25.5 74t-6.5 79.5t7 80.5t26 75t52.5 60.5t86.5 38v129h175v-130q78 -20 122 -75t44 -146h-180q0 25 -7 41t-18 25t-24.5 12.5t-26.5 3.5q-39 0 -61 -25t-22 -86t21.5 -87.5
t61.5 -26.5q13 0 26.5 4t24.5 13t17.5 24t6.5 38h181v0z" />
    <glyph glyph-name="sterling" unicode="&#xa3;" horiz-adv-x="607" 
d="M21 0v151q24 2 43 12q16 8 29.5 24t13.5 44v13h-86v138h86v54q0 43 9 81.5t34.5 68t69.5 47t115 17.5q72 0 116 -16t68 -43t32.5 -63.5t8.5 -77.5h-185q0 6 -1 13.5t-5 14t-12 11t-21 4.5q-20 0 -29.5 -12t-9.5 -46v-53h238v-138h-245q0 -28 -12 -52.5t-43 -38.5h339
v-153h-553z" />
    <glyph glyph-name="yen" unicode="&#xa5;" horiz-adv-x="621" 
d="M461 337h138v-150h-195v-187h-198v187h-186v150h132l-170 303h204l123 -261l127 261h203z" />
    <glyph glyph-name="brokenbar" unicode="&#xa6;" horiz-adv-x="277" 
d="M51 355v352h175v-352h-175zM51 -66v360h175v-360h-175z" />
    <glyph glyph-name="section" unicode="&#xa7;" horiz-adv-x="535" 
d="M17 285q0 27 13.5 54.5t43.5 48.5q-24 18 -38.5 43.5t-14.5 61.5q0 31 12 59.5t40.5 50.5t74.5 34.5t114 12.5q67 0 112.5 -10.5t73.5 -32.5t40 -57t12 -84h-176q0 76 -64 76q-33 0 -44.5 -11t-11.5 -29q0 -23 23 -35t57.5 -20t74.5 -17t74.5 -26.5t57.5 -47t23 -78.5
q0 -28 -14 -55t-44 -50q25 -17 39.5 -42.5t14.5 -60.5q0 -32 -12 -60t-40.5 -50t-74.5 -34.5t-114 -12.5q-67 0 -112.5 10.5t-73.5 32.5t-40 57t-12 84h176q0 -76 64 -76q33 0 44.5 11t11.5 29q0 23 -23 35t-57.5 20t-74.5 17t-74.5 26.5t-57.5 46.5t-23 79zM191 297
q0 -15 10.5 -25t28 -17.5t40.5 -13.5t49 -13q9 7 15 15.5t6 22.5t-10.5 23.5t-28 17t-41 14t-48.5 12.5q-9 -5 -15 -14.5t-6 -21.5z" />
    <glyph glyph-name="dieresis" unicode="&#xa8;" horiz-adv-x="541" 
d="M516 632q0 -44 -28.5 -62t-77.5 -18q-51 0 -79.5 18t-28.5 62q0 45 29 62.5t79 17.5q48 0 77 -17.5t29 -62.5zM266 632q0 -44 -28.5 -62t-77.5 -18q-51 0 -79.5 18t-28.5 62q0 45 29 62.5t79 17.5q48 0 77 -17.5t29 -62.5z" />
    <glyph glyph-name="copyright" unicode="&#xa9;" horiz-adv-x="904" 
d="M864 319q0 -75 -16.5 -148t-62 -131t-126 -93.5t-208.5 -35.5q-127 0 -207 35.5t-125.5 93.5t-62 131.5t-16.5 148.5q0 50 7 99.5t24.5 95t47.5 85t75.5 68t109 45t147.5 16.5q85 0 149 -16.5t110 -45t75.5 -68t47 -85t24.5 -95.5t7 -100zM712 319q0 64 -12 117.5
t-41.5 92t-80 59.5t-127.5 21t-127.5 -21t-80 -59.5t-41.5 -91.5t-12 -117q0 -65 12 -118t41.5 -91t80 -59t127.5 -21t127.5 21t80 58.5t41.5 90.5t12 118zM636 287q0 -42 -10 -77t-32 -59.5t-56.5 -38t-82.5 -13.5q-61 0 -99.5 20.5t-60 52t-29 70t-7.5 74.5q0 37 8 76
t29.5 71t59.5 52t98 20q96 0 139 -51t43 -135h-139q0 29 -12 38.5t-33 9.5q-28 0 -40.5 -21.5t-12.5 -56.5q0 -36 12 -58t41 -22q18 0 31.5 11.5t13.5 36.5h139z" />
    <glyph glyph-name="ordfeminine" unicode="&#xaa;" horiz-adv-x="602" 
d="M440 131l-31 70q-32 -41 -76 -58.5t-107 -17.5q-42 0 -78.5 9t-63.5 28t-43 47t-16 67q0 43 19.5 72t60 48t103 29.5t148.5 16.5q0 53 -12.5 73.5t-52.5 20.5q-38 0 -51.5 -19t-13.5 -55h-185q0 36 11.5 70t39 60t74.5 42t119 16q84 0 135 -18.5t79 -50.5t37 -74t9 -89
v-287h-105zM280 345q-35 -5 -48 -21t-13 -33q0 -25 14 -37.5t46 -12.5q34 0 55.5 27t21.5 85z" />
    <glyph glyph-name="guillemotleft" unicode="&#xab;" horiz-adv-x="595" 
d="M384 44l-104 211l104 212h191l-118 -212l118 -211h-191zM124 44l-104 211l104 212h191l-118 -212l118 -211h-191z" />
    <glyph glyph-name="uni00AD" unicode="&#xad;" horiz-adv-x="402" 
d="M34 186v141h335v-141h-335z" />
    <glyph glyph-name="registered" unicode="&#xae;" horiz-adv-x="904" 
d="M864 319q0 -75 -16.5 -148t-62 -131t-126 -93.5t-208.5 -35.5q-127 0 -207 35.5t-125.5 93.5t-62 131.5t-16.5 148.5q0 50 7 99.5t24.5 95t47.5 85t75.5 68t109 45t147.5 16.5q85 0 149 -16.5t110 -45t75.5 -68t47 -85t24.5 -95.5t7 -100zM712 319q0 64 -12 117.5
t-41.5 92t-80 59.5t-127.5 21t-127.5 -21t-80 -59.5t-41.5 -91.5t-12 -117q0 -65 12 -118t41.5 -91t80 -59t127.5 -21t127.5 21t80 58.5t41.5 90.5t12 118zM479 117l-57 125v-125h-133v403h150q58 0 93.5 -12.5t55 -32t26 -43t6.5 -45.5q0 -45 -20 -73.5t-65 -42.5l105 -154
h-161zM487 369q0 20 -10.5 30.5t-37.5 10.5h-17v-80h17q28 0 38 10.5t10 28.5z" />
    <glyph glyph-name="macron" unicode="&#xaf;" horiz-adv-x="541" 
d="M27 554v133h487v-133h-487z" />
    <glyph glyph-name="degree" unicode="&#xb0;" horiz-adv-x="536" 
d="M510 421q0 -41 -8.5 -81.5t-34.5 -73t-73.5 -53t-126.5 -20.5t-126 20.5t-72.5 53.5t-33.5 73.5t-8 80.5t8.5 81t34 74t73 53.5t126.5 20.5q78 0 125.5 -20.5t73 -53.5t34 -74t8.5 -81zM336 421q0 45 -14.5 62.5t-52.5 17.5q-36 0 -52 -17.5t-16 -62.5q0 -46 15.5 -63.5
t50.5 -17.5q38 0 53.5 18t15.5 63z" />
    <glyph glyph-name="acute" unicode="&#xb4;" horiz-adv-x="567" 
d="M40 542v140l487 64v-141z" />
    <glyph glyph-name="mu" unicode="&#xb5;" horiz-adv-x="594" 
d="M414 51q-14 -30 -35.5 -45.5t-62.5 -15.5q-20 0 -43 9.5t-41 34.5v-234h-186v710h187v-292q0 -43 17 -57t47 -14q31 0 46 13t15 58v292h186v-510h-104z" />
    <glyph glyph-name="mu" unicode="&#x3bc;" horiz-adv-x="594" 
d="M414 51q-14 -30 -35.5 -45.5t-62.5 -15.5q-20 0 -43 9.5t-41 34.5v-234h-186v710h187v-292q0 -43 17 -57t47 -14q31 0 46 13t15 58v292h186v-510h-104z" />
    <glyph glyph-name="paragraph" unicode="&#xb6;" horiz-adv-x="484" 
d="M232 0l2 314h-38q-45 0 -77.5 14.5t-53 37.5t-30 51.5t-9.5 57.5q0 30 9.5 59.5t30 53t53 38t77.5 14.5h229v-640h-193z" />
    <glyph glyph-name="periodcentered" unicode="&#xb7;" horiz-adv-x="270" 
d="M251 322q0 -51 -32 -71.5t-83 -20.5t-83.5 20.5t-32.5 71.5q0 26 8.5 44t24 29t37 15.5t46.5 4.5q50 0 82.5 -20.5t32.5 -72.5z" />
    <glyph glyph-name="cedilla" unicode="&#xb8;" horiz-adv-x="577" 
d="M391 0q0 -54 -9.5 -91t-30 -60t-52.5 -33t-77 -10h-168v133h102q34 0 46.5 12.5t12.5 48.5h176v0z" />
    <glyph glyph-name="ordmasculine" unicode="&#xba;" horiz-adv-x="566" 
d="M539 389q0 -48 -11 -95t-39.5 -84.5t-78.5 -60.5t-128 -23q-79 0 -128.5 23.5t-77.5 61t-38.5 84.5t-10.5 94q0 46 10.5 92.5t39 84t78.5 61t129 23.5q78 0 127.5 -23.5t78 -61t39 -84t10.5 -92.5zM367 389q0 59 -19 85t-64 26t-65 -25.5t-20 -85.5q0 -62 20.5 -88
t62.5 -26q45 0 65 25.5t20 88.5z" />
    <glyph glyph-name="guillemotright" unicode="&#xbb;" horiz-adv-x="595" 
d="M471 44h-191l117 211l-117 212h191l104 -212zM211 44h-191l117 211l-116 212h190l104 -212z" />
    <glyph glyph-name="questiondown" unicode="&#xbf;" horiz-adv-x="576" 
d="M31 209q0 58 22.5 92.5t57 53t74.5 24.5t76 8l13 40h154v-157l-115 -1q-51 0 -71.5 -15.5t-20.5 -44.5q0 -62 58 -62q34 0 53.5 14t19.5 61h187q0 -55 -13.5 -98t-43.5 -73t-79 -45.5t-120 -15.5q-69 0 -117 18.5t-78 49t-43.5 70t-13.5 81.5zM228 556q0 52 32 73t83 21
q52 0 84 -21t32 -73q0 -53 -32.5 -73t-83.5 -20q-25 0 -46 4.5t-36.5 15.5t-24 29t-8.5 44z" />
    <glyph glyph-name="Agrave" unicode="&#xc0;" horiz-adv-x="640" 
d="M452 0l-31 105h-200l-34 -105h-201l226 640h224l218 -640h-202zM321 482l-65 -236h130zM77 735v141l486 -64v-140z" />
    <glyph glyph-name="Aacute" unicode="&#xc1;" horiz-adv-x="640" 
d="M452 0l-31 105h-200l-34 -105h-201l226 640h224l218 -640h-202zM321 482l-65 -236h130zM76 672v140l487 64v-141z" />
    <glyph glyph-name="Acircumflex" unicode="&#xc2;" horiz-adv-x="640" 
d="M452 0l-31 105h-200l-34 -105h-201l226 640h224l218 -640h-202zM321 482l-65 -236h130zM319 729l-242 -58v138l242 57l244 -57v-138z" />
    <glyph glyph-name="Atilde" unicode="&#xc3;" horiz-adv-x="640" 
d="M452 0l-31 105h-200l-34 -105h-201l226 640h224l218 -640h-202zM321 482l-65 -236h130zM69 682q-2 6 -3 14q-1 7 -1.5 16.5t-0.5 22.5q0 27 6 50t21.5 40t42.5 27t69 10q31 0 54 -7.5t43.5 -16.5t39.5 -16.5t42 -7.5q11 0 18.5 5.5t7.5 20.5q0 4 -0.5 5t-1.5 6h165
q1 -8 2 -17q1 -8 2 -18t1 -22q0 -27 -5.5 -49.5t-20.5 -39t-42 -25.5t-69 -9q-33 0 -56.5 7.5t-43.5 17t-39 17t-42 7.5q-11 0 -18.5 -5.5t-7.5 -20.5q0 -4 0.5 -5.5t1.5 -6.5h-165z" />
    <glyph glyph-name="Adieresis" unicode="&#xc4;" horiz-adv-x="640" 
d="M452 0l-31 105h-200l-34 -105h-201l226 640h224l218 -640h-202zM321 482l-65 -236h130zM552 762q0 -44 -28.5 -62t-77.5 -18q-51 0 -79.5 18t-28.5 62q0 45 29 62.5t79 17.5q48 0 77 -17.5t29 -62.5zM302 762q0 -44 -28.5 -62t-77.5 -18q-51 0 -79.5 18t-28.5 62
q0 45 29 62.5t79 17.5q48 0 77 -17.5t29 -62.5z" />
    <glyph glyph-name="Aring" unicode="&#xc5;" horiz-adv-x="640" 
d="M452 0l-31 105h-200l-34 -105h-201l226 640h224l218 -640h-202zM321 482l-65 -236h130zM494 797q0 -59 -39 -90t-134 -31q-49 0 -82.5 8t-54 23.5t-29.5 38t-9 51.5q0 31 9 54t29.5 38t54 22.5t82.5 7.5q95 0 134 -30.5t39 -91.5zM368 797q0 15 -10.5 22.5t-36.5 7.5
t-37 -7.5t-11 -22.5q0 -14 11 -22t37 -8t36.5 8t10.5 22z" />
    <glyph glyph-name="AE" unicode="&#xc6;" horiz-adv-x="954" 
d="M444 0v105h-197l-67 -105h-205l391 640h554v-153h-285v-86h256v-151h-256v-97h285v-153h-476zM444 451l-114 -205h114v205z" />
    <glyph glyph-name="Ccedilla" unicode="&#xc7;" horiz-adv-x="666" 
d="M632 271q0 -51 -11 -96t-36 -81t-65.5 -60.5t-98.5 -34.5q0 -53 -9.5 -86.5t-29 -52.5t-50.5 -26.5t-75 -7.5h-162v121h95q17 0 27.5 2t16.5 7.5t8.5 16t2.5 27.5q-66 13 -107 45.5t-64 76t-31 95t-8 103.5q0 60 11.5 119t44.5 106t91.5 76t153.5 29q83 0 139.5 -22.5
t91.5 -61t50 -89t15 -106.5h-193q-4 35 -11.5 58.5t-19.5 38t-30 21t-42 6.5q-35 0 -56.5 -14t-32.5 -38t-14.5 -55.5t-3.5 -67.5t3 -67.5t14 -55.5t32.5 -38t57.5 -14q49 0 72.5 27t31.5 99h192v0z" />
    <glyph glyph-name="Egrave" unicode="&#xc8;" horiz-adv-x="567" 
d="M59 0v640h475v-153h-284v-92h255v-139h-255v-103h284v-153h-475zM51 734v141l486 -64v-140z" />
    <glyph glyph-name="Eacute" unicode="&#xc9;" horiz-adv-x="567" 
d="M59 0v640h475v-153h-284v-92h255v-139h-255v-103h284v-153h-475zM49 671v140l487 64v-141z" />
    <glyph glyph-name="Ecircumflex" unicode="&#xca;" horiz-adv-x="567" 
d="M59 0v640h475v-153h-284v-92h255v-139h-255v-103h284v-153h-475zM294 728l-242 -58v138l242 57l244 -57v-138z" />
    <glyph glyph-name="Edieresis" unicode="&#xcb;" horiz-adv-x="567" 
d="M59 0v640h475v-153h-284v-92h255v-139h-255v-103h284v-153h-475zM528 761q0 -44 -28.5 -62t-77.5 -18q-51 0 -79.5 18t-28.5 62q0 45 29 62.5t79 17.5q48 0 77 -17.5t29 -62.5zM278 761q0 -44 -28.5 -62t-77.5 -18q-51 0 -79.5 18t-28.5 62q0 45 29 62.5t79 17.5
q48 0 77 -17.5t29 -62.5z" />
    <glyph glyph-name="Igrave" unicode="&#xcc;" horiz-adv-x="309" 
d="M35 709v142l232 -36v-143zM59 0v640h192v-640h-192z" />
    <glyph glyph-name="Iacute" unicode="&#xcd;" horiz-adv-x="309" 
d="M35 670v142l232 37v-143zM59 0v640h192v-640h-192z" />
    <glyph glyph-name="Icircumflex" unicode="&#xce;" horiz-adv-x="309" 
d="M155 710l-124 -43v143l124 41l126 -41v-143zM59 0v640h192v-640h-192z" />
    <glyph glyph-name="Idieresis" unicode="&#xcf;" horiz-adv-x="309" 
d="M389 764q0 -45 -29 -63.5t-78 -18.5q-50 0 -78.5 18.5t-28.5 63.5q0 44 28.5 62t78.5 18q48 0 77.5 -18t29.5 -62zM139 764q0 -45 -29 -63.5t-78 -18.5q-51 0 -79 18.5t-28 63.5q0 44 28.5 62t78.5 18q48 0 77.5 -18t29.5 -62zM59 0v640h192v-640h-192z" />
    <glyph glyph-name="Eth" unicode="&#xd0;" horiz-adv-x="680" 
d="M641 324q0 -72 -18.5 -131.5t-56 -102.5t-95.5 -66.5t-136 -23.5h-248v249h-66v150h66v241h258q77 0 133 -22.5t92 -63.5t53.5 -99.5t17.5 -130.5zM452 325q0 55 -8.5 87.5t-25.5 49.5t-43 22t-60 5h-35v-90h96v-150h-96v-98h31q34 0 60.5 6t44.5 25t27 53t9 90z" />
    <glyph glyph-name="Ntilde" unicode="&#xd1;" horiz-adv-x="724" 
d="M450 0l-195 346v-346h-194v640h220l189 -354v354h194v-640h-214zM113 681q-2 6 -3 14q-1 7 -1.5 16.5t-0.5 22.5q0 27 6 50t21.5 40t42.5 27t69 10q31 0 54 -7.5t43.5 -16.5t39.5 -16.5t42 -7.5q11 0 18.5 5.5t7.5 20.5q0 4 -0.5 5t-1.5 6h165q1 -8 2 -17q1 -8 2 -18
t1 -22q0 -27 -5.5 -49.5t-20.5 -39t-42 -25.5t-69 -9q-33 0 -56.5 7.5t-43.5 17t-39 17t-42 7.5q-11 0 -18.5 -5.5t-7.5 -20.5q0 -4 0.5 -5.5t1.5 -6.5h-165z" />
    <glyph glyph-name="Ograve" unicode="&#xd2;" horiz-adv-x="691" 
d="M656 319q0 -60 -12 -119t-45.5 -105.5t-94.5 -75.5t-159 -29t-158.5 29t-94.5 75.5t-45.5 106t-11.5 119.5t12 119.5t45.5 106t94 75.5t158.5 29t159 -29t94.5 -76t45.5 -106t12 -120zM461 319q0 36 -2.5 68t-14 56t-35 38t-64.5 14t-64 -14t-34.5 -38t-14.5 -55.5
t-3 -67.5t3 -68t14.5 -56t34.5 -38t64 -14t64.5 14t35 38t14 56t2.5 67zM102 734v141l486 -64v-140z" />
    <glyph glyph-name="Oacute" unicode="&#xd3;" horiz-adv-x="691" 
d="M656 319q0 -60 -12 -119t-45.5 -105.5t-94.5 -75.5t-159 -29t-158.5 29t-94.5 75.5t-45.5 106t-11.5 119.5t12 119.5t45.5 106t94 75.5t158.5 29t159 -29t94.5 -76t45.5 -106t12 -120zM461 319q0 36 -2.5 68t-14 56t-35 38t-64.5 14t-64 -14t-34.5 -38t-14.5 -55.5
t-3 -67.5t3 -68t14.5 -56t34.5 -38t64 -14t64.5 14t35 38t14 56t2.5 67zM101 671v140l487 64v-141z" />
    <glyph glyph-name="Ocircumflex" unicode="&#xd4;" horiz-adv-x="691" 
d="M656 319q0 -60 -12 -119t-45.5 -105.5t-94.5 -75.5t-159 -29t-158.5 29t-94.5 75.5t-45.5 106t-11.5 119.5t12 119.5t45.5 106t94 75.5t158.5 29t159 -29t94.5 -76t45.5 -106t12 -120zM461 319q0 36 -2.5 68t-14 56t-35 38t-64.5 14t-64 -14t-34.5 -38t-14.5 -55.5
t-3 -67.5t3 -68t14.5 -56t34.5 -38t64 -14t64.5 14t35 38t14 56t2.5 67zM344 728l-242 -58v138l242 57l244 -57v-138z" />
    <glyph glyph-name="Otilde" unicode="&#xd5;" horiz-adv-x="691" 
d="M656 319q0 -60 -12 -119t-45.5 -105.5t-94.5 -75.5t-159 -29t-158.5 29t-94.5 75.5t-45.5 106t-11.5 119.5t12 119.5t45.5 106t94 75.5t158.5 29t159 -29t94.5 -76t45.5 -106t12 -120zM461 319q0 36 -2.5 68t-14 56t-35 38t-64.5 14t-64 -14t-34.5 -38t-14.5 -55.5
t-3 -67.5t3 -68t14.5 -56t34.5 -38t64 -14t64.5 14t35 38t14 56t2.5 67zM94 681q-2 6 -3 14q-1 7 -1.5 16.5t-0.5 22.5q0 27 6 50t21.5 40t42.5 27t69 10q31 0 54 -7.5t43.5 -16.5t39.5 -16.5t42 -7.5q11 0 18.5 5.5t7.5 20.5q0 4 -0.5 5t-1.5 6h165q1 -8 2 -17q1 -8 2 -18
t1 -22q0 -27 -5.5 -49.5t-20.5 -39t-42 -25.5t-69 -9q-33 0 -56.5 7.5t-43.5 17t-39 17t-42 7.5q-11 0 -18.5 -5.5t-7.5 -20.5q0 -4 0.5 -5.5t1.5 -6.5h-165z" />
    <glyph glyph-name="Odieresis" unicode="&#xd6;" horiz-adv-x="691" 
d="M656 319q0 -60 -12 -119t-45.5 -105.5t-94.5 -75.5t-159 -29t-158.5 29t-94.5 75.5t-45.5 106t-11.5 119.5t12 119.5t45.5 106t94 75.5t158.5 29t159 -29t94.5 -76t45.5 -106t12 -120zM461 319q0 36 -2.5 68t-14 56t-35 38t-64.5 14t-64 -14t-34.5 -38t-14.5 -55.5
t-3 -67.5t3 -68t14.5 -56t34.5 -38t64 -14t64.5 14t35 38t14 56t2.5 67zM577 761q0 -44 -28.5 -62t-77.5 -18q-51 0 -79.5 18t-28.5 62q0 45 29 62.5t79 17.5q48 0 77 -17.5t29 -62.5zM327 761q0 -44 -28.5 -62t-77.5 -18q-51 0 -79.5 18t-28.5 62q0 45 29 62.5t79 17.5
q48 0 77 -17.5t29 -62.5z" />
    <glyph glyph-name="multiply" unicode="&#xd7;" horiz-adv-x="611" 
d="M392 0l-76 159l-80 -159h-222l195 265l-179 245h207l78 -141l77 141h208l-180 -245l195 -265h-223z" />
    <glyph glyph-name="Oslash" unicode="&#xd8;" horiz-adv-x="690" 
d="M656 319q0 -60 -12 -119t-45.5 -105.5t-94.5 -75t-159 -28.5l-20 -57h-189l33 95q-41 21 -67 53t-41 70.5t-20.5 81.5t-5.5 86q0 60 12 119t45.5 105.5t94 75.5t158.5 29h16.5t17.5 -2l20 60h186l-38 -112q33 -24 54 -55t33.5 -67t17 -75t4.5 -79zM461 319q0 36 -2.5 68
t-14 55.5t-35 37.5t-64.5 14t-64 -14t-34.5 -37.5t-14.5 -55t-3 -67.5t3 -67.5t14.5 -55.5t34.5 -38t64 -14t64.5 14t35 38t14 55.5t2.5 66.5z" />
    <glyph glyph-name="Ugrave" unicode="&#xd9;" horiz-adv-x="675" 
d="M626 281q0 -75 -16 -129.5t-51 -90.5t-89.5 -53.5t-132.5 -17.5q-77 0 -132 17.5t-89.5 53.5t-50.5 90.5t-16 129.5v359h193v-359q0 -38 4.5 -63.5t15.5 -40.5t29.5 -21.5t45.5 -6.5q28 0 46 6.5t29 21.5t15.5 40.5t4.5 63.5v359h194v-359zM93 734v141l486 -64v-140z" />
    <glyph glyph-name="Uacute" unicode="&#xda;" horiz-adv-x="675" 
d="M626 281q0 -75 -16 -129.5t-51 -90.5t-89.5 -53.5t-132.5 -17.5q-77 0 -132 17.5t-89.5 53.5t-50.5 90.5t-16 129.5v359h193v-359q0 -38 4.5 -63.5t15.5 -40.5t29.5 -21.5t45.5 -6.5q28 0 46 6.5t29 21.5t15.5 40.5t4.5 63.5v359h194v-359zM94 671v140l487 64v-141z" />
    <glyph glyph-name="Ucircumflex" unicode="&#xdb;" horiz-adv-x="675" 
d="M626 281q0 -75 -16 -129.5t-51 -90.5t-89.5 -53.5t-132.5 -17.5q-77 0 -132 17.5t-89.5 53.5t-50.5 90.5t-16 129.5v359h193v-359q0 -38 4.5 -63.5t15.5 -40.5t29.5 -21.5t45.5 -6.5q28 0 46 6.5t29 21.5t15.5 40.5t4.5 63.5v359h194v-359zM336 728l-242 -58v138l242 57
l244 -57v-138z" />
    <glyph glyph-name="Udieresis" unicode="&#xdc;" horiz-adv-x="675" 
d="M626 281q0 -75 -16 -129.5t-51 -90.5t-89.5 -53.5t-132.5 -17.5q-77 0 -132 17.5t-89.5 53.5t-50.5 90.5t-16 129.5v359h193v-359q0 -38 4.5 -63.5t15.5 -40.5t29.5 -21.5t45.5 -6.5q28 0 46 6.5t29 21.5t15.5 40.5t4.5 63.5v359h194v-359zM568 761q0 -44 -28.5 -62
t-77.5 -18q-51 0 -79.5 18t-28.5 62q0 45 29 62.5t79 17.5q48 0 77 -17.5t29 -62.5zM318 761q0 -44 -28.5 -62t-77.5 -18q-51 0 -79.5 18t-28.5 62q0 45 29 62.5t79 17.5q48 0 77 -17.5t29 -62.5z" />
    <glyph glyph-name="Yacute" unicode="&#xdd;" horiz-adv-x="656" 
d="M421 199v-199h-197v199l-224 441h214l108 -261l115 261h219zM84 671v140l487 64v-141z" />
    <glyph glyph-name="Thorn" unicode="&#xde;" horiz-adv-x="617" 
d="M581 327q0 -21 -2 -44.5t-10.5 -46.5t-25.5 -44.5t-47 -38t-75.5 -26.5t-109.5 -10h-60v-117h-192v639h192v-98h53q64 0 109.5 -10t76.5 -27t49 -39t27.5 -45.5t12 -47.5t2.5 -45zM387 327q0 14 -2.5 25.5t-10.5 19.5t-23 12.5t-41 4.5h-59v-122h59q26 0 41 4.5t23 12
t10.5 18.5t2.5 25z" />
    <glyph glyph-name="germandbls" unicode="&#xdf;" horiz-adv-x="865" 
d="M846 145q0 -27 -13.5 -54t-42.5 -49.5t-75 -36.5t-110 -14q-128 0 -194 46t-66 149h184q0 -41 15 -62.5t57 -21.5q60 0 60 44q0 24 -23 36t-57 20.5t-74.5 17t-74.5 24.5t-57 43t-23 73q0 41 20.5 73.5t71.5 52.5q-2 42 -18 60.5t-59 18.5q-50 0 -68 -15.5t-18 -52.5
v-497h-184v360h-85v112l79 38q2 49 14.5 87t41 64t76 40t119.5 14q146 0 214.5 -45t68.5 -135v-130h-30t-29.5 -3t-22 -11.5t-8.5 -26.5q0 -22 23 -33t57.5 -19t75 -16.5t75 -25.5t57.5 -46.5t23 -78.5z" />
    <glyph glyph-name="agrave" unicode="&#xe0;" 
d="M440 0l-33 70q-31 -41 -75 -60.5t-107 -19.5q-42 0 -78.5 8.5t-63.5 27t-42.5 46.5t-15.5 67q0 43 18 73t58 50t103 31.5t152 17.5q0 53 -13 73.5t-53 20.5q-38 0 -51 -19t-13 -55h-185q0 36 11 70t38.5 60.5t75 42.5t119.5 16q84 0 135 -19t78.5 -51t36.5 -74t9 -89
v-287h-104zM279 214q-35 -5 -48.5 -21.5t-13.5 -33.5q0 -24 14.5 -37t47.5 -13q32 0 54 27.5t22 85.5zM50 605v141l486 -64v-140z" />
    <glyph glyph-name="aacute" unicode="&#xe1;" 
d="M440 0l-33 70q-31 -41 -75 -60.5t-107 -19.5q-42 0 -78.5 8.5t-63.5 27t-42.5 46.5t-15.5 67q0 43 18 73t58 50t103 31.5t152 17.5q0 53 -13 73.5t-53 20.5q-38 0 -51 -19t-13 -55h-185q0 36 11 70t38.5 60.5t75 42.5t119.5 16q84 0 135 -19t78.5 -51t36.5 -74t9 -89
v-287h-104zM279 214q-35 -5 -48.5 -21.5t-13.5 -33.5q0 -24 14.5 -37t47.5 -13q32 0 54 27.5t22 85.5zM49 542v140l487 64v-141z" />
    <glyph glyph-name="acircumflex" unicode="&#xe2;" 
d="M440 0l-33 70q-31 -41 -75 -60.5t-107 -19.5q-42 0 -78.5 8.5t-63.5 27t-42.5 46.5t-15.5 67q0 43 18 73t58 50t103 31.5t152 17.5q0 53 -13 73.5t-53 20.5q-38 0 -51 -19t-13 -55h-185q0 36 11 70t38.5 60.5t75 42.5t119.5 16q84 0 135 -19t78.5 -51t36.5 -74t9 -89
v-287h-104zM279 214q-35 -5 -48.5 -21.5t-13.5 -33.5q0 -24 14.5 -37t47.5 -13q32 0 54 27.5t22 85.5zM292 599l-242 -58v138l242 57l244 -57v-138z" />
    <glyph glyph-name="atilde" unicode="&#xe3;" 
d="M440 0l-33 70q-31 -41 -75 -60.5t-107 -19.5q-42 0 -78.5 8.5t-63.5 27t-42.5 46.5t-15.5 67q0 43 18 73t58 50t103 31.5t152 17.5q0 53 -13 73.5t-53 20.5q-38 0 -51 -19t-13 -55h-185q0 36 11 70t38.5 60.5t75 42.5t119.5 16q84 0 135 -19t78.5 -51t36.5 -74t9 -89
v-287h-104zM279 214q-35 -5 -48.5 -21.5t-13.5 -33.5q0 -24 14.5 -37t47.5 -13q32 0 54 27.5t22 85.5zM36 552q-2 6 -3 14q-1 7 -1.5 16.5t-0.5 22.5q0 27 6 50t21.5 40t42.5 27t69 10q31 0 54 -7.5t43.5 -16.5t39.5 -16.5t42 -7.5q11 0 18.5 5.5t7.5 20.5q0 4 -0.5 5
t-1.5 6h165q1 -8 2 -17q1 -8 2 -18t1 -22q0 -27 -5.5 -49.5t-20.5 -39t-42 -25.5t-69 -9q-33 0 -56.5 7.5t-43.5 17t-39 17t-42 7.5q-11 0 -18.5 -5.5t-7.5 -20.5q0 -4 0.5 -5.5t1.5 -6.5h-165z" />
    <glyph glyph-name="adieresis" unicode="&#xe4;" 
d="M440 0l-33 70q-31 -41 -75 -60.5t-107 -19.5q-42 0 -78.5 8.5t-63.5 27t-42.5 46.5t-15.5 67q0 43 18 73t58 50t103 31.5t152 17.5q0 53 -13 73.5t-53 20.5q-38 0 -51 -19t-13 -55h-185q0 36 11 70t38.5 60.5t75 42.5t119.5 16q84 0 135 -19t78.5 -51t36.5 -74t9 -89
v-287h-104zM279 214q-35 -5 -48.5 -21.5t-13.5 -33.5q0 -24 14.5 -37t47.5 -13q32 0 54 27.5t22 85.5zM525 632q0 -44 -28.5 -62t-77.5 -18q-51 0 -79.5 18t-28.5 62q0 45 29 62.5t79 17.5q48 0 77 -17.5t29 -62.5zM275 632q0 -44 -28.5 -62t-77.5 -18q-51 0 -79.5 18
t-28.5 62q0 45 29 62.5t79 17.5q48 0 77 -17.5t29 -62.5z" />
    <glyph glyph-name="aring" unicode="&#xe5;" 
d="M440 0l-33 70q-31 -41 -75 -60.5t-107 -19.5q-42 0 -78.5 8.5t-63.5 27t-42.5 46.5t-15.5 67q0 43 18 73t58 50t103 31.5t152 17.5q0 53 -13 73.5t-53 20.5q-38 0 -51 -19t-13 -55h-185q0 36 11 70t38.5 60.5t75 42.5t119.5 16q84 0 135 -19t78.5 -51t36.5 -74t9 -89
v-287h-104zM279 214q-35 -5 -48.5 -21.5t-13.5 -33.5q0 -24 14.5 -37t47.5 -13q32 0 54 27.5t22 85.5zM467 667q0 -59 -39 -90t-134 -31q-49 0 -82.5 8t-54 23.5t-29.5 38t-9 51.5q0 31 9 54t29.5 38t54 22.5t82.5 7.5q95 0 134 -30.5t39 -91.5zM341 667q0 15 -10.5 22.5
t-36.5 7.5t-37 -7.5t-11 -22.5q0 -14 11 -22t37 -8t36.5 8t10.5 22z" />
    <glyph glyph-name="ae" unicode="&#xe6;" horiz-adv-x="905" 
d="M882 170q-3 -38 -18 -71t-45 -57t-76.5 -38t-112.5 -14q-42 0 -73.5 7.5t-54 19.5t-37.5 26.5t-23 29.5q-28 -38 -74 -60.5t-123 -22.5q-48 0 -88.5 9t-70 28t-45.5 47.5t-16 67.5q0 43 19.5 72.5t60 49t103 30.5t148.5 17q0 53 -13 73.5t-53 20.5q-38 0 -51 -19t-13 -55
h-185q0 36 11 70t37.5 60.5t72 42.5t114.5 16q60 0 104.5 -15.5t70.5 -49.5q26 32 67.5 48.5t110.5 16.5q65 0 109 -16t72 -42t42 -58.5t20 -66.5t6.5 -65.5t0.5 -55.5h-335q1 -56 20 -80.5t57 -24.5q22 0 35.5 6.5t21.5 15.5t11.5 19t4.5 18h188zM694 311q0 50 -17.5 70
t-59.5 20q-36 0 -53.5 -21t-18.5 -69h149zM279 214q-35 -4 -48.5 -21t-13.5 -34q0 -24 14.5 -37t47.5 -13q32 0 54 27.5t22 85.5z" />
    <glyph glyph-name="ccedilla" unicode="&#xe7;" horiz-adv-x="567" 
d="M540 221q0 -91 -45 -145.5t-123 -73.5q0 -52 -9 -86t-28.5 -54t-50 -28t-74.5 -8h-150v121h82q33 0 43.5 11t11.5 43q-53 12 -86 38t-52 60.5t-25.5 74.5t-6.5 80q0 47 10 94.5t38 85.5t77.5 62t129.5 24q59 0 107 -15t81.5 -44t51.5 -72.5t18 -100.5h-180q0 26 -7 42
t-18 25t-24.5 12.5t-26.5 3.5q-39 0 -61 -27t-22 -88t21.5 -87.5t61.5 -26.5q13 0 26.5 4t24.5 13t17.5 24t6.5 38h181v0z" />
    <glyph glyph-name="egrave" unicode="&#xe8;" horiz-adv-x="575" 
d="M550 169q-2 -38 -17.5 -71t-46 -57t-77 -37.5t-112.5 -13.5q-86 0 -138.5 24t-81.5 62t-38.5 85.5t-9.5 94.5t10 94t39 85t81.5 61.5t136.5 23.5q66 0 110 -16t72 -42t42 -58.5t20 -66.5t6 -65.5v-55.5h-181h-160q3 -54 23 -79.5t62 -25.5q38 0 55.5 16.5t19.5 42.5z
M365 311q-5 50 -21.5 70t-57.5 20q-38 0 -57 -19t-24 -71h160zM50 605v141l486 -64v-140z" />
    <glyph glyph-name="eacute" unicode="&#xe9;" horiz-adv-x="575" 
d="M550 169q-2 -38 -17.5 -71t-46 -57t-77 -37.5t-112.5 -13.5q-86 0 -138.5 24t-81.5 62t-38.5 85.5t-9.5 94.5t10 94t39 85t81.5 61.5t136.5 23.5q66 0 110 -16t72 -42t42 -58.5t20 -66.5t6 -65.5v-55.5h-181h-160q3 -54 23 -79.5t62 -25.5q38 0 55.5 16.5t19.5 42.5z
M365 311q-5 50 -21.5 70t-57.5 20q-38 0 -57 -19t-24 -71h160zM50 542v140l487 64v-141z" />
    <glyph glyph-name="ecircumflex" unicode="&#xea;" horiz-adv-x="575" 
d="M550 169q-2 -38 -17.5 -71t-46 -57t-77 -37.5t-112.5 -13.5q-86 0 -138.5 24t-81.5 62t-38.5 85.5t-9.5 94.5t10 94t39 85t81.5 61.5t136.5 23.5q66 0 110 -16t72 -42t42 -58.5t20 -66.5t6 -65.5v-55.5h-181h-160q3 -54 23 -79.5t62 -25.5q38 0 55.5 16.5t19.5 42.5z
M365 311q-5 50 -21.5 70t-57.5 20q-38 0 -57 -19t-24 -71h160zM291 599l-242 -58v138l242 57l244 -57v-138z" />
    <glyph glyph-name="edieresis" unicode="&#xeb;" horiz-adv-x="575" 
d="M550 169q-2 -38 -17.5 -71t-46 -57t-77 -37.5t-112.5 -13.5q-86 0 -138.5 24t-81.5 62t-38.5 85.5t-9.5 94.5t10 94t39 85t81.5 61.5t136.5 23.5q66 0 110 -16t72 -42t42 -58.5t20 -66.5t6 -65.5v-55.5h-181h-160q3 -54 23 -79.5t62 -25.5q38 0 55.5 16.5t19.5 42.5z
M365 311q-5 50 -21.5 70t-57.5 20q-38 0 -57 -19t-24 -71h160zM521 632q0 -44 -28.5 -62t-77.5 -18q-51 0 -79.5 18t-28.5 62q0 45 29 62.5t79 17.5q48 0 77 -17.5t29 -62.5zM271 632q0 -44 -28.5 -62t-77.5 -18q-51 0 -79.5 18t-28.5 62q0 45 29 62.5t79 17.5
q48 0 77 -17.5t29 -62.5z" />
    <glyph glyph-name="igrave" unicode="&#xec;" horiz-adv-x="271" 
d="M20 592v157l232 -50v-155zM42 0v510h189v-510h-189z" />
    <glyph glyph-name="iacute" unicode="&#xed;" horiz-adv-x="271" 
d="M20 544v155l232 50v-157zM42 0v510h189v-510h-189z" />
    <glyph glyph-name="icircumflex" unicode="&#xee;" horiz-adv-x="271" 
d="M134 602l-124 -55v154l124 55l126 -54v-155zM42 0v510h189v-510h-189z" />
    <glyph glyph-name="idieresis" unicode="&#xef;" horiz-adv-x="271" 
d="M42 0v510h189v-510h-189zM367 632q0 -44 -28.5 -62t-77.5 -18q-51 0 -79.5 18t-28.5 62q0 45 29 62.5t79 17.5q48 0 77 -17.5t29 -62.5zM117 632q0 -44 -28.5 -62t-77.5 -18q-51 0 -79.5 18t-28.5 62q0 45 29 62.5t79 17.5q48 0 77 -17.5t29 -62.5z" />
    <glyph glyph-name="eth" unicode="&#xf0;" horiz-adv-x="566" 
d="M220 630l58 13q-11 17 -22 32.5t-23 31.5h197l15 -26l90 21v-86l-50 -12q31 -72 45 -149.5t14 -167.5q0 -57 -11 -110.5t-40.5 -95t-80.5 -66.5t-130 -25q-77 0 -126 23.5t-78 61.5t-40 85t-11 94q0 46 10.5 93.5t36.5 86t68.5 62.5t107.5 24q62 0 100 -32q-13 40 -30 79
l-100 -23v86zM367 254q0 60 -19 88t-64 28t-65 -28t-20 -88q0 -61 20.5 -88t62.5 -27q45 0 65 26.5t20 88.5z" />
    <glyph glyph-name="ntilde" unicode="&#xf1;" 
d="M357 0v285q0 26 -3 42.5t-9.5 25.5t-18 12.5t-29.5 3.5q-35 0 -49 -17t-14 -67v-285h-188v510h105l31 -62q25 31 66 51.5t95 20.5q67 0 107 -17.5t61 -48.5t27 -72.5t6 -89.5v-292h-187zM42 552q-2 6 -3 14q-1 7 -1.5 16.5t-0.5 22.5q0 27 6 50t21.5 40t42.5 27t69 10
q31 0 54 -7.5t43.5 -16.5t39.5 -16.5t42 -7.5q11 0 18.5 5.5t7.5 20.5q0 4 -0.5 5t-1.5 6h165q1 -8 2 -17q1 -8 2 -18t1 -22q0 -27 -5.5 -49.5t-20.5 -39t-42 -25.5t-69 -9q-33 0 -56.5 7.5t-43.5 17t-39 17t-42 7.5q-11 0 -18.5 -5.5t-7.5 -20.5q0 -4 0.5 -5.5t1.5 -6.5
h-165z" />
    <glyph glyph-name="ograve" unicode="&#xf2;" horiz-adv-x="566" 
d="M539 254q0 -47 -11 -94.5t-39.5 -85t-78.5 -61t-128 -23.5q-79 0 -128.5 23.5t-77.5 61.5t-38.5 85t-10.5 94q0 46 10.5 93.5t39 86t78.5 62.5t129 24q78 0 127.5 -24t78 -62.5t39 -86t10.5 -93.5zM367 254q0 60 -19 88t-64 28t-65 -28t-20 -88q0 -61 20.5 -88t62.5 -27
q45 0 65 26.5t20 88.5zM40 605v141l486 -64v-140z" />
    <glyph glyph-name="oacute" unicode="&#xf3;" horiz-adv-x="566" 
d="M539 254q0 -47 -11 -94.5t-39.5 -85t-78.5 -61t-128 -23.5q-79 0 -128.5 23.5t-77.5 61.5t-38.5 85t-10.5 94q0 46 10.5 93.5t39 86t78.5 62.5t129 24q78 0 127.5 -24t78 -62.5t39 -86t10.5 -93.5zM367 254q0 60 -19 88t-64 28t-65 -28t-20 -88q0 -61 20.5 -88t62.5 -27
q45 0 65 26.5t20 88.5zM40 542v140l487 64v-141z" />
    <glyph glyph-name="ocircumflex" unicode="&#xf4;" horiz-adv-x="566" 
d="M539 254q0 -47 -11 -94.5t-39.5 -85t-78.5 -61t-128 -23.5q-79 0 -128.5 23.5t-77.5 61.5t-38.5 85t-10.5 94q0 46 10.5 93.5t39 86t78.5 62.5t129 24q78 0 127.5 -24t78 -62.5t39 -86t10.5 -93.5zM367 254q0 60 -19 88t-64 28t-65 -28t-20 -88q0 -61 20.5 -88t62.5 -27
q45 0 65 26.5t20 88.5zM282 599l-242 -58v138l242 57l244 -57v-138z" />
    <glyph glyph-name="otilde" unicode="&#xf5;" horiz-adv-x="566" 
d="M539 254q0 -47 -11 -94.5t-39.5 -85t-78.5 -61t-128 -23.5q-79 0 -128.5 23.5t-77.5 61.5t-38.5 85t-10.5 94q0 46 10.5 93.5t39 86t78.5 62.5t129 24q78 0 127.5 -24t78 -62.5t39 -86t10.5 -93.5zM367 254q0 60 -19 88t-64 28t-65 -28t-20 -88q0 -61 20.5 -88t62.5 -27
q45 0 65 26.5t20 88.5zM32 552q-2 6 -3 14q-1 7 -1.5 16.5t-0.5 22.5q0 27 6 50t21.5 40t42.5 27t69 10q31 0 54 -7.5t43.5 -16.5t39.5 -16.5t42 -7.5q11 0 18.5 5.5t7.5 20.5q0 4 -0.5 5t-1.5 6h165q1 -8 2 -17q1 -8 2 -18t1 -22q0 -27 -5.5 -49.5t-20.5 -39t-42 -25.5
t-69 -9q-33 0 -56.5 7.5t-43.5 17t-39 17t-42 7.5q-11 0 -18.5 -5.5t-7.5 -20.5q0 -4 0.5 -5.5t1.5 -6.5h-165z" />
    <glyph glyph-name="odieresis" unicode="&#xf6;" horiz-adv-x="566" 
d="M539 254q0 -47 -11 -94.5t-39.5 -85t-78.5 -61t-128 -23.5q-79 0 -128.5 23.5t-77.5 61.5t-38.5 85t-10.5 94q0 46 10.5 93.5t39 86t78.5 62.5t129 24q78 0 127.5 -24t78 -62.5t39 -86t10.5 -93.5zM367 254q0 60 -19 88t-64 28t-65 -28t-20 -88q0 -61 20.5 -88t62.5 -27
q45 0 65 26.5t20 88.5zM515 632q0 -44 -28.5 -62t-77.5 -18q-51 0 -79.5 18t-28.5 62q0 45 29 62.5t79 17.5q48 0 77 -17.5t29 -62.5zM265 632q0 -44 -28.5 -62t-77.5 -18q-51 0 -79.5 18t-28.5 62q0 45 29 62.5t79 17.5q48 0 77 -17.5t29 -62.5z" />
    <glyph glyph-name="divide" unicode="&#xf7;" horiz-adv-x="646" 
d="M427 446q0 -41 -28 -58t-78 -17q-49 0 -78 16.5t-29 58.5t29 58t78 16q50 0 78 -16t28 -58zM34 181v149h578v-149h-578zM427 65q0 -42 -28 -58.5t-78 -16.5q-49 0 -78 16.5t-29 58.5t29 58t78 16q50 0 78 -16t28 -58z" />
    <glyph glyph-name="oslash" unicode="&#xf8;" horiz-adv-x="566" 
d="M539 255q0 -48 -11 -96t-39.5 -86t-78.5 -61.5t-128 -22.5h-3l-13 -55h-169l30 92q-30 19 -49.5 45t-30.5 56t-15.5 63t-4.5 65q0 47 10.5 94t39.5 85t80 62t132 24l11 54h166l-29 -92q31 -19 50.5 -45t31 -56t16 -62t4.5 -64zM367 255q0 60 -19 85.5t-64 25.5t-65 -25.5
t-20 -85.5q0 -61 20.5 -87.5t62.5 -26.5q45 0 65 25.5t20 88.5z" />
    <glyph glyph-name="ugrave" unicode="&#xf9;" 
d="M436 0l-31 61q-25 -32 -64.5 -51.5t-94.5 -19.5q-68 0 -108.5 17t-61.5 47t-27.5 71t-6.5 88v297h187v-289q0 -51 13 -67t47 -16q35 0 49 16t14 67v289h188v-510h-104zM50 605v141l486 -64v-140z" />
    <glyph glyph-name="uacute" unicode="&#xfa;" 
d="M436 0l-31 61q-25 -32 -64.5 -51.5t-94.5 -19.5q-68 0 -108.5 17t-61.5 47t-27.5 71t-6.5 88v297h187v-289q0 -51 13 -67t47 -16q35 0 49 16t14 67v289h188v-510h-104zM49 542v140l487 64v-141z" />
    <glyph glyph-name="ucircumflex" unicode="&#xfb;" 
d="M436 0l-31 61q-25 -32 -64.5 -51.5t-94.5 -19.5q-68 0 -108.5 17t-61.5 47t-27.5 71t-6.5 88v297h187v-289q0 -51 13 -67t47 -16q35 0 49 16t14 67v289h188v-510h-104zM292 599l-242 -58v138l242 57l244 -57v-138z" />
    <glyph glyph-name="udieresis" unicode="&#xfc;" 
d="M436 0l-31 61q-25 -32 -64.5 -51.5t-94.5 -19.5q-68 0 -108.5 17t-61.5 47t-27.5 71t-6.5 88v297h187v-289q0 -51 13 -67t47 -16q35 0 49 16t14 67v289h188v-510h-104zM525 632q0 -44 -28.5 -62t-77.5 -18q-51 0 -79.5 18t-28.5 62q0 45 29 62.5t79 17.5q48 0 77 -17.5
t29 -62.5zM275 632q0 -44 -28.5 -62t-77.5 -18q-51 0 -79.5 18t-28.5 62q0 45 29 62.5t79 17.5q48 0 77 -17.5t29 -62.5z" />
    <glyph glyph-name="yacute" unicode="&#xfd;" horiz-adv-x="591" 
d="M544 5q0 -39 -9 -77t-35.5 -69t-75.5 -50t-130 -19q-76 0 -125 11.5t-77 33t-39 53.5t-11 74h179q0 -26 16 -44t58 -18q21 0 33.5 7t18.5 19t8 28t2 35v56q-17 -21 -50 -35.5t-68 -14.5q-68 0 -106.5 18t-58 49t-24 73t-4.5 91v284h186v-276q0 -28 3 -45.5t10 -27
t18.5 -13t28.5 -3.5q18 0 30 3.5t19.5 13t11 27t3.5 45.5l1 276h187v-505zM51 542v140l487 64v-141z" />
    <glyph glyph-name="thorn" unicode="&#xfe;" horiz-adv-x="595" 
d="M567 254q0 -47 -8.5 -94t-31 -85t-61.5 -61.5t-100 -23.5q-32 0 -57 6.5t-42 14.5q-20 10 -35 22v-233h-186v904h186v-229q15 12 35 22q17 8 42 15.5t57 7.5q61 0 100 -24t61.5 -62t31 -85.5t8.5 -94.5zM377 254q0 25 -3 46.5t-10.5 37.5t-22 25t-36.5 9
q-24 0 -38.5 -9.5t-22.5 -25.5t-10.5 -37.5t-2.5 -45.5q0 -25 2.5 -47t10.5 -38t22.5 -25t38.5 -9q22 0 36.5 9t22 25t10.5 37.5t3 47.5z" />
    <glyph glyph-name="ydieresis" unicode="&#xff;" horiz-adv-x="591" 
d="M544 5q0 -39 -9 -77t-35.5 -69t-75.5 -50t-130 -19q-76 0 -125 11.5t-77 33t-39 53.5t-11 74h179q0 -26 16 -44t58 -18q21 0 33.5 7t18.5 19t8 28t2 35v56q-17 -21 -50 -35.5t-68 -14.5q-68 0 -106.5 18t-58 49t-24 73t-4.5 91v284h186v-276q0 -28 3 -45.5t10 -27
t18.5 -13t28.5 -3.5q18 0 30 3.5t19.5 13t11 27t3.5 45.5l1 276h187v-505zM527 632q0 -44 -28.5 -62t-77.5 -18q-51 0 -79.5 18t-28.5 62q0 45 29 62.5t79 17.5q48 0 77 -17.5t29 -62.5zM277 632q0 -44 -28.5 -62t-77.5 -18q-51 0 -79.5 18t-28.5 62q0 45 29 62.5t79 17.5
q48 0 77 -17.5t29 -62.5z" />
    <glyph glyph-name="Amacron" unicode="&#x100;" horiz-adv-x="640" 
d="M452 0l-31 105h-200l-34 -105h-201l226 640h224l218 -640h-202zM321 482l-65 -236h130zM76 684v133h487v-133h-487z" />
    <glyph glyph-name="amacron" unicode="&#x101;" 
d="M440 0l-33 70q-31 -41 -75 -60.5t-107 -19.5q-42 0 -78.5 8.5t-63.5 27t-42.5 46.5t-15.5 67q0 43 18 73t58 50t103 31.5t152 17.5q0 53 -13 73.5t-53 20.5q-38 0 -51 -19t-13 -55h-185q0 36 11 70t38.5 60.5t75 42.5t119.5 16q84 0 135 -19t78.5 -51t36.5 -74t9 -89
v-287h-104zM279 214q-35 -5 -48.5 -21.5t-13.5 -33.5q0 -24 14.5 -37t47.5 -13q32 0 54 27.5t22 85.5zM47 554v133h487v-133h-487z" />
    <glyph glyph-name="Abreve" unicode="&#x102;" horiz-adv-x="640" 
d="M452 0l-31 105h-200l-34 -105h-201l226 640h224l218 -640h-202zM321 482l-65 -236h130zM531 846q0 -53 -15 -85t-40 -50t-57 -24t-66 -6h-75q-36 0 -67.5 6t-54 24t-35.5 50.5t-13 84.5h175q0 -28 7 -38.5t30 -10.5q20 0 27.5 11t7.5 38h176z" />
    <glyph glyph-name="abreve" unicode="&#x103;" 
d="M440 0l-33 70q-31 -41 -75 -60.5t-107 -19.5q-42 0 -78.5 8.5t-63.5 27t-42.5 46.5t-15.5 67q0 43 18 73t58 50t103 31.5t152 17.5q0 53 -13 73.5t-53 20.5q-38 0 -51 -19t-13 -55h-185q0 36 11 70t38.5 60.5t75 42.5t119.5 16q84 0 135 -19t78.5 -51t36.5 -74t9 -89
v-287h-104zM279 214q-35 -5 -48.5 -21.5t-13.5 -33.5q0 -24 14.5 -37t47.5 -13q32 0 54 27.5t22 85.5zM505 716q0 -53 -15 -85t-40 -50t-57 -24t-66 -6h-75q-36 0 -67.5 6t-54 24t-35.5 50.5t-13 84.5h175q0 -28 7 -38.5t30 -10.5q20 0 27.5 11t7.5 38h176z" />
    <glyph glyph-name="Aogonek" unicode="&#x104;" horiz-adv-x="640" 
d="M576 -210q-44 0 -69.5 19.5t-25.5 64.5q0 14 4 31t11.5 34t19 33t26.5 28h-90l-31 105h-200l-34 -105h-201l226 640h224l218 -640q-17 -12 -25.5 -30t-8.5 -29q0 -12 7.5 -20t26.5 -8v-123h-78zM321 482l-65 -236h130z" />
    <glyph glyph-name="aogonek" unicode="&#x105;" 
d="M466 -210q-44 0 -69.5 19.5t-25.5 64.5q0 29 16 66t50 64l-30 66q-31 -41 -75 -60.5t-107 -19.5q-42 0 -78.5 8.5t-63.5 27t-42.5 46.5t-15.5 67q0 43 18 73t58 50t103 31.5t152 17.5q0 53 -13 73.5t-53 20.5q-38 0 -51 -19t-13 -55h-185q0 36 11 70t38.5 60.5t75 42.5
t119.5 16q84 0 135 -19t78.5 -51t36.5 -74t9 -89v-287q-17 -12 -25.5 -30t-8.5 -29q0 -12 7.5 -20t26.5 -8v-123h-78zM279 214q-35 -5 -48.5 -21.5t-13.5 -33.5q0 -24 14.5 -37t47.5 -13q32 0 54 27.5t22 85.5z" />
    <glyph glyph-name="Cacute" unicode="&#x106;" horiz-adv-x="665" 
d="M631 271q0 -59 -15 -110t-49.5 -89t-91 -60t-139.5 -22q-96 0 -155 29t-91.5 76t-43.5 106t-11 119t11.5 119t44 106t91.5 76t154 29q82 0 138.5 -22.5t91.5 -61t50 -89t15 -106.5h-192q-4 35 -11.5 58.5t-20 38t-30 21t-41.5 6.5q-35 0 -56.5 -14t-32.5 -38t-14.5 -55.5
t-3.5 -67.5t3 -68t13.5 -56t32 -38t58.5 -14q24 0 41.5 6.5t29.5 21t19.5 39t12.5 60.5h192zM89 671v140l487 64v-141z" />
    <glyph glyph-name="cacute" unicode="&#x107;" horiz-adv-x="567" 
d="M540 219q0 -57 -18 -100t-51.5 -71.5t-80.5 -43t-105 -14.5q-81 0 -131.5 23.5t-78.5 61.5t-38 85t-10 94t10 94.5t38 85.5t77.5 62t129.5 24q59 0 107 -15t81.5 -44.5t51.5 -73t18 -100.5h-180q0 26 -7 42.5t-18 25.5t-24.5 12.5t-26.5 3.5q-39 0 -61 -27t-22 -88
t21.5 -88.5t61.5 -27.5q13 0 26.5 4t24.5 13t17.5 24t6.5 38h181zM40 542v140l487 64v-141z" />
    <glyph glyph-name="Ccircumflex" unicode="&#x108;" horiz-adv-x="665" 
d="M631 271q0 -59 -15 -110t-49.5 -89t-91 -60t-139.5 -22q-96 0 -155 29t-91.5 76t-43.5 106t-11 119t11.5 119t44 106t91.5 76t154 29q82 0 138.5 -22.5t91.5 -61t50 -89t15 -106.5h-192q-4 35 -11.5 58.5t-20 38t-30 21t-41.5 6.5q-35 0 -56.5 -14t-32.5 -38t-14.5 -55.5
t-3.5 -67.5t3 -68t13.5 -56t32 -38t58.5 -14q24 0 41.5 6.5t29.5 21t19.5 39t12.5 60.5h192zM331 728l-242 -58v138l242 57l244 -57v-138z" />
    <glyph glyph-name="ccircumflex" unicode="&#x109;" horiz-adv-x="567" 
d="M540 219q0 -57 -18 -100t-51.5 -71.5t-80.5 -43t-105 -14.5q-81 0 -131.5 23.5t-78.5 61.5t-38 85t-10 94t10 94.5t38 85.5t77.5 62t129.5 24q59 0 107 -15t81.5 -44.5t51.5 -73t18 -100.5h-180q0 26 -7 42.5t-18 25.5t-24.5 12.5t-26.5 3.5q-39 0 -61 -27t-22 -88
t21.5 -88.5t61.5 -27.5q13 0 26.5 4t24.5 13t17.5 24t6.5 38h181zM282 599l-242 -58v138l242 57l244 -57v-138z" />
    <glyph glyph-name="Cdotaccent" unicode="&#x10a;" horiz-adv-x="665" 
d="M631 271q0 -59 -15 -110t-49.5 -89t-91 -60t-139.5 -22q-96 0 -155 29t-91.5 76t-43.5 106t-11 119t11.5 119t44 106t91.5 76t154 29q82 0 138.5 -22.5t91.5 -61t50 -89t15 -106.5h-192q-4 35 -11.5 58.5t-20 38t-30 21t-41.5 6.5q-35 0 -56.5 -14t-32.5 -38t-14.5 -55.5
t-3.5 -67.5t3 -68t13.5 -56t32 -38t58.5 -14q24 0 41.5 6.5t29.5 21t19.5 39t12.5 60.5h192zM456 753q0 -20 -5 -34.5t-18.5 -24t-37.5 -14t-62 -4.5q-39 0 -63.5 4.5t-38 14t-18.5 24t-5 34.5q0 21 5 36t18.5 24.5t38 13.5t63.5 4t63.5 -4t37.5 -13.5t17.5 -24.5t4.5 -36z
" />
    <glyph glyph-name="cdotaccent" unicode="&#x10b;" horiz-adv-x="567" 
d="M540 219q0 -57 -18 -100t-51.5 -71.5t-80.5 -43t-105 -14.5q-81 0 -131.5 23.5t-78.5 61.5t-38 85t-10 94t10 94.5t38 85.5t77.5 62t129.5 24q59 0 107 -15t81.5 -44.5t51.5 -73t18 -100.5h-180q0 26 -7 42.5t-18 25.5t-24.5 12.5t-26.5 3.5q-39 0 -61 -27t-22 -88
t21.5 -88.5t61.5 -27.5q13 0 26.5 4t24.5 13t17.5 24t6.5 38h181zM411 624q0 -20 -5 -34.5t-18.5 -24t-37.5 -14t-62 -4.5q-39 0 -63.5 4.5t-38 14t-18.5 24t-5 34.5q0 21 5 36t18.5 24.5t38 13.5t63.5 4t63.5 -4t37.5 -13.5t17.5 -24.5t4.5 -36z" />
    <glyph glyph-name="Ccaron" unicode="&#x10c;" horiz-adv-x="665" 
d="M631 271q0 -59 -15 -110t-49.5 -89t-91 -60t-139.5 -22q-96 0 -155 29t-91.5 76t-43.5 106t-11 119t11.5 119t44 106t91.5 76t154 29q82 0 138.5 -22.5t91.5 -61t50 -89t15 -106.5h-192q-4 35 -11.5 58.5t-20 38t-30 21t-41.5 6.5q-35 0 -56.5 -14t-32.5 -38t-14.5 -55.5
t-3.5 -67.5t3 -68t13.5 -56t32 -38t58.5 -14q24 0 41.5 6.5t29.5 21t19.5 39t12.5 60.5h192zM332 674l-244 57v139l244 -59l242 59v-139z" />
    <glyph glyph-name="ccaron" unicode="&#x10d;" horiz-adv-x="567" 
d="M540 219q0 -57 -18 -100t-51.5 -71.5t-80.5 -43t-105 -14.5q-81 0 -131.5 23.5t-78.5 61.5t-38 85t-10 94t10 94.5t38 85.5t77.5 62t129.5 24q59 0 107 -15t81.5 -44.5t51.5 -73t18 -100.5h-180q0 26 -7 42.5t-18 25.5t-24.5 12.5t-26.5 3.5q-39 0 -61 -27t-22 -88
t21.5 -88.5t61.5 -27.5q13 0 26.5 4t24.5 13t17.5 24t6.5 38h181zM285 545l-244 57v139l244 -59l242 59v-139z" />
    <glyph glyph-name="Dcaron" unicode="&#x10e;" horiz-adv-x="657" 
d="M619 324q0 -72 -19.5 -131.5t-58.5 -102.5t-98 -66.5t-137 -23.5h-247v640h257q77 0 134 -22t94.5 -63.5t56 -100t18.5 -130.5zM430 325q0 54 -9.5 86.5t-27.5 49t-45 21.5t-62 5h-35v-334h31q35 0 62.5 6t46.5 24.5t29 52t10 89.5zM317 674l-244 57v139l244 -59l242 59
v-139z" />
    <glyph glyph-name="dcaron" unicode="&#x10f;" horiz-adv-x="790" 
d="M445 0l-33 58q-8 -11 -23 -23t-35.5 -21.5t-45.5 -16t-53 -6.5q-68 0 -112 23.5t-69.5 61t-36 85t-10.5 94.5q0 45 8 92t29.5 85.5t58.5 63t94 24.5q49 0 83.5 -11.5t61.5 -31.5v230h187v-707h-104zM364 255q0 23 -1 44t-8 36.5t-22 24.5t-42 9q-26 0 -41 -9t-22.5 -24
t-9 -36t-1.5 -45t1.5 -45t9 -36.5t22 -24.5t40.5 -9q27 0 41.5 8.5t22 24t9 36.5t1.5 46zM759 352h-83l1 119q-40 0 -66 21.5t-26 67.5t28 68t72 22q49 0 76 -25.5t21 -76.5z" />
    <glyph glyph-name="Dcroat" unicode="&#x110;" horiz-adv-x="680" 
d="M641 324q0 -72 -18.5 -131.5t-56 -102.5t-95.5 -66.5t-136 -23.5h-248v249h-66v150h66v241h258q77 0 133 -22.5t92 -63.5t53.5 -99.5t17.5 -130.5zM452 325q0 55 -8.5 87.5t-25.5 49.5t-43 22t-60 5h-35v-90h96v-150h-96v-98h31q34 0 60.5 6t44.5 25t27 53t9 90z" />
    <glyph glyph-name="dcroat" unicode="&#x111;" horiz-adv-x="595" 
d="M362 707h187v-48h37v-89h-37v-570h-104l-33 58q-8 -11 -23 -23t-35.5 -21.5t-45.5 -16t-53 -6.5q-68 0 -112 23.5t-69.5 61t-36 85t-10.5 94.5q0 45 8 92t29.5 85.5t58.5 63t94 24.5q49 0 83.5 -11.5t61.5 -31.5v93h-151v89h151v48zM364 255q0 23 -1 44t-8 36.5t-22 24.5
t-42 9q-26 0 -41 -9t-22.5 -24t-9 -36t-1.5 -45t1.5 -45t9 -36.5t22 -24.5t40.5 -9q27 0 41.5 8.5t22 24t9 36.5t1.5 46z" />
    <glyph glyph-name="Emacron" unicode="&#x112;" horiz-adv-x="567" 
d="M59 0v640h475v-153h-284v-92h255v-139h-255v-103h284v-153h-475zM52 683v133h487v-133h-487z" />
    <glyph glyph-name="emacron" unicode="&#x113;" horiz-adv-x="575" 
d="M550 169q-2 -38 -17.5 -71t-46 -57t-77 -37.5t-112.5 -13.5q-86 0 -138.5 24t-81.5 62t-38.5 85.5t-9.5 94.5t10 94t39 85t81.5 61.5t136.5 23.5q66 0 110 -16t72 -42t42 -58.5t20 -66.5t6 -65.5v-55.5h-181h-160q3 -54 23 -79.5t62 -25.5q38 0 55.5 16.5t19.5 42.5z
M365 311q-5 50 -21.5 70t-57.5 20q-38 0 -57 -19t-24 -71h160zM46 554v133h487v-133h-487z" />
    <glyph glyph-name="Ebreve" unicode="&#x114;" horiz-adv-x="567" 
d="M59 0v640h475v-153h-284v-92h255v-139h-255v-103h284v-153h-475zM510 845q0 -53 -15 -85t-40 -50t-57 -24t-66 -6h-75q-36 0 -67.5 6t-54 24t-35.5 50.5t-13 84.5h175q0 -28 7 -38.5t30 -10.5q20 0 27.5 11t7.5 38h176z" />
    <glyph glyph-name="ebreve" unicode="&#x115;" horiz-adv-x="575" 
d="M550 169q-2 -38 -17.5 -71t-46 -57t-77 -37.5t-112.5 -13.5q-86 0 -138.5 24t-81.5 62t-38.5 85.5t-9.5 94.5t10 94t39 85t81.5 61.5t136.5 23.5q66 0 110 -16t72 -42t42 -58.5t20 -66.5t6 -65.5v-55.5h-181h-160q3 -54 23 -79.5t62 -25.5q38 0 55.5 16.5t19.5 42.5z
M365 311q-5 50 -21.5 70t-57.5 20q-38 0 -57 -19t-24 -71h160zM507 716q0 -53 -15 -85t-40 -50t-57 -24t-66 -6h-75q-36 0 -67.5 6t-54 24t-35.5 50.5t-13 84.5h175q0 -28 7 -38.5t30 -10.5q20 0 27.5 11t7.5 38h176z" />
    <glyph glyph-name="Edotaccent" unicode="&#x116;" horiz-adv-x="567" 
d="M59 0v640h475v-153h-284v-92h255v-139h-255v-103h284v-153h-475zM420 753q0 -20 -5 -34.5t-18.5 -24t-37.5 -14t-62 -4.5q-39 0 -63.5 4.5t-38 14t-18.5 24t-5 34.5q0 21 5 36t18.5 24.5t38 13.5t63.5 4t63.5 -4t37.5 -13.5t17.5 -24.5t4.5 -36z" />
    <glyph glyph-name="edotaccent" unicode="&#x117;" horiz-adv-x="575" 
d="M550 169q-2 -38 -17.5 -71t-46 -57t-77 -37.5t-112.5 -13.5q-86 0 -138.5 24t-81.5 62t-38.5 85.5t-9.5 94.5t10 94t39 85t81.5 61.5t136.5 23.5q66 0 110 -16t72 -42t42 -58.5t20 -66.5t6 -65.5v-55.5h-181h-160q3 -54 23 -79.5t62 -25.5q38 0 55.5 16.5t19.5 42.5z
M365 311q-5 50 -21.5 70t-57.5 20q-38 0 -57 -19t-24 -71h160zM418 624q0 -20 -5 -34.5t-18.5 -24t-37.5 -14t-62 -4.5q-39 0 -63.5 4.5t-38 14t-18.5 24t-5 34.5q0 21 5 36t18.5 24.5t38 13.5t63.5 4t63.5 -4t37.5 -13.5t17.5 -24.5t4.5 -36z" />
    <glyph glyph-name="Eogonek" unicode="&#x118;" horiz-adv-x="567" 
d="M456 -210q-44 0 -69.5 19.5t-25.5 64.5q0 14 4 31t11.5 34t19 33t26.5 28h-363v640h475v-153h-284v-92h255v-139h-255v-103h284v-153q-17 -12 -25.5 -30t-8.5 -29q0 -12 7.5 -20t26.5 -8v-123h-78z" />
    <glyph glyph-name="eogonek" unicode="&#x119;" horiz-adv-x="575" 
d="M399 -175q-44 0 -69.5 19.5t-25.5 64.5q0 18 6 40t18 42q-8 0 -15.5 -0.5t-15.5 -0.5q-86 0 -138.5 24t-81.5 62t-38.5 85.5t-9.5 94.5t10 94t39 85t81.5 61.5t136.5 23.5q66 0 110 -16t72 -42t42 -58.5t20 -66.5t6 -65.5v-55.5h-341q3 -54 23 -79.5t62 -25.5
q38 0 55.5 16.5t19.5 42.5l185 -1q-3 -44 -22 -79.5t-58 -60.5q-14 -12 -20.5 -27t-6.5 -26q0 -12 7.5 -20t26.5 -8v-123h-78zM365 311q-5 50 -21.5 70t-57.5 20q-38 0 -57 -19t-24 -71h160z" />
    <glyph glyph-name="Ecaron" unicode="&#x11a;" horiz-adv-x="567" 
d="M59 0v640h475v-153h-284v-92h255v-139h-255v-103h284v-153h-475zM297 674l-244 57v139l244 -59l242 59v-139z" />
    <glyph glyph-name="ecaron" unicode="&#x11b;" horiz-adv-x="575" 
d="M550 169q-2 -38 -17.5 -71t-46 -57t-77 -37.5t-112.5 -13.5q-86 0 -138.5 24t-81.5 62t-38.5 85.5t-9.5 94.5t10 94t39 85t81.5 61.5t136.5 23.5q66 0 110 -16t72 -42t42 -58.5t20 -66.5t6 -65.5v-55.5h-181h-160q3 -54 23 -79.5t62 -25.5q38 0 55.5 16.5t19.5 42.5z
M365 311q-5 50 -21.5 70t-57.5 20q-38 0 -57 -19t-24 -71h160zM294 545l-244 57v139l244 -59l242 59v-139z" />
    <glyph glyph-name="Gcircumflex" unicode="&#x11c;" horiz-adv-x="684" 
d="M514 0l-29 70q-27 -41 -67 -60.5t-98 -19.5q-90 0 -146 29t-86.5 76t-41.5 106t-11 119t11.5 119t44 106t91.5 76t154 29q82 0 138 -18.5t90.5 -49.5t50 -71.5t15.5 -83.5h-193q-2 16 -8 29.5t-18 23t-30 15t-45 5.5q-37 0 -58.5 -15t-32 -39.5t-13.5 -57t-3 -68.5
t2.5 -68.5t13 -57.5t32 -40t58.5 -15q40 0 68.5 27.5t33.5 72.5h-113v138h307v-377h-117zM341 728l-242 -58v138l242 57l244 -57v-138z" />
    <glyph glyph-name="gcircumflex" unicode="&#x11d;" horiz-adv-x="550" 
d="M540 -49q0 -32 -11 -61.5t-39.5 -52.5t-78.5 -37t-127 -14q-79 0 -131 12t-83 35.5t-43.5 58t-12.5 80.5h183q0 -8 2.5 -18t11.5 -18.5t26.5 -14.5t47.5 -6q42 0 56 13.5t14 30.5q0 18 -25 25.5t-62 11.5t-81 7.5t-81 13t-62 27.5t-25 52t26 55t69 28q-25 7 -41.5 24.5
t-26 37t-13 38.5t-3.5 31q0 38 11 74t40.5 64t82 45t135.5 17h238l-2 -97l-79 -15q30 -14 46.5 -40.5t16.5 -61.5t-11.5 -64t-43 -49.5t-86.5 -31.5t-141 -11q-17 0 -27 -6.5t-10 -14.5q0 -10 11.5 -15t39.5 -7q76 -7 131.5 -15t87.5 -22q37 -15 53.5 -41t16.5 -68zM331 315
q0 32 -10.5 47t-48.5 15q-36 0 -47 -15t-11 -47q0 -36 11.5 -52.5t46.5 -16.5t47 16t12 53zM274 599l-242 -58v138l242 57l244 -57v-138z" />
    <glyph glyph-name="Gbreve" unicode="&#x11e;" horiz-adv-x="684" 
d="M514 0l-29 70q-27 -41 -67 -60.5t-98 -19.5q-90 0 -146 29t-86.5 76t-41.5 106t-11 119t11.5 119t44 106t91.5 76t154 29q82 0 138 -18.5t90.5 -49.5t50 -71.5t15.5 -83.5h-193q-2 16 -8 29.5t-18 23t-30 15t-45 5.5q-37 0 -58.5 -15t-32 -39.5t-13.5 -57t-3 -68.5
t2.5 -68.5t13 -57.5t32 -40t58.5 -15q40 0 68.5 27.5t33.5 72.5h-113v138h307v-377h-117zM552 845q0 -53 -15 -85t-40 -50t-57 -24t-66 -6h-75q-36 0 -67.5 6t-54 24t-35.5 50.5t-13 84.5h175q0 -28 7 -38.5t30 -10.5q20 0 27.5 11t7.5 38h176z" />
    <glyph glyph-name="gbreve" unicode="&#x11f;" horiz-adv-x="550" 
d="M540 -49q0 -32 -11 -61.5t-39.5 -52.5t-78.5 -37t-127 -14q-79 0 -131 12t-83 35.5t-43.5 58t-12.5 80.5h183q0 -8 2.5 -18t11.5 -18.5t26.5 -14.5t47.5 -6q42 0 56 13.5t14 30.5q0 18 -25 25.5t-62 11.5t-81 7.5t-81 13t-62 27.5t-25 52t26 55t69 28q-25 7 -41.5 24.5
t-26 37t-13 38.5t-3.5 31q0 38 11 74t40.5 64t82 45t135.5 17h238l-2 -97l-79 -15q30 -14 46.5 -40.5t16.5 -61.5t-11.5 -64t-43 -49.5t-86.5 -31.5t-141 -11q-17 0 -27 -6.5t-10 -14.5q0 -10 11.5 -15t39.5 -7q76 -7 131.5 -15t87.5 -22q37 -15 53.5 -41t16.5 -68zM331 315
q0 32 -10.5 47t-48.5 15q-36 0 -47 -15t-11 -47q0 -36 11.5 -52.5t46.5 -16.5t47 16t12 53zM486 716q0 -53 -15 -85t-40 -50t-57 -24t-66 -6h-75q-36 0 -67.5 6t-54 24t-35.5 50.5t-13 84.5h175q0 -28 7 -38.5t30 -10.5q20 0 27.5 11t7.5 38h176z" />
    <glyph glyph-name="Gdotaccent" unicode="&#x120;" horiz-adv-x="684" 
d="M514 0l-29 70q-27 -41 -67 -60.5t-98 -19.5q-90 0 -146 29t-86.5 76t-41.5 106t-11 119t11.5 119t44 106t91.5 76t154 29q82 0 138 -18.5t90.5 -49.5t50 -71.5t15.5 -83.5h-193q-2 16 -8 29.5t-18 23t-30 15t-45 5.5q-37 0 -58.5 -15t-32 -39.5t-13.5 -57t-3 -68.5
t2.5 -68.5t13 -57.5t32 -40t58.5 -15q40 0 68.5 27.5t33.5 72.5h-113v138h307v-377h-117zM466 753q0 -20 -5 -34.5t-18.5 -24t-37.5 -14t-62 -4.5q-39 0 -63.5 4.5t-38 14t-18.5 24t-5 34.5q0 21 5 36t18.5 24.5t38 13.5t63.5 4t63.5 -4t37.5 -13.5t17.5 -24.5t4.5 -36z" />
    <glyph glyph-name="gdotaccent" unicode="&#x121;" horiz-adv-x="550" 
d="M540 -49q0 -32 -11 -61.5t-39.5 -52.5t-78.5 -37t-127 -14q-79 0 -131 12t-83 35.5t-43.5 58t-12.5 80.5h183q0 -8 2.5 -18t11.5 -18.5t26.5 -14.5t47.5 -6q42 0 56 13.5t14 30.5q0 18 -25 25.5t-62 11.5t-81 7.5t-81 13t-62 27.5t-25 52t26 55t69 28q-25 7 -41.5 24.5
t-26 37t-13 38.5t-3.5 31q0 38 11 74t40.5 64t82 45t135.5 17h238l-2 -97l-79 -15q30 -14 46.5 -40.5t16.5 -61.5t-11.5 -64t-43 -49.5t-86.5 -31.5t-141 -11q-17 0 -27 -6.5t-10 -14.5q0 -10 11.5 -15t39.5 -7q76 -7 131.5 -15t87.5 -22q37 -15 53.5 -41t16.5 -68zM331 315
q0 32 -10.5 47t-48.5 15q-36 0 -47 -15t-11 -47q0 -36 11.5 -52.5t46.5 -16.5t47 16t12 53zM399 624q0 -20 -5 -34.5t-18.5 -24t-37.5 -14t-62 -4.5q-39 0 -63.5 4.5t-38 14t-18.5 24t-5 34.5q0 21 5 36t18.5 24.5t38 13.5t63.5 4t63.5 -4t37.5 -13.5t17.5 -24.5t4.5 -36z
" />
    <glyph glyph-name="uni0122" unicode="&#x122;" horiz-adv-x="684" 
d="M514 0l-29 70q-27 -41 -67 -60.5t-98 -19.5q-90 0 -146 29t-86.5 76t-41.5 106t-11 119t11.5 119t44 106t91.5 76t154 29q82 0 138 -18.5t90.5 -49.5t50 -71.5t15.5 -83.5h-193q-2 16 -8 29.5t-18 23t-30 15t-45 5.5q-37 0 -58.5 -15t-32 -39.5t-13.5 -57t-3 -68.5
t2.5 -68.5t13 -57.5t32 -40t58.5 -15q40 0 68.5 27.5t33.5 72.5h-113v138h307v-377h-117zM431 -108q0 -14 -3 -38t-6 -47q-4 -27 -9 -57h-75v70q-48 0 -72.5 17t-24.5 55q0 45 27 61.5t70 16.5q41 0 67 -17t26 -61z" />
    <glyph glyph-name="uni0123" unicode="&#x123;" horiz-adv-x="550" 
d="M540 -49q0 -32 -11 -61.5t-39.5 -52.5t-78.5 -37t-127 -14q-79 0 -131 12t-83 35.5t-43.5 58t-12.5 80.5h183q0 -8 2.5 -18t11.5 -18.5t26.5 -14.5t47.5 -6q42 0 56 13.5t14 30.5q0 18 -25 25.5t-62 11.5t-81 7.5t-81 13t-62 27.5t-25 52t26 55t69 28q-25 7 -41.5 24.5
t-26 37t-13 38.5t-3.5 31q0 38 11 74t40.5 64t82 45t135.5 17h238l-2 -97l-79 -15q30 -14 46.5 -40.5t16.5 -61.5t-11.5 -64t-43 -49.5t-86.5 -31.5t-141 -11q-17 0 -27 -6.5t-10 -14.5q0 -10 11.5 -15t39.5 -7q76 -7 131.5 -15t87.5 -22q37 -15 53.5 -41t16.5 -68zM331 315
q0 32 -10.5 47t-48.5 15q-36 0 -47 -15t-11 -47q0 -36 11.5 -52.5t46.5 -16.5t47 16t12 53zM185 619q0 14 2.5 38t6.5 47q4 27 9 57h75v-70q48 0 72.5 -17t24.5 -55q0 -45 -27 -61.5t-70 -16.5q-41 0 -67 17t-26 61z" />
    <glyph glyph-name="Hcircumflex" unicode="&#x124;" horiz-adv-x="676" 
d="M424 0v250h-173v-250h-192v640h192v-238h173v238h192v-640h-192zM337 728l-242 -58v138l242 57l244 -57v-138z" />
    <glyph glyph-name="hcircumflex" unicode="&#x125;" 
d="M139 772l-124 -42v142l124 42l126 -42v-142zM357 0v281q0 27 -3 44t-9.5 26.5t-18 13t-29.5 3.5q-17 0 -29 -3.5t-19.5 -13t-11 -26.5t-3.5 -44l-2 -281h-186v707h186v-237q17 19 50 34.5t71 15.5q68 0 106.5 -18t57 -49t23 -73t4.5 -91v-289h-187z" />
    <glyph glyph-name="Hbar" unicode="&#x126;" horiz-adv-x="676" 
d="M424 0v250h-173v-250h-192v460h-34v114h34v66h192v-66h173v66h192v-66h34v-114h-34v-460h-192zM424 402v58h-173v-58h173z" />
    <glyph glyph-name="hbar" unicode="&#x127;" 
d="M232 569v-97q17 20 50.5 34t66.5 14q68 0 107 -18t58.5 -49t24.5 -73t5 -91v-289h-187v281q0 26 -3 43t-9.5 26.5t-18 13.5t-29.5 4q-35 0 -49 -17.5t-14 -69.5l-2 -281h-186v707h186v-41h304v-97h-304z" />
    <glyph glyph-name="Itilde" unicode="&#x128;" horiz-adv-x="309" 
d="M-63 681q-2 8 -3 17q-1 8 -1.5 18t-0.5 23q0 28 6.5 51.5t21.5 40t39.5 26t59.5 9.5q21 0 37 -7.5t29.5 -16t25 -16t24.5 -7.5q11 0 18 5t7 20v5t-1 6h165q1 -8 2 -17q1 -8 2 -18.5t1 -22.5q0 -27 -5 -50t-19 -40t-38 -27t-62 -10q-24 0 -40.5 7.5t-29.5 16t-24.5 16
t-24.5 7.5q-11 0 -18 -5t-7 -20v-5t1 -6h-165zM59 0v640h192v-640h-192z" />
    <glyph glyph-name="itilde" unicode="&#x129;" horiz-adv-x="271" 
d="M-78 552q-2 8 -3 17q-1 8 -1.5 18t-0.5 23q0 28 6.5 51.5t21.5 40t39.5 26t59.5 9.5q21 0 37 -7.5t29.5 -16t25 -16t24.5 -7.5q11 0 18 5t7 20v5t-1 6h165q1 -8 2 -17q1 -8 2 -18t1 -22q0 -27 -5 -50.5t-19 -40.5t-38 -27t-62 -10q-24 0 -40.5 7.5t-29.5 16.5t-24.5 16.5
t-24.5 7.5q-11 0 -18 -5t-7 -20v-5.5t1 -6.5h-165zM42 0v510h189v-510h-189z" />
    <glyph glyph-name="Imacron" unicode="&#x12a;" horiz-adv-x="309" 
d="M12 681v139h283v-139h-283zM59 0v640h192v-640h-192z" />
    <glyph glyph-name="imacron" unicode="&#x12b;" horiz-adv-x="271" 
d="M0 552v139h271v-139h-271zM42 0v510h189v-510h-189z" />
    <glyph glyph-name="Ibreve" unicode="&#x12c;" horiz-adv-x="309" 
d="M59 0v640h192v-640h-192zM366 845q0 -53 -15 -85t-40 -50t-57 -24t-66 -6h-75q-36 0 -67.5 6t-54 24t-35.5 50.5t-13 84.5h175q0 -28 7 -38.5t30 -10.5q20 0 27.5 11t7.5 38h176z" />
    <glyph glyph-name="ibreve" unicode="&#x12d;" horiz-adv-x="271" 
d="M42 0v510h189v-510h-189zM347 716q0 -53 -15 -85t-40 -50t-57 -24t-66 -6h-75q-36 0 -67.5 6t-54 24t-35.5 50.5t-13 84.5h175q0 -28 7 -38.5t30 -10.5q20 0 27.5 11t7.5 38h176z" />
    <glyph glyph-name="Iogonek" unicode="&#x12e;" horiz-adv-x="309" 
d="M173 -210q-44 0 -69.5 19.5t-25.5 64.5q0 14 4 31t11.5 34t19 33t26.5 28h-80v640h192v-640q-17 -12 -25.5 -30t-8.5 -29q0 -12 7.5 -20t26.5 -8v-123h-78z" />
    <glyph glyph-name="iogonek" unicode="&#x12f;" horiz-adv-x="271" 
d="M153 -210q-44 0 -69.5 19.5t-25.5 64.5q0 14 4 31t11.5 34t19 33t26.5 28h-77v510h189v-510q-17 -12 -25.5 -30t-8.5 -29q0 -12 7.5 -20t26.5 -8v-123h-78zM252 656q0 -31 -8.5 -49.5t-24 -28.5t-37 -13.5t-46.5 -3.5t-46.5 3t-37 13t-24 28.5t-8.5 50.5t8.5 50.5
t24 28.5t37 12.5t46.5 2.5t46.5 -2.5t37 -12.5t24 -28.5t8.5 -50.5z" />
    <glyph glyph-name="Idotaccent" unicode="&#x130;" horiz-adv-x="309" 
d="M59 0v640h192v-640h-192zM278 753q0 -20 -5 -34.5t-18.5 -24t-37.5 -14t-62 -4.5q-39 0 -63.5 4.5t-38 14t-18.5 24t-5 34.5q0 21 5 36t18.5 24.5t38 13.5t63.5 4t63.5 -4t37.5 -13.5t17.5 -24.5t4.5 -36z" />
    <glyph glyph-name="dotlessi" unicode="&#x131;" horiz-adv-x="271" 
d="M42 0v510h189v-510h-189z" />
    <glyph glyph-name="Jcircumflex" unicode="&#x134;" horiz-adv-x="387" 
d="M232 726l-133 -57v143l133 58l137 -58v-143zM330 196q0 -49 -9 -86.5t-33 -63t-66.5 -39t-109.5 -13.5q-43 0 -98 6v156q33 -6 56 -6q25 0 38.5 6.5t20 18.5t7.5 28.5t1 36.5v400h193v-444z" />
    <glyph glyph-name="jcircumflex" unicode="&#x135;" horiz-adv-x="267" 
d="M231 -26q0 -43 -10 -77t-32.5 -58t-59 -36.5t-88.5 -12.5q-20 0 -42 2t-47 6v145q14 -3 25 -4t20 -1q18 0 27.5 5t14 16.5t5 28.5t0.5 41v481h186zM136 602l-135 -58v139l135 57l135 -57v-139z" />
    <glyph glyph-name="uni0136" unicode="&#x136;" horiz-adv-x="627" 
d="M402 0l-151 279v-279h-192v640h192v-249l138 249h250l-229 -306l241 -334h-249zM408 -108q0 -14 -3 -38t-6 -47q-4 -27 -9 -57h-75v70q-48 0 -72.5 17t-24.5 55q0 45 27 61.5t70 16.5q41 0 67 -17t26 -61z" />
    <glyph glyph-name="uni0137" unicode="&#x137;" horiz-adv-x="554" 
d="M339 0l-108 202v-202h-185v707h185v-385l96 188h237l-178 -243l188 -267h-235zM366 -108q0 -14 -3 -38t-6 -47q-4 -27 -9 -57h-75v70q-48 0 -72.5 17t-24.5 55q0 45 27 61.5t70 16.5q41 0 67 -17t26 -61z" />
    <glyph glyph-name="kgreenlandic" unicode="&#x138;" horiz-adv-x="554" 
d="M341 0l-107 202v-202h-188v510h188v-188l96 188h235l-175 -243l185 -267h-234z" />
    <glyph glyph-name="Lacute" unicode="&#x139;" horiz-adv-x="465" 
d="M37 670v142l233 37v-143zM61 0v640h193l-2 -487h199v-153h-390z" />
    <glyph glyph-name="lacute" unicode="&#x13a;" horiz-adv-x="280" 
d="M22 732v155l233 50v-156zM47 0v707h185v-707h-185z" />
    <glyph glyph-name="uni013B" unicode="&#x13b;" horiz-adv-x="465" 
d="M61 0v640h193l-2 -487h199v-153h-390zM343 -108q0 -14 -3 -38t-6 -47q-4 -27 -9 -57h-75v70q-48 0 -72.5 17t-24.5 55q0 45 27 61.5t70 16.5q41 0 67 -17t26 -61z" />
    <glyph glyph-name="uni013C" unicode="&#x13c;" horiz-adv-x="280" 
d="M47 0v707h185v-707h-185zM235 -108q0 -14 -3 -38t-6 -47q-4 -27 -9 -57h-75v70q-48 0 -72.5 17t-24.5 55q0 45 27 61.5t70 16.5q41 0 67 -17t26 -61z" />
    <glyph glyph-name="Lcaron" unicode="&#x13d;" horiz-adv-x="465" 
d="M61 0v640h193l-2 -487h199v-153h-390zM450 352h-83l1 119q-40 0 -66 21.5t-26 67.5t28 68t72 22q49 0 76 -25.5t21 -76.5z" />
    <glyph glyph-name="lcaron" unicode="&#x13e;" horiz-adv-x="473" 
d="M47 0v707h185v-707h-185zM438 352h-83l1 119q-40 0 -66 21.5t-26 67.5t28 68t72 22q49 0 76 -25.5t21 -76.5z" />
    <glyph glyph-name="Ldot" unicode="&#x13f;" horiz-adv-x="465" 
d="M61 0v640h193l-2 -487h199v-153h-390zM466 338q0 -48 -25.5 -67t-66.5 -19q-40 0 -66 19t-26 67q0 50 26 68.5t66 18.5t66 -19t26 -68z" />
    <glyph glyph-name="ldot" unicode="&#x140;" horiz-adv-x="479" 
d="M47 0v707h185v-707h-185zM460 323q0 -43 -27 -60.5t-71 -17.5q-42 0 -70 17t-28 61q0 45 28 62t70 17t70 -17.5t28 -61.5z" />
    <glyph glyph-name="Lslash" unicode="&#x141;" horiz-adv-x="497" 
d="M86 0v170l-66 -27v127l66 27v343h192v-260l135 60v-127l-135 -61v-99h198v-153h-390z" />
    <glyph glyph-name="lslash" unicode="&#x142;" horiz-adv-x="343" 
d="M78 216l-58 -24v123l58 23v369h183v-311l64 20v-123l-64 -20v-273h-183v216z" />
    <glyph glyph-name="Nacute" unicode="&#x143;" horiz-adv-x="724" 
d="M450 0l-195 346v-346h-194v640h220l189 -354v354h194v-640h-214zM117 671v140l487 64v-141z" />
    <glyph glyph-name="nacute" unicode="&#x144;" 
d="M357 0v285q0 26 -3 42.5t-9.5 25.5t-18 12.5t-29.5 3.5q-35 0 -49 -17t-14 -67v-285h-188v510h105l31 -62q25 31 66 51.5t95 20.5q67 0 107 -17.5t61 -48.5t27 -72.5t6 -89.5v-292h-187zM49 542v140l487 64v-141z" />
    <glyph glyph-name="uni0145" unicode="&#x145;" horiz-adv-x="724" 
d="M450 0l-195 346v-346h-194v640h220l189 -354v354h194v-640h-214zM456 -108q0 -14 -3 -38t-6 -47q-4 -27 -9 -57h-75v70q-48 0 -72.5 17t-24.5 55q0 45 27 61.5t70 16.5q41 0 67 -17t26 -61z" />
    <glyph glyph-name="uni0146" unicode="&#x146;" 
d="M357 0v285q0 26 -3 42.5t-9.5 25.5t-18 12.5t-29.5 3.5q-35 0 -49 -17t-14 -67v-285h-188v510h105l31 -62q25 31 66 51.5t95 20.5q67 0 107 -17.5t61 -48.5t27 -72.5t6 -89.5v-292h-187zM387 -108q0 -14 -3 -38t-6 -47q-4 -27 -9 -57h-75v70q-48 0 -72.5 17t-24.5 55
q0 45 27 61.5t70 16.5q41 0 67 -17t26 -61z" />
    <glyph glyph-name="Ncaron" unicode="&#x147;" horiz-adv-x="724" 
d="M450 0l-195 346v-346h-194v640h220l189 -354v354h194v-640h-214zM362 674l-244 57v139l244 -59l242 59v-139z" />
    <glyph glyph-name="ncaron" unicode="&#x148;" 
d="M357 0v285q0 26 -3 42.5t-9.5 25.5t-18 12.5t-29.5 3.5q-35 0 -49 -17t-14 -67v-285h-188v510h105l31 -62q25 31 66 51.5t95 20.5q67 0 107 -17.5t61 -48.5t27 -72.5t6 -89.5v-292h-187zM294 545l-244 57v139l244 -59l242 59v-139z" />
    <glyph glyph-name="Eng" unicode="&#x14a;" horiz-adv-x="724" 
d="M664 -6q0 -49 -9.5 -87t-33.5 -64t-66.5 -39.5t-108.5 -13.5q-43 0 -100 6v150q34 -6 55 -6q29 0 43 10.5t20 24.5l-209 371v-346h-194v640h220l189 -354v354h194v-646z" />
    <glyph glyph-name="eng" unicode="&#x14b;" 
d="M544 -26q0 -43 -10 -77t-32.5 -58t-58.5 -36.5t-89 -12.5q-20 0 -41.5 2t-46.5 6v145q14 -3 25 -4t19 -1q18 0 27.5 5t14 16.5t5 28.5t0.5 41v256q0 26 -3 42.5t-9.5 25.5t-18 12.5t-29.5 3.5q-35 0 -49 -17t-14 -67v-285h-188v510h105l31 -60q25 31 65 50.5t94 19.5
q67 0 107.5 -17.5t61.5 -48.5t27.5 -72.5t6.5 -89.5v-318z" />
    <glyph glyph-name="Omacron" unicode="&#x14c;" horiz-adv-x="691" 
d="M656 319q0 -60 -12 -119t-45.5 -105.5t-94.5 -75.5t-159 -29t-158.5 29t-94.5 75.5t-45.5 106t-11.5 119.5t12 119.5t45.5 106t94 75.5t158.5 29t159 -29t94.5 -76t45.5 -106t12 -120zM461 319q0 36 -2.5 68t-14 56t-35 38t-64.5 14t-64 -14t-34.5 -38t-14.5 -55.5
t-3 -67.5t3 -68t14.5 -56t34.5 -38t64 -14t64.5 14t35 38t14 56t2.5 67zM102 683v133h487v-133h-487z" />
    <glyph glyph-name="omacron" unicode="&#x14d;" horiz-adv-x="566" 
d="M539 254q0 -47 -11 -94.5t-39.5 -85t-78.5 -61t-128 -23.5q-79 0 -128.5 23.5t-77.5 61.5t-38.5 85t-10.5 94q0 46 10.5 93.5t39 86t78.5 62.5t129 24q78 0 127.5 -24t78 -62.5t39 -86t10.5 -93.5zM367 254q0 60 -19 88t-64 28t-65 -28t-20 -88q0 -61 20.5 -88t62.5 -27
q45 0 65 26.5t20 88.5zM39 554v133h487v-133h-487z" />
    <glyph glyph-name="Obreve" unicode="&#x14e;" horiz-adv-x="691" 
d="M656 319q0 -60 -12 -119t-45.5 -105.5t-94.5 -75.5t-159 -29t-158.5 29t-94.5 75.5t-45.5 106t-11.5 119.5t12 119.5t45.5 106t94 75.5t158.5 29t159 -29t94.5 -76t45.5 -106t12 -120zM461 319q0 36 -2.5 68t-14 56t-35 38t-64.5 14t-64 -14t-34.5 -38t-14.5 -55.5
t-3 -67.5t3 -68t14.5 -56t34.5 -38t64 -14t64.5 14t35 38t14 56t2.5 67zM556 845q0 -53 -15 -85t-40 -50t-57 -24t-66 -6h-75q-36 0 -67.5 6t-54 24t-35.5 50.5t-13 84.5h175q0 -28 7 -38.5t30 -10.5q20 0 27.5 11t7.5 38h176z" />
    <glyph glyph-name="obreve" unicode="&#x14f;" horiz-adv-x="566" 
d="M539 254q0 -47 -11 -94.5t-39.5 -85t-78.5 -61t-128 -23.5q-79 0 -128.5 23.5t-77.5 61.5t-38.5 85t-10.5 94q0 46 10.5 93.5t39 86t78.5 62.5t129 24q78 0 127.5 -24t78 -62.5t39 -86t10.5 -93.5zM367 254q0 60 -19 88t-64 28t-65 -28t-20 -88q0 -61 20.5 -88t62.5 -27
q45 0 65 26.5t20 88.5zM495 716q0 -53 -15 -85t-40 -50t-57 -24t-66 -6h-75q-36 0 -67.5 6t-54 24t-35.5 50.5t-13 84.5h175q0 -28 7 -38.5t30 -10.5q20 0 27.5 11t7.5 38h176z" />
    <glyph glyph-name="Ohungarumlaut" unicode="&#x150;" horiz-adv-x="691" 
d="M656 319q0 -60 -12 -119t-45.5 -105.5t-94.5 -75.5t-159 -29t-158.5 29t-94.5 75.5t-45.5 106t-11.5 119.5t12 119.5t45.5 106t94 75.5t158.5 29t159 -29t94.5 -76t45.5 -106t12 -120zM461 319q0 36 -2.5 68t-14 56t-35 38t-64.5 14t-64 -14t-34.5 -38t-14.5 -55.5
t-3 -67.5t3 -68t14.5 -56t34.5 -38t64 -14t64.5 14t35 38t14 56t2.5 67zM376 676v128l215 41v-125zM107 676v128l215 41v-125z" />
    <glyph glyph-name="ohungarumlaut" unicode="&#x151;" horiz-adv-x="566" 
d="M539 254q0 -47 -11 -94.5t-39.5 -85t-78.5 -61t-128 -23.5q-79 0 -128.5 23.5t-77.5 61.5t-38.5 85t-10.5 94q0 46 10.5 93.5t39 86t78.5 62.5t129 24q78 0 127.5 -24t78 -62.5t39 -86t10.5 -93.5zM367 254q0 60 -19 88t-64 28t-65 -28t-20 -88q0 -61 20.5 -88t62.5 -27
q45 0 65 26.5t20 88.5zM310 547v128l215 41v-125zM41 547v128l215 41v-125z" />
    <glyph glyph-name="OE" unicode="&#x152;" horiz-adv-x="985" 
d="M481 0l1 47q-18 -16 -43 -28q-21 -11 -52 -19.5t-73 -8.5q-86 0 -139.5 29t-83.5 75.5t-40.5 105.5t-10.5 119t10.5 119t40.5 105.5t83.5 75.5t139.5 29q38 0 69 -9t53 -20q26 -13 46 -29l-1 49h470v-153h-284v-85h255v-155h-255v-94h284v-153h-470zM475 319
q0 170 -121 170q-120 0 -120 -169t120 -169q121 0 121 168z" />
    <glyph glyph-name="oe" unicode="&#x153;" horiz-adv-x="900" 
d="M367 255q0 60 -19 85.5t-64 25.5t-65 -25.5t-20 -85.5q0 -61 20.5 -87.5t62.5 -26.5q45 0 65 25.5t20 88.5zM877 170q-3 -38 -17.5 -71t-44 -57t-74.5 -38t-109 -14q-66 0 -114.5 19.5t-71.5 47.5q-23 -29 -69 -48t-108 -19q-75 0 -122 24t-73.5 62t-36.5 85t-10 94
q0 46 10 93.5t37 85.5t74 62t122 24q60 0 106.5 -19.5t69.5 -47.5q22 29 70.5 48t114.5 19q64 0 106.5 -16t69.5 -42t41 -58.5t19.5 -66.5t6 -65.5t0.5 -55.5h-335q0 -57 17.5 -81t59.5 -24q22 0 36 5.5t22 13.5t11.5 18.5t3.5 21.5h188zM687 311q0 50 -17 70t-58 20
q-38 0 -55 -19.5t-17 -70.5h147z" />
    <glyph glyph-name="Racute" unicode="&#x154;" horiz-adv-x="617" 
d="M390 0l-139 237v-237h-192v640h250q62 0 106.5 -10.5t75 -27.5t48.5 -40t27 -48t12 -50.5t3 -48.5q0 -65 -32.5 -116t-104.5 -65l185 -234h-239zM387 415q0 35 -17 53.5t-68 18.5h-51v-142h51q52 0 68.5 19t16.5 51zM65 671v140l487 64v-141z" />
    <glyph glyph-name="racute" unicode="&#x155;" horiz-adv-x="381" 
d="M44 542v145l315 62v-147zM360 355q-42 4 -66.5 2.5t-38 -10t-17.5 -25t-4 -40.5v-282h-188v510h105l31 -62q12 16 27 30t36 23.5t49 14.5t66 3v-164z" />
    <glyph glyph-name="uni0156" unicode="&#x156;" horiz-adv-x="617" 
d="M390 0l-139 237v-237h-192v640h250q62 0 106.5 -10.5t75 -27.5t48.5 -40t27 -48t12 -50.5t3 -48.5q0 -65 -32.5 -116t-104.5 -65l185 -234h-239zM387 415q0 35 -17 53.5t-68 18.5h-51v-142h51q52 0 68.5 19t16.5 51zM397 -108q0 -14 -3 -38t-6 -47q-4 -27 -9 -57h-75v70
q-48 0 -72.5 17t-24.5 55q0 45 27 61.5t70 16.5q41 0 67 -17t26 -61z" />
    <glyph glyph-name="uni0157" unicode="&#x157;" horiz-adv-x="381" 
d="M360 355q-42 4 -66.5 2.5t-38 -10t-17.5 -25t-4 -40.5v-282h-188v510h105l31 -62q12 16 27 30t36 23.5t49 14.5t66 3v-164zM233 -108q0 -14 -3 -38t-6 -47q-4 -27 -9 -57h-75v70q-48 0 -72.5 17t-24.5 55q0 45 27 61.5t70 16.5q41 0 67 -17t26 -61z" />
    <glyph glyph-name="Rcaron" unicode="&#x158;" horiz-adv-x="617" 
d="M390 0l-139 237v-237h-192v640h250q62 0 106.5 -10.5t75 -27.5t48.5 -40t27 -48t12 -50.5t3 -48.5q0 -65 -32.5 -116t-104.5 -65l185 -234h-239zM387 415q0 35 -17 53.5t-68 18.5h-51v-142h51q52 0 68.5 19t16.5 51zM309 674l-244 57v139l244 -59l242 59v-139z" />
    <glyph glyph-name="rcaron" unicode="&#x159;" horiz-adv-x="381" 
d="M202 542l-168 62v143l168 -62l168 62v-143zM360 355q-42 4 -66.5 2.5t-38 -10t-17.5 -25t-4 -40.5v-282h-188v510h105l31 -62q12 16 27 30t36 23.5t49 14.5t66 3v-164z" />
    <glyph glyph-name="Sacute" unicode="&#x15a;" horiz-adv-x="615" 
d="M587 200q0 -35 -12.5 -72.5t-43.5 -68t-82 -50t-128 -19.5q-80 0 -136 16.5t-91 48t-51 77t-16 104.5h192q0 -50 22 -75t76 -25q27 0 43 6t25 15t11.5 19t2.5 19q0 24 -26 36t-65.5 20t-85.5 17t-86 28t-67 51.5t-29 88.5q-2 42 11 81t44 68.5t83 47t129 17.5
q78 0 130.5 -18t84 -49t45 -73t13.5 -90h-189q0 45 -19 65t-70 20q-23 0 -38 -5t-23 -13.5t-10 -20t0 -24.5q3 -20 31 -29.5t67.5 -17t84.5 -17t83.5 -29.5t64 -55.5t25.5 -93.5zM64 671v140l487 64v-141z" />
    <glyph glyph-name="sacute" unicode="&#x15b;" horiz-adv-x="535" 
d="M517 147q0 -27 -13.5 -54.5t-43 -50.5t-75.5 -37.5t-111 -14.5q-129 0 -193 45.5t-64 149.5h183q0 -41 16 -62.5t56 -21.5q61 0 61 44q0 24 -23 36.5t-57 21t-74 17t-74 25t-57 44t-23 73.5q0 31 12 60t40.5 50.5t74.5 34.5t114 13q67 0 112.5 -10.5t73.5 -33t40 -57.5
t12 -84h-177q0 38 -14 57t-46 19q-33 0 -46 -11t-13 -29q0 -23 23 -35t57 -20t74.5 -17t74.5 -26.5t57 -47t23 -78.5zM24 542v140l487 64v-141z" />
    <glyph glyph-name="Scircumflex" unicode="&#x15c;" horiz-adv-x="615" 
d="M587 200q0 -35 -12.5 -72.5t-43.5 -68t-82 -50t-128 -19.5q-80 0 -136 16.5t-91 48t-51 77t-16 104.5h192q0 -50 22 -75t76 -25q27 0 43 6t25 15t11.5 19t2.5 19q0 24 -26 36t-65.5 20t-85.5 17t-86 28t-67 51.5t-29 88.5q-2 42 11 81t44 68.5t83 47t129 17.5
q78 0 130.5 -18t84 -49t45 -73t13.5 -90h-189q0 45 -19 65t-70 20q-23 0 -38 -5t-23 -13.5t-10 -20t0 -24.5q3 -20 31 -29.5t67.5 -17t84.5 -17t83.5 -29.5t64 -55.5t25.5 -93.5zM311 728l-242 -58v138l242 57l244 -57v-138z" />
    <glyph glyph-name="scircumflex" unicode="&#x15d;" horiz-adv-x="535" 
d="M517 147q0 -27 -13.5 -54.5t-43 -50.5t-75.5 -37.5t-111 -14.5q-129 0 -193 45.5t-64 149.5h183q0 -41 16 -62.5t56 -21.5q61 0 61 44q0 24 -23 36.5t-57 21t-74 17t-74 25t-57 44t-23 73.5q0 31 12 60t40.5 50.5t74.5 34.5t114 13q67 0 112.5 -10.5t73.5 -33t40 -57.5
t12 -84h-177q0 38 -14 57t-46 19q-33 0 -46 -11t-13 -29q0 -23 23 -35t57 -20t74.5 -17t74.5 -26.5t57 -47t23 -78.5zM267 599l-242 -58v138l242 57l244 -57v-138z" />
    <glyph glyph-name="Scedilla" unicode="&#x15e;" horiz-adv-x="615" 
d="M587 200q0 -30 -9 -61.5t-30.5 -59.5t-56.5 -49t-87 -31q0 -53 -9 -87t-28.5 -53.5t-50.5 -27t-76 -7.5h-161v121h95q32 0 42.5 9.5t10.5 44.5q-107 16 -153.5 77t-46.5 160h192q0 -50 22 -74.5t76 -24.5q27 0 43 6t25 14.5t11.5 18.5t2.5 19q0 24 -26 36t-65.5 20
t-85.5 17t-86 28t-67 51.5t-29 88.5q-2 42 11 81t44 68t83 46.5t129 17.5q78 0 130.5 -17.5t84 -48.5t45 -73t13.5 -90h-189q0 45 -19 64.5t-70 19.5q-23 0 -38 -5t-23 -13t-10 -19.5t0 -24.5q3 -20 31 -29.5t67.5 -17t84.5 -17t83.5 -29.5t64 -55.5t25.5 -93.5z" />
    <glyph glyph-name="scedilla" unicode="&#x15f;" horiz-adv-x="535" 
d="M517 147q0 -22 -9 -44.5t-28 -42.5t-48.5 -36t-70.5 -25q0 -53 -10 -90t-30.5 -60t-52 -33t-76.5 -10h-148v133h82q33 0 45.5 12t13.5 46q-85 14 -126.5 58.5t-41.5 129.5h183q0 -41 16 -62.5t56 -21.5q61 0 61 44q0 24 -23 36.5t-57 21t-74 17t-74 25t-57 44t-23 73.5
q0 31 12 60t40.5 50.5t74.5 34.5t114 13q67 0 112.5 -10.5t73.5 -33t40 -57.5t12 -84h-177q0 38 -14 57t-46 19q-33 0 -46 -11t-13 -29q0 -23 23 -35t57 -20t74.5 -17t74.5 -26.5t57 -47t23 -78.5z" />
    <glyph glyph-name="Scaron" unicode="&#x160;" horiz-adv-x="615" 
d="M587 200q0 -35 -12.5 -72.5t-43.5 -68t-82 -50t-128 -19.5q-80 0 -136 16.5t-91 48t-51 77t-16 104.5h192q0 -50 22 -75t76 -25q27 0 43 6t25 15t11.5 19t2.5 19q0 24 -26 36t-65.5 20t-85.5 17t-86 28t-67 51.5t-29 88.5q-2 42 11 81t44 68.5t83 47t129 17.5
q78 0 130.5 -18t84 -49t45 -73t13.5 -90h-189q0 45 -19 65t-70 20q-23 0 -38 -5t-23 -13.5t-10 -20t0 -24.5q3 -20 31 -29.5t67.5 -17t84.5 -17t83.5 -29.5t64 -55.5t25.5 -93.5zM307 674l-244 57v139l244 -59l242 59v-139z" />
    <glyph glyph-name="scaron" unicode="&#x161;" horiz-adv-x="535" 
d="M517 147q0 -27 -13.5 -54.5t-43 -50.5t-75.5 -37.5t-111 -14.5q-129 0 -193 45.5t-64 149.5h183q0 -41 16 -62.5t56 -21.5q61 0 61 44q0 24 -23 36.5t-57 21t-74 17t-74 25t-57 44t-23 73.5q0 31 12 60t40.5 50.5t74.5 34.5t114 13q67 0 112.5 -10.5t73.5 -33t40 -57.5
t12 -84h-177q0 38 -14 57t-46 19q-33 0 -46 -11t-13 -29q0 -23 23 -35t57 -20t74.5 -17t74.5 -26.5t57 -47t23 -78.5zM269 545l-244 57v139l244 -59l242 59v-139z" />
    <glyph glyph-name="Tcaron" unicode="&#x164;" horiz-adv-x="520" 
d="M355 487v-487h-190v487h-151v153h492v-153h-151zM261 674l-244 57v139l244 -59l242 59v-139z" />
    <glyph glyph-name="tcaron" unicode="&#x165;" horiz-adv-x="434" 
d="M412 -7q-41 -3 -75 -3q-65 0 -108.5 9.5t-70 30t-38 51t-11.5 72.5v207h-84v112l84 40v128h187v-130h116v-150h-112v-170q0 -29 12.5 -40.5t48.5 -11.5q21 0 51 3v-148zM424 541h-83l1 119q-40 0 -66 21.5t-26 67.5t28 68t72 22q49 0 76 -25.5t21 -76.5z" />
    <glyph glyph-name="Tbar" unicode="&#x166;" horiz-adv-x="520" 
d="M355 216v-216h-190v216h-84v139h84v132h-151v153h492v-153h-151v-132h84v-139h-84z" />
    <glyph glyph-name="tbar" unicode="&#x167;" horiz-adv-x="434" 
d="M300 205v-15q0 -29 12.5 -40.5t48.5 -11.5q21 0 51 3v-148q-41 -3 -75 -3q-65 0 -108.5 9.5t-70 30t-38 51t-11.5 72.5v52h-60v114h60v43h-84v110l84 40v128h187v-128h116v-150h-112v-43h91v-114h-91z" />
    <glyph glyph-name="Utilde" unicode="&#x168;" horiz-adv-x="675" 
d="M626 281q0 -75 -16 -129.5t-51 -90.5t-89.5 -53.5t-132.5 -17.5q-77 0 -132 17.5t-89.5 53.5t-50.5 90.5t-16 129.5v359h193v-359q0 -38 4.5 -63.5t15.5 -40.5t29.5 -21.5t45.5 -6.5q28 0 46 6.5t29 21.5t15.5 40.5t4.5 63.5v359h194v-359zM86 681q-2 6 -3 14
q-1 7 -1.5 16.5t-0.5 22.5q0 27 6 50t21.5 40t42.5 27t69 10q31 0 54 -7.5t43.5 -16.5t39.5 -16.5t42 -7.5q11 0 18.5 5.5t7.5 20.5q0 4 -0.5 5t-1.5 6h165q1 -8 2 -17q1 -8 2 -18t1 -22q0 -27 -5.5 -49.5t-20.5 -39t-42 -25.5t-69 -9q-33 0 -56.5 7.5t-43.5 17t-39 17
t-42 7.5q-11 0 -18.5 -5.5t-7.5 -20.5q0 -4 0.5 -5.5t1.5 -6.5h-165z" />
    <glyph glyph-name="utilde" unicode="&#x169;" 
d="M436 0l-31 61q-25 -32 -64.5 -51.5t-94.5 -19.5q-68 0 -108.5 17t-61.5 47t-27.5 71t-6.5 88v297h187v-289q0 -51 13 -67t47 -16q35 0 49 16t14 67v289h188v-510h-104zM42 552q-2 6 -3 14q-1 7 -1.5 16.5t-0.5 22.5q0 27 6 50t21.5 40t42.5 27t69 10q31 0 54 -7.5
t43.5 -16.5t39.5 -16.5t42 -7.5q11 0 18.5 5.5t7.5 20.5q0 4 -0.5 5t-1.5 6h165q1 -8 2 -17q1 -8 2 -18t1 -22q0 -27 -5.5 -49.5t-20.5 -39t-42 -25.5t-69 -9q-33 0 -56.5 7.5t-43.5 17t-39 17t-42 7.5q-11 0 -18.5 -5.5t-7.5 -20.5q0 -4 0.5 -5.5t1.5 -6.5h-165z" />
    <glyph glyph-name="Umacron" unicode="&#x16a;" horiz-adv-x="675" 
d="M626 281q0 -75 -16 -129.5t-51 -90.5t-89.5 -53.5t-132.5 -17.5q-77 0 -132 17.5t-89.5 53.5t-50.5 90.5t-16 129.5v359h193v-359q0 -38 4.5 -63.5t15.5 -40.5t29.5 -21.5t45.5 -6.5q28 0 46 6.5t29 21.5t15.5 40.5t4.5 63.5v359h194v-359zM96 683v133h487v-133h-487z
" />
    <glyph glyph-name="umacron" unicode="&#x16b;" 
d="M436 0l-31 61q-25 -32 -64.5 -51.5t-94.5 -19.5q-68 0 -108.5 17t-61.5 47t-27.5 71t-6.5 88v297h187v-289q0 -51 13 -67t47 -16q35 0 49 16t14 67v289h188v-510h-104zM49 554v133h487v-133h-487z" />
    <glyph glyph-name="Ubreve" unicode="&#x16c;" horiz-adv-x="675" 
d="M626 281q0 -75 -16 -129.5t-51 -90.5t-89.5 -53.5t-132.5 -17.5q-77 0 -132 17.5t-89.5 53.5t-50.5 90.5t-16 129.5v359h193v-359q0 -38 4.5 -63.5t15.5 -40.5t29.5 -21.5t45.5 -6.5q28 0 46 6.5t29 21.5t15.5 40.5t4.5 63.5v359h194v-359zM549 845q0 -53 -15 -85
t-40 -50t-57 -24t-66 -6h-75q-36 0 -67.5 6t-54 24t-35.5 50.5t-13 84.5h175q0 -28 7 -38.5t30 -10.5q20 0 27.5 11t7.5 38h176z" />
    <glyph glyph-name="ubreve" unicode="&#x16d;" 
d="M436 0l-31 61q-25 -32 -64.5 -51.5t-94.5 -19.5q-68 0 -108.5 17t-61.5 47t-27.5 71t-6.5 88v297h187v-289q0 -51 13 -67t47 -16q35 0 49 16t14 67v289h188v-510h-104zM505 716q0 -53 -15 -85t-40 -50t-57 -24t-66 -6h-75q-36 0 -67.5 6t-54 24t-35.5 50.5t-13 84.5h175
q0 -28 7 -38.5t30 -10.5q20 0 27.5 11t7.5 38h176z" />
    <glyph glyph-name="Uring" unicode="&#x16e;" horiz-adv-x="675" 
d="M626 281q0 -75 -16 -129.5t-51 -90.5t-89.5 -53.5t-132.5 -17.5q-77 0 -132 17.5t-89.5 53.5t-50.5 90.5t-16 129.5v359h193v-359q0 -38 4.5 -63.5t15.5 -40.5t29.5 -21.5t45.5 -6.5q28 0 46 6.5t29 21.5t15.5 40.5t4.5 63.5v359h194v-359zM511 796q0 -59 -39 -90
t-134 -31q-49 0 -82.5 8t-54 23.5t-29.5 38t-9 51.5q0 31 9 54t29.5 38t54 22.5t82.5 7.5q95 0 134 -30.5t39 -91.5zM385 796q0 15 -10.5 22.5t-36.5 7.5t-37 -7.5t-11 -22.5q0 -14 11 -22t37 -8t36.5 8t10.5 22z" />
    <glyph glyph-name="uring" unicode="&#x16f;" 
d="M436 0l-31 61q-25 -32 -64.5 -51.5t-94.5 -19.5q-68 0 -108.5 17t-61.5 47t-27.5 71t-6.5 88v297h187v-289q0 -51 13 -67t47 -16q35 0 49 16t14 67v289h188v-510h-104zM467 667q0 -59 -39 -90t-134 -31q-49 0 -82.5 8t-54 23.5t-29.5 38t-9 51.5q0 31 9 54t29.5 38
t54 22.5t82.5 7.5q95 0 134 -30.5t39 -91.5zM341 667q0 15 -10.5 22.5t-36.5 7.5t-37 -7.5t-11 -22.5q0 -14 11 -22t37 -8t36.5 8t10.5 22z" />
    <glyph glyph-name="Uhungarumlaut" unicode="&#x170;" horiz-adv-x="675" 
d="M626 281q0 -75 -16 -129.5t-51 -90.5t-89.5 -53.5t-132.5 -17.5q-77 0 -132 17.5t-89.5 53.5t-50.5 90.5t-16 129.5v359h193v-359q0 -38 4.5 -63.5t15.5 -40.5t29.5 -21.5t45.5 -6.5q28 0 46 6.5t29 21.5t15.5 40.5t4.5 63.5v359h194v-359zM364 676v128l215 41v-125z
M95 676v128l215 41v-125z" />
    <glyph glyph-name="uhungarumlaut" unicode="&#x171;" 
d="M436 0l-31 61q-25 -32 -64.5 -51.5t-94.5 -19.5q-68 0 -108.5 17t-61.5 47t-27.5 71t-6.5 88v297h187v-289q0 -51 13 -67t47 -16q35 0 49 16t14 67v289h188v-510h-104zM320 547v128l215 41v-125zM51 547v128l215 41v-125z" />
    <glyph glyph-name="Uogonek" unicode="&#x172;" horiz-adv-x="675" 
d="M362 -210q-44 0 -69.5 19.5t-25.5 64.5q0 26 12.5 59t37.5 57q-72 2 -122.5 20.5t-83 54.5t-47.5 90t-15 126v359h193v-359q0 -38 4.5 -63.5t15.5 -40.5t29.5 -21.5t45.5 -6.5q28 0 46 6.5t29 21.5t15.5 40.5t4.5 63.5v359h194v-359q0 -122 -44 -191.5t-143 -89.5
q-17 -12 -25 -30t-8 -29q0 -12 7.5 -20t26.5 -8v-123h-78z" />
    <glyph glyph-name="uogonek" unicode="&#x173;" 
d="M462 -210q-44 0 -69.5 19.5t-25.5 64.5q0 14 4 31t12 34.5t21 34t30 29.5l-29 58q-25 -32 -64.5 -51.5t-94.5 -19.5q-68 0 -108.5 17t-61.5 47t-27.5 71t-6.5 88v297h187v-289q0 -51 13 -67t47 -16q35 0 49 16t14 67v289h188v-510q-17 -12 -25.5 -30t-8.5 -29
q0 -12 7.5 -20t26.5 -8v-123h-78z" />
    <glyph glyph-name="Wcircumflex" unicode="&#x174;" horiz-adv-x="964" 
d="M786 0h-207l-98 419l-97 -419h-208l-181 640h202l88 -424l97 424h204l98 -424l87 424h196zM481 728l-242 -58v138l242 57l244 -57v-138z" />
    <glyph glyph-name="wcircumflex" unicode="&#x175;" horiz-adv-x="807" 
d="M662 0h-197l-68 330l-67 -330h-189l-139 510h202l43 -326l63 326h175l70 -336l50 336h200zM397 599l-242 -58v138l242 57l244 -57v-138z" />
    <glyph glyph-name="Ycircumflex" unicode="&#x176;" horiz-adv-x="656" 
d="M421 199v-199h-197v199l-224 441h214l108 -261l115 261h219zM327 728l-242 -58v138l242 57l244 -57v-138z" />
    <glyph glyph-name="ycircumflex" unicode="&#x177;" horiz-adv-x="591" 
d="M544 5q0 -39 -9 -77t-35.5 -69t-75.5 -50t-130 -19q-76 0 -125 11.5t-77 33t-39 53.5t-11 74h179q0 -26 16 -44t58 -18q21 0 33.5 7t18.5 19t8 28t2 35v56q-17 -21 -50 -35.5t-68 -14.5q-68 0 -106.5 18t-58 49t-24 73t-4.5 91v284h186v-276q0 -28 3 -45.5t10 -27
t18.5 -13t28.5 -3.5q18 0 30 3.5t19.5 13t11 27t3.5 45.5l1 276h187v-505zM294 599l-242 -58v138l242 57l244 -57v-138z" />
    <glyph glyph-name="Ydieresis" unicode="&#x178;" horiz-adv-x="656" 
d="M421 199v-199h-197v199l-224 441h214l108 -261l115 261h219zM560 761q0 -44 -28.5 -62t-77.5 -18q-51 0 -79.5 18t-28.5 62q0 45 29 62.5t79 17.5q48 0 77 -17.5t29 -62.5zM310 761q0 -44 -28.5 -62t-77.5 -18q-51 0 -79.5 18t-28.5 62q0 45 29 62.5t79 17.5
q48 0 77 -17.5t29 -62.5z" />
    <glyph glyph-name="Zacute" unicode="&#x179;" horiz-adv-x="582" 
d="M34 0v159l281 328h-281v153h502v-152l-291 -335h304v-153h-515zM47 671v140l487 64v-141z" />
    <glyph glyph-name="zacute" unicode="&#x17a;" horiz-adv-x="526" 
d="M34 0v136l226 228h-226v146h448v-136l-231 -228h241v-146h-458zM20 542v140l487 64v-141z" />
    <glyph glyph-name="Zdotaccent" unicode="&#x17b;" horiz-adv-x="582" 
d="M34 0v159l281 328h-281v153h502v-152l-291 -335h304v-153h-515zM414 753q0 -20 -5 -34.5t-18.5 -24t-37.5 -14t-62 -4.5q-39 0 -63.5 4.5t-38 14t-18.5 24t-5 34.5q0 21 5 36t18.5 24.5t38 13.5t63.5 4t63.5 -4t37.5 -13.5t17.5 -24.5t4.5 -36z" />
    <glyph glyph-name="zdotaccent" unicode="&#x17c;" horiz-adv-x="526" 
d="M34 0v136l226 228h-226v146h448v-136l-231 -228h241v-146h-458zM387 624q0 -20 -5 -34.5t-18.5 -24t-37.5 -14t-62 -4.5q-39 0 -63.5 4.5t-38 14t-18.5 24t-5 34.5q0 21 5 36t18.5 24.5t38 13.5t63.5 4t63.5 -4t37.5 -13.5t17.5 -24.5t4.5 -36z" />
    <glyph glyph-name="Zcaron" unicode="&#x17d;" horiz-adv-x="582" 
d="M34 0v159l281 328h-281v153h502v-152l-291 -335h304v-153h-515zM291 674l-244 57v139l244 -59l242 59v-139z" />
    <glyph glyph-name="zcaron" unicode="&#x17e;" horiz-adv-x="526" 
d="M34 0v136l226 228h-226v146h448v-136l-231 -228h241v-146h-458zM264 545l-244 57v139l244 -59l242 59v-139z" />
    <glyph glyph-name="florin" unicode="&#x192;" horiz-adv-x="406" 
d="M93 360h-83v122l83 28v36q0 86 53 124.5t172 38.5q14 0 28 -0.5t30 -1.5v-150q-14 1 -25.5 1.5t-20.5 0.5q-32 0 -39.5 -6.5t-7.5 -22.5v-20h93v-150h-97v-404q0 -86 -54 -126t-179 -40h-31.5t-34.5 2v151h16q30 0 48.5 3t29.5 8.5t15 13.5t4 19v373z" />
    <glyph glyph-name="uni0218" unicode="&#x218;" horiz-adv-x="615" 
d="M587 200q0 -35 -12.5 -72.5t-43.5 -68t-82 -50t-128 -19.5q-80 0 -136 16.5t-91 48t-51 77t-16 104.5h192q0 -50 22 -75t76 -25q27 0 43 6t25 15t11.5 19t2.5 19q0 24 -26 36t-65.5 20t-85.5 17t-86 28t-67 51.5t-29 88.5q-2 42 11 81t44 68.5t83 47t129 17.5
q78 0 130.5 -18t84 -49t45 -73t13.5 -90h-189q0 45 -19 65t-70 20q-23 0 -38 -5t-23 -13.5t-10 -20t0 -24.5q3 -20 31 -29.5t67.5 -17t84.5 -17t83.5 -29.5t64 -55.5t25.5 -93.5zM396 -108q0 -14 -3 -38t-6 -47q-4 -27 -9 -57h-75v70q-48 0 -72.5 17t-24.5 55q0 45 27 61.5
t70 16.5q41 0 67 -17t26 -61z" />
    <glyph glyph-name="uni0219" unicode="&#x219;" horiz-adv-x="535" 
d="M517 147q0 -27 -13.5 -54.5t-43 -50.5t-75.5 -37.5t-111 -14.5q-129 0 -193 45.5t-64 149.5h183q0 -41 16 -62.5t56 -21.5q61 0 61 44q0 24 -23 36.5t-57 21t-74 17t-74 25t-57 44t-23 73.5q0 31 12 60t40.5 50.5t74.5 34.5t114 13q67 0 112.5 -10.5t73.5 -33t40 -57.5
t12 -84h-177q0 38 -14 57t-46 19q-33 0 -46 -11t-13 -29q0 -23 23 -35t57 -20t74.5 -17t74.5 -26.5t57 -47t23 -78.5zM358 -108q0 -14 -3 -38t-6 -47q-4 -27 -9 -57h-75v70q-48 0 -72.5 17t-24.5 55q0 45 27 61.5t70 16.5q41 0 67 -17t26 -61z" />
    <glyph glyph-name="uni021A" unicode="&#x21a;" horiz-adv-x="520" 
d="M355 487v-487h-190v487h-151v153h492v-153h-151zM356 -108q0 -14 -3 -38t-6 -47q-4 -27 -9 -57h-75v70q-48 0 -72.5 17t-24.5 55q0 45 27 61.5t70 16.5q41 0 67 -17t26 -61z" />
    <glyph glyph-name="uni021B" unicode="&#x21b;" horiz-adv-x="434" 
d="M412 -7q-41 -3 -75 -3q-65 0 -108.5 9.5t-70 30t-38 51t-11.5 72.5v207h-84v112l84 40v128h187v-130h116v-150h-112v-170q0 -29 12.5 -40.5t48.5 -11.5q21 0 51 3v-148zM347 -108q0 -14 -3 -38t-6 -47q-4 -27 -9 -57h-75v70q-48 0 -72.5 17t-24.5 55q0 45 27 61.5
t70 16.5q41 0 67 -17t26 -61z" />
    <glyph glyph-name="circumflex" unicode="&#x2c6;" horiz-adv-x="566" 
d="M282 599l-242 -58v138l242 57l244 -57v-138z" />
    <glyph glyph-name="caron" unicode="&#x2c7;" horiz-adv-x="569" 
d="M285 545l-244 57v139l244 -59l242 59v-139z" />
    <glyph glyph-name="breve" unicode="&#x2d8;" horiz-adv-x="600" 
d="M510 716q0 -53 -15 -85t-40 -50t-57 -24t-66 -6h-75q-36 0 -67.5 6t-54 24t-35.5 50.5t-13 84.5h175q0 -28 7 -38.5t30 -10.5q20 0 27.5 11t7.5 38h176v0z" />
    <glyph glyph-name="dotaccent" unicode="&#x2d9;" horiz-adv-x="575" 
d="M412 624q0 -20 -5 -34.5t-18.5 -24t-37.5 -14t-62 -4.5q-39 0 -63.5 4.5t-38 14t-18.5 24t-5 34.5q0 21 5 36t18.5 24.5t38 13.5t63.5 4t63.5 -4t37.5 -13.5t17.5 -24.5t4.5 -36z" />
    <glyph glyph-name="ring" unicode="&#x2da;" horiz-adv-x="575" 
d="M462 667q0 -59 -39 -90t-134 -31q-49 0 -82.5 8t-54 23.5t-29.5 38t-9 51.5q0 31 9 54t29.5 38t54 22.5t82.5 7.5q95 0 134 -30.5t39 -91.5zM336 667q0 15 -10.5 22.5t-36.5 7.5t-37 -7.5t-11 -22.5q0 -14 11 -22t37 -8t36.5 8t10.5 22z" />
    <glyph glyph-name="ogonek" unicode="&#x2db;" horiz-adv-x="317" 
d="M144 -210q-44 0 -69.5 19.5t-25.5 64.5q0 14 4 31t11.5 34t19 33t26.5 28h112q-17 -12 -25.5 -30t-8.5 -29q0 -12 7.5 -20t26.5 -8v-123h-78z" />
    <glyph glyph-name="tilde" unicode="&#x2dc;" 
d="M42 552q-2 6 -3 14q-1 7 -1.5 16.5t-0.5 22.5q0 27 6 50t21.5 40t42.5 27t69 10q31 0 54 -7.5t43.5 -16.5t39.5 -16.5t42 -7.5q11 0 18.5 5.5t7.5 20.5q0 4 -0.5 5t-1.5 6h165q1 -8 2 -17q1 -8 2 -18t1 -22q0 -27 -5.5 -49.5t-20.5 -39t-42 -25.5t-69 -9q-33 0 -56.5 7.5
t-43.5 17t-39 17t-42 7.5q-11 0 -18.5 -5.5t-7.5 -20.5q0 -4 0.5 -5.5t1.5 -6.5h-165z" />
    <glyph glyph-name="hungarumlaut" unicode="&#x2dd;" horiz-adv-x="566" 
d="M309 547v128l215 41v-125zM40 547v128l215 41v-125z" />
    <glyph glyph-name="pi" unicode="&#x3c0;" horiz-adv-x="904" 
d="M864 319q0 -75 -16.5 -148t-62 -131t-126 -93.5t-208.5 -35.5q-127 0 -207 35.5t-125.5 93.5t-62 131.5t-16.5 148.5q0 50 7 99.5t24.5 95t47.5 85t75.5 68t109 45t147.5 16.5q85 0 149 -16.5t110 -45t75.5 -68t47 -85t24.5 -95.5t7 -100zM712 319q0 64 -12 117.5
t-41.5 92t-80 59.5t-127.5 21t-127.5 -21t-80 -59.5t-41.5 -91.5t-12 -117q0 -65 12 -118t41.5 -91t80 -59t127.5 -21t127.5 21t80 58.5t41.5 90.5t12 118zM615 376q0 -30 -7 -55t-25.5 -42.5t-52 -27.5t-86.5 -10h-22v-124h-133v403h157q51 0 84 -10.5t51.5 -29.5t26 -45.5
t7.5 -58.5zM482 379q0 15 -7.5 23t-30.5 8h-22v-60h22q23 0 30.5 7.5t7.5 21.5z" />
    <glyph glyph-name="uni1E02" unicode="&#x1e02;" horiz-adv-x="620" 
d="M592 200q0 -42 -12 -78.5t-42.5 -63.5t-84 -42.5t-136.5 -15.5h-258v640h260q71 0 120 -12.5t79 -36t43 -57t13 -74.5q0 -15 -5 -34t-16 -36.5t-29 -31t-44 -17.5q26 -4 46.5 -18.5t35 -34.5t22.5 -43.5t8 -44.5zM397 199q0 26 -14 42t-59 16h-73v-120h70q47 0 61.5 18
t14.5 44zM384 446q0 11 -2.5 21t-9.5 17t-20 11t-35 4h-66v-107h64q44 0 56.5 15.5t12.5 38.5zM422 753q0 -20 -5 -34.5t-18.5 -24t-37.5 -14t-62 -4.5q-39 0 -63.5 4.5t-38 14t-18.5 24t-5 34.5q0 21 5 36t18.5 24.5t38 13.5t63.5 4t63.5 -4t37.5 -13.5t17.5 -24.5t4.5 -36
z" />
    <glyph glyph-name="uni1E03" unicode="&#x1e03;" horiz-adv-x="595" 
d="M567 255q0 -45 -10 -92t-36 -85.5t-70 -63t-111 -24.5q-60 0 -98.5 21t-59.5 47l-31 -58h-105v707h186v-230q29 20 62.5 31.5t82.5 11.5q58 0 95 -24.5t58 -63t29 -85.5t8 -92zM377 255q0 24 -1.5 45t-8.5 37t-21.5 25t-40.5 9q-27 0 -42 -9.5t-22 -25.5t-8.5 -37
t-1.5 -44q0 -25 1.5 -46.5t9 -37.5t22.5 -25.5t42 -9.5q26 0 40.5 9.5t21 25.5t8 38t1.5 46zM507 624q0 -20 -5 -34.5t-18.5 -24t-37.5 -14t-62 -4.5q-39 0 -63.5 4.5t-38 14t-18.5 24t-5 34.5q0 21 5 36t18.5 24.5t38 13.5t63.5 4t63.5 -4t37.5 -13.5t17.5 -24.5t4.5 -36z
" />
    <glyph glyph-name="uni1E0A" unicode="&#x1e0a;" horiz-adv-x="657" 
d="M619 324q0 -72 -19.5 -131.5t-58.5 -102.5t-98 -66.5t-137 -23.5h-247v640h257q77 0 134 -22t94.5 -63.5t56 -100t18.5 -130.5zM430 325q0 54 -9.5 86.5t-27.5 49t-45 21.5t-62 5h-35v-334h31q35 0 62.5 6t46.5 24.5t29 52t10 89.5zM435 753q0 -20 -5 -34.5t-18.5 -24
t-37.5 -14t-62 -4.5q-39 0 -63.5 4.5t-38 14t-18.5 24t-5 34.5q0 21 5 36t18.5 24.5t38 13.5t63.5 4t63.5 -4t37.5 -13.5t17.5 -24.5t4.5 -36z" />
    <glyph glyph-name="uni1E0B" unicode="&#x1e0b;" horiz-adv-x="595" 
d="M445 0l-33 58q-8 -11 -23 -23t-35.5 -21.5t-45.5 -16t-53 -6.5q-68 0 -112 23.5t-69.5 61t-36 85t-10.5 94.5q0 45 8 92t29.5 85.5t58.5 63t94 24.5q49 0 83.5 -11.5t61.5 -31.5v230h187v-707h-104zM364 255q0 23 -1 44t-8 36.5t-22 24.5t-42 9q-26 0 -41 -9t-22.5 -24
t-9 -36t-1.5 -45t1.5 -45t9 -36.5t22 -24.5t40.5 -9q27 0 41.5 8.5t22 24t9 36.5t1.5 46zM329 624q0 -20 -5 -34.5t-18.5 -24t-37.5 -14t-62 -4.5q-39 0 -63.5 4.5t-38 14t-18.5 24t-5 34.5q0 21 5 36t18.5 24.5t38 13.5t63.5 4t63.5 -4t37.5 -13.5t17.5 -24.5t4.5 -36z" />
    <glyph glyph-name="uni1E1E" unicode="&#x1e1e;" horiz-adv-x="542" 
d="M250 487v-111h256v-147h-256v-229h-191v640h468v-153h-277zM418 753q0 -20 -5 -34.5t-18.5 -24t-37.5 -14t-62 -4.5q-39 0 -63.5 4.5t-38 14t-18.5 24t-5 34.5q0 21 5 36t18.5 24.5t38 13.5t63.5 4t63.5 -4t37.5 -13.5t17.5 -24.5t4.5 -36z" />
    <glyph glyph-name="uni1E1F" unicode="&#x1e1f;" horiz-adv-x="426" 
d="M281 360v-360h-186v360h-83v110l83 40v36q0 52 19 86t57.5 52.5t95.5 23.5t134 -1v-143q-36 4 -59 2.5t-35.5 -6.5t-17 -14t-4.5 -19v-17h116v-150h-120zM388 809q0 -20 -5 -34.5t-18.5 -24t-37.5 -14t-62 -4.5q-39 0 -63.5 4.5t-38 14t-18.5 24t-5 34.5q0 21 5 36
t18.5 24.5t38 13.5t63.5 4t63.5 -4t37.5 -13.5t17.5 -24.5t4.5 -36z" />
    <glyph glyph-name="uni1E40" unicode="&#x1e40;" horiz-adv-x="896" 
d="M646 0v390l-110 -390h-176l-110 391v-391h-191v640h272l117 -431l117 431h272v-640h-191zM572 753q0 -20 -5 -34.5t-18.5 -24t-37.5 -14t-62 -4.5q-39 0 -63.5 4.5t-38 14t-18.5 24t-5 34.5q0 21 5 36t18.5 24.5t38 13.5t63.5 4t63.5 -4t37.5 -13.5t17.5 -24.5t4.5 -36z
" />
    <glyph glyph-name="uni1E41" unicode="&#x1e41;" horiz-adv-x="835" 
d="M604 0v306q0 23 -9.5 42t-35.5 19q-28 0 -36.5 -18t-8.5 -43v-306h-189v306q0 12 -1.5 23t-6 19.5t-13.5 13.5t-23 5q-28 0 -37.5 -18t-9.5 -43v-306h-188v510h105l31 -60q7 13 21.5 25.5t33 22.5t41 16t45.5 6q21 0 43 -3.5t43 -11t39 -21t32 -32.5q20 29 60 48.5
t91 19.5q54 0 85.5 -15t48.5 -42t22 -64.5t5 -81.5v-317h-188zM541 624q0 -20 -5 -34.5t-18.5 -24t-37.5 -14t-62 -4.5q-39 0 -63.5 4.5t-38 14t-18.5 24t-5 34.5q0 21 5 36t18.5 24.5t38 13.5t63.5 4t63.5 -4t37.5 -13.5t17.5 -24.5t4.5 -36z" />
    <glyph glyph-name="uni1E56" unicode="&#x1e56;" horiz-adv-x="617" 
d="M581 411q0 -36 -6 -76t-33 -73.5t-81.5 -55t-150.5 -21.5h-59v-185h-192v640h243q97 0 152.5 -22t83.5 -56t35.5 -74t7.5 -77zM387 411q0 31 -16.5 53.5t-63.5 22.5h-56v-153h56q24 0 39.5 6.5t24.5 17t12.5 24.5t3.5 29zM432 753q0 -20 -5 -34.5t-18.5 -24t-37.5 -14
t-62 -4.5q-39 0 -63.5 4.5t-38 14t-18.5 24t-5 34.5q0 21 5 36t18.5 24.5t38 13.5t63.5 4t63.5 -4t37.5 -13.5t17.5 -24.5t4.5 -36z" />
    <glyph glyph-name="uni1E57" unicode="&#x1e57;" horiz-adv-x="595" 
d="M567 255q0 -45 -8 -92t-29 -85.5t-58 -63t-95 -24.5q-51 0 -83.5 12t-61.5 32v-234h-186v710h105l31 -60q20 24 61 47t99 23q67 0 111 -24.5t69 -63t35 -85.5t10 -92zM377 255q0 24 -1.5 45t-8 36.5t-21 24.5t-40.5 9q-27 0 -42 -8.5t-22.5 -24t-9 -36.5t-1.5 -46
q0 -24 1.5 -44.5t8.5 -36t22 -24.5t42 -9q26 0 40.5 8.5t21.5 24t8.5 36.5t1.5 45zM421 624q0 -20 -5 -34.5t-18.5 -24t-37.5 -14t-62 -4.5q-39 0 -63.5 4.5t-38 14t-18.5 24t-5 34.5q0 21 5 36t18.5 24.5t38 13.5t63.5 4t63.5 -4t37.5 -13.5t17.5 -24.5t4.5 -36z" />
    <glyph glyph-name="uni1E60" unicode="&#x1e60;" horiz-adv-x="615" 
d="M587 200q0 -35 -12.5 -72.5t-43.5 -68t-82 -50t-128 -19.5q-80 0 -136 16.5t-91 48t-51 77t-16 104.5h192q0 -50 22 -75t76 -25q27 0 43 6t25 15t11.5 19t2.5 19q0 24 -26 36t-65.5 20t-85.5 17t-86 28t-67 51.5t-29 88.5q-2 42 11 81t44 68.5t83 47t129 17.5
q78 0 130.5 -18t84 -49t45 -73t13.5 -90h-189q0 45 -19 65t-70 20q-23 0 -38 -5t-23 -13.5t-10 -20t0 -24.5q3 -20 31 -29.5t67.5 -17t84.5 -17t83.5 -29.5t64 -55.5t25.5 -93.5zM433 753q0 -20 -5 -34.5t-18.5 -24t-37.5 -14t-62 -4.5q-39 0 -63.5 4.5t-38 14t-18.5 24
t-5 34.5q0 21 5 36t18.5 24.5t38 13.5t63.5 4t63.5 -4t37.5 -13.5t17.5 -24.5t4.5 -36z" />
    <glyph glyph-name="uni1E61" unicode="&#x1e61;" horiz-adv-x="535" 
d="M517 147q0 -27 -13.5 -54.5t-43 -50.5t-75.5 -37.5t-111 -14.5q-129 0 -193 45.5t-64 149.5h183q0 -41 16 -62.5t56 -21.5q61 0 61 44q0 24 -23 36.5t-57 21t-74 17t-74 25t-57 44t-23 73.5q0 31 12 60t40.5 50.5t74.5 34.5t114 13q67 0 112.5 -10.5t73.5 -33t40 -57.5
t12 -84h-177q0 38 -14 57t-46 19q-33 0 -46 -11t-13 -29q0 -23 23 -35t57 -20t74.5 -17t74.5 -26.5t57 -47t23 -78.5zM392 624q0 -20 -5 -34.5t-18.5 -24t-37.5 -14t-62 -4.5q-39 0 -63.5 4.5t-38 14t-18.5 24t-5 34.5q0 21 5 36t18.5 24.5t38 13.5t63.5 4t63.5 -4
t37.5 -13.5t17.5 -24.5t4.5 -36z" />
    <glyph glyph-name="uni1E6A" unicode="&#x1e6a;" horiz-adv-x="520" 
d="M355 487v-487h-190v487h-151v153h492v-153h-151zM385 753q0 -20 -5 -34.5t-18.5 -24t-37.5 -14t-62 -4.5q-39 0 -63.5 4.5t-38 14t-18.5 24t-5 34.5q0 21 5 36t18.5 24.5t38 13.5t63.5 4t63.5 -4t37.5 -13.5t17.5 -24.5t4.5 -36z" />
    <glyph glyph-name="uni1E6B" unicode="&#x1e6b;" horiz-adv-x="434" 
d="M412 -7q-41 -3 -75 -3q-65 0 -108.5 9.5t-70 30t-38 51t-11.5 72.5v207h-84v112l84 40v128h187v-130h116v-150h-112v-170q0 -29 12.5 -40.5t48.5 -11.5q21 0 51 3v-148zM324 753q0 -20 -5 -34.5t-18.5 -24t-37.5 -14t-62 -4.5q-39 0 -63.5 4.5t-38 14t-18.5 24t-5 34.5
q0 21 5 36t18.5 24.5t38 13.5t63.5 4t63.5 -4t37.5 -13.5t17.5 -24.5t4.5 -36z" />
    <glyph glyph-name="Wgrave" unicode="&#x1e80;" horiz-adv-x="964" 
d="M786 0h-207l-98 419l-97 -419h-208l-181 640h202l88 -424l97 424h204l98 -424l87 424h196zM238 734v141l486 -64v-140z" />
    <glyph glyph-name="wgrave" unicode="&#x1e81;" horiz-adv-x="807" 
d="M662 0h-197l-68 330l-67 -330h-189l-139 510h202l43 -326l63 326h175l70 -336l50 336h200zM160 605v141l486 -64v-140z" />
    <glyph glyph-name="Wacute" unicode="&#x1e82;" horiz-adv-x="964" 
d="M786 0h-207l-98 419l-97 -419h-208l-181 640h202l88 -424l97 424h204l98 -424l87 424h196zM237 671v140l487 64v-141z" />
    <glyph glyph-name="wacute" unicode="&#x1e83;" horiz-adv-x="807" 
d="M662 0h-197l-68 330l-67 -330h-189l-139 510h202l43 -326l63 326h175l70 -336l50 336h200zM160 542v140l487 64v-141z" />
    <glyph glyph-name="Wdieresis" unicode="&#x1e84;" horiz-adv-x="964" 
d="M786 0h-207l-98 419l-97 -419h-208l-181 640h202l88 -424l97 424h204l98 -424l87 424h196zM713 761q0 -44 -28.5 -62t-77.5 -18q-51 0 -79.5 18t-28.5 62q0 45 29 62.5t79 17.5q48 0 77 -17.5t29 -62.5zM463 761q0 -44 -28.5 -62t-77.5 -18q-51 0 -79.5 18t-28.5 62
q0 45 29 62.5t79 17.5q48 0 77 -17.5t29 -62.5z" />
    <glyph glyph-name="wdieresis" unicode="&#x1e85;" horiz-adv-x="807" 
d="M662 0h-197l-68 330l-67 -330h-189l-139 510h202l43 -326l63 326h175l70 -336l50 336h200zM630 632q0 -44 -28.5 -62t-77.5 -18q-51 0 -79.5 18t-28.5 62q0 45 29 62.5t79 17.5q48 0 77 -17.5t29 -62.5zM380 632q0 -44 -28.5 -62t-77.5 -18q-51 0 -79.5 18t-28.5 62
q0 45 29 62.5t79 17.5q48 0 77 -17.5t29 -62.5z" />
    <glyph glyph-name="Ygrave" unicode="&#x1ef2;" horiz-adv-x="656" 
d="M421 199v-199h-197v199l-224 441h214l108 -261l115 261h219zM85 734v141l486 -64v-140z" />
    <glyph glyph-name="ygrave" unicode="&#x1ef3;" horiz-adv-x="591" 
d="M544 5q0 -39 -9 -77t-35.5 -69t-75.5 -50t-130 -19q-76 0 -125 11.5t-77 33t-39 53.5t-11 74h179q0 -26 16 -44t58 -18q21 0 33.5 7t18.5 19t8 28t2 35v56q-17 -21 -50 -35.5t-68 -14.5q-68 0 -106.5 18t-58 49t-24 73t-4.5 91v284h186v-276q0 -28 3 -45.5t10 -27
t18.5 -13t28.5 -3.5q18 0 30 3.5t19.5 13t11 27t3.5 45.5l1 276h187v-505zM52 605v141l486 -64v-140z" />
    <glyph glyph-name="endash" unicode="&#x2013;" horiz-adv-x="646" 
d="M34 201v114h578v-114h-578z" />
    <glyph glyph-name="emdash" unicode="&#x2014;" horiz-adv-x="814" 
d="M34 201v114h746v-114h-746z" />
    <glyph glyph-name="quoteleft" unicode="&#x2018;" horiz-adv-x="269" 
d="M19 429q0 18 3.5 53.5t8.5 70.5q5 41 12 87h91v-122q116 0 116 -89q0 -53 -33 -74t-83 -21q-25 0 -46 5t-36.5 16t-24 29.5t-8.5 44.5z" />
    <glyph glyph-name="quoteright" unicode="&#x2019;" horiz-adv-x="270" 
d="M250 555q0 -19 -3.5 -54t-8.5 -70q-5 -41 -12 -87h-91v122q-116 0 -116 89q0 53 33 74t83 21q25 0 46 -5t36.5 -16.5t24 -29.5t8.5 -44z" />
    <glyph glyph-name="quotesinglbase" unicode="&#x201a;" horiz-adv-x="269" 
d="M250 79q0 -19 -3.5 -54t-8.5 -70q-5 -41 -12 -87h-91v122q-116 0 -116 89q0 53 33 74t83 21q25 0 46 -5t36.5 -16.5t24 -29.5t8.5 -44z" />
    <glyph glyph-name="quotedblleft" unicode="&#x201c;" horiz-adv-x="544" 
d="M23 429q0 18 3.5 53.5t8.5 70.5q5 41 12 87h91v-122q116 0 116 -89q0 -53 -33 -74t-83 -21q-25 0 -46 5t-36.5 16t-24 29.5t-8.5 44.5zM291 429q0 18 3.5 53.5t8.5 70.5q5 41 12 87h91v-122q116 0 116 -89q0 -53 -33 -74t-83 -21q-25 0 -46 5t-36.5 16t-24 29.5
t-8.5 44.5z" />
    <glyph glyph-name="quotedblright" unicode="&#x201d;" horiz-adv-x="542" 
d="M522 555q0 -19 -3.5 -54t-8.5 -70q-5 -41 -12 -87h-91v122q-116 0 -116 89q0 53 33 74t83 21q25 0 46 -5t36.5 -16.5t24 -29.5t8.5 -44zM254 555q0 -19 -3.5 -54t-8.5 -70q-5 -41 -12 -87h-91v122q-116 0 -116 89q0 53 33 74t83 21q25 0 46 -5t36.5 -16.5t24 -29.5
t8.5 -44z" />
    <glyph glyph-name="quotedblbase" unicode="&#x201e;" horiz-adv-x="552" 
d="M522 79q0 -19 -3.5 -54t-8.5 -70q-5 -41 -12 -87h-91v122q-116 0 -116 89q0 53 33 74t83 21q25 0 46 -5t36.5 -16.5t24 -29.5t8.5 -44zM254 79q0 -19 -3.5 -54t-8.5 -70q-5 -41 -12 -87h-91v122q-116 0 -116 89q0 53 33 74t83 21q25 0 46 -5t36.5 -16.5t24 -29.5t8.5 -44
z" />
    <glyph glyph-name="dagger" unicode="&#x2020;" horiz-adv-x="482" 
d="M337 376v-445h-195v445h-121v149h121v115h195v-114l124 -1v-149h-124z" />
    <glyph glyph-name="daggerdbl" unicode="&#x2021;" horiz-adv-x="507" 
d="M350 -68h-195v227h-121v150h121v68h-121v149h121v114h195v-113l124 -1v-149h-124v-68h124v-150h-124v-227z" />
    <glyph glyph-name="bullet" unicode="&#x2022;" horiz-adv-x="819" 
d="M780 319q0 -62 -15 -121t-56 -105t-113.5 -74.5t-186.5 -28.5t-186 28.5t-112.5 75t-55.5 105.5t-15 121t15 121t56 105.5t113 75t185 28.5q114 0 186.5 -28.5t113.5 -75t56 -106t15 -121.5z" />
    <glyph glyph-name="ellipsis" unicode="&#x2026;" horiz-adv-x="865" 
d="M845 82q0 -50 -33 -71t-83 -21q-51 0 -84 20.5t-33 71.5q0 52 33 72.5t84 20.5q25 0 46.5 -4.5t37 -15.5t24 -29t8.5 -44zM549 82q0 -50 -33 -71t-84 -21t-83.5 20.5t-32.5 71.5q0 26 8.5 44t24 29t37 15.5t46.5 4.5q51 0 84 -20.5t33 -72.5zM251 82q0 -51 -32 -71.5
t-83 -20.5t-83.5 20.5t-32.5 71.5q0 26 8.5 44t24 29t37 15.5t46.5 4.5t46 -4.5t36.5 -15.5t24 -29t8.5 -44z" />
    <glyph glyph-name="perthousand" unicode="&#x2030;" horiz-adv-x="1899" 
d="M1864 225q0 -42 -10 -84t-37 -75.5t-74.5 -54.5t-121.5 -21q-75 0 -121.5 21t-73 55t-36 75.5t-9.5 83.5t10 83.5t36.5 75.5t73.5 55t121 21t121 -21t74 -55t37 -75.5t10 -83.5zM1317 225q0 -42 -10 -84t-37 -75.5t-74 -54.5t-121 -21q-75 0 -121.5 21t-73 55t-36 75.5
t-9.5 83.5t9.5 83.5t36 75.5t73.5 55t122 21q74 0 121 -21t73.5 -55t36.5 -75.5t10 -83.5zM666 0h-189l17 49q2 5 4.5 12t7.5 23t15 43.5t26 74.5t39.5 116.5t57.5 168.5h-155q11 -14 19.5 -40.5t8.5 -52.5q0 -42 -9.5 -82.5t-36 -72t-73.5 -51t-123 -19.5q-77 0 -124 21.5
t-72.5 55.5t-34.5 76t-9 84t10 84t39 75.5t81.5 54t138.5 20.5h578zM1690 225q0 46 -15 65t-53 19q-35 0 -51 -19t-16 -65t15.5 -65t50.5 -19q37 0 53 19t16 65zM1144 225q0 46 -15 65t-53 19q-35 0 -51 -19t-16 -65t15.5 -65t50.5 -19q37 0 53 19t16 65zM344 406
q0 45 -15 63t-53 18q-37 0 -52 -18t-15 -63q0 -47 15 -65.5t51 -18.5q37 0 53 18t16 66z" />
    <glyph glyph-name="guilsinglleft" unicode="&#x2039;" horiz-adv-x="321" 
d="M122 44l-102 211l102 212h192l-117 -212l117 -211h-192z" />
    <glyph glyph-name="guilsinglright" unicode="&#x203a;" horiz-adv-x="322" 
d="M200 44h-191l117 211l-117 212h191l104 -212z" />
    <glyph glyph-name="Euro" unicode="&#x20ac;" horiz-adv-x="735" 
d="M701 271q0 -59 -15 -110t-49.5 -89t-91.5 -60t-140 -22q-81 0 -135 21t-88 56.5t-51.5 82t-23.5 96.5h-72v141h72q5 51 22 98.5t51.5 84t89 58.5t135.5 22q83 0 139.5 -22.5t91.5 -61t50 -89t15 -106.5h-194q-4 35 -11 58.5t-19 38t-30 21t-42 6.5q-26 0 -44.5 -8
t-30.5 -22.5t-19 -34t-10 -43.5h124v-141h-124q3 -22 10 -41t19 -32.5t30 -21t45 -7.5q25 0 42.5 6.5t29.5 21t19.5 39t12.5 60.5h192v0z" />
    <glyph glyph-name="trademark" unicode="&#x2122;" horiz-adv-x="1055" 
d="M840 194v209l-65 -209h-106l-70 209v-209h-153v446h205l71 -245l69 245h206v-446h-157zM304 504v-309h-177v309h-105v136h387v-136h-105z" />
    <glyph glyph-name="partialdiff" unicode="&#x2202;" horiz-adv-x="607" 
d="M270 649q8 0 15.5 0.5t15.5 0.5q74 0 126 -20.5t84.5 -62t47.5 -103.5t15 -144q0 -83 -14 -144.5t-46.5 -103t-86.5 -62t-134 -20.5q-73 0 -122.5 19.5t-80 51.5t-43.5 73t-13 84q0 42 11.5 79.5t38.5 66t71 45.5t109 17q35 0 69 -8.5t58 -30.5q0 39 -6.5 63t-18 36.5
t-26.5 17t-33 4.5q-7 0 -12.5 -0.5t-10.5 -1.5zM216 215q0 -35 20.5 -57.5t62.5 -22.5q43 0 64 22.5t21 57.5t-21 57.5t-64 22.5q-42 0 -62.5 -22.5t-20.5 -57.5z" />
    <glyph glyph-name="minus" unicode="&#x2212;" horiz-adv-x="646" 
d="M34 183v145h578v-145h-578z" />
    <glyph glyph-name="notequal" unicode="&#x2260;" horiz-adv-x="646" 
d="M485 440h127v-141h-186l-32 -79h218v-141h-277l-33 -79h-188l32 79h-112v141h171l34 79h-205v141h263l35 84h188z" />
    <glyph glyph-name="lozenge" unicode="&#x25ca;" horiz-adv-x="1030" 
d="M969 286q9 -6 10.5 -13.5t-2 -13.5t-10.5 -8t-16 3l-51 25l-32 -69q13 -7 21.5 -19.5t12 -27t1 -30t-11.5 -27.5q-14 -20 -35 -29t-47 3q-8 -16 -14 -26.5t-9 -17.5l-6 -12q-10 -21 -27 -9l-19 9q-8 5 -10.5 12.5t2.5 15.5l27 53q-1 0 -3 1t-16 10q-9 5 -12 12.5
t-1.5 14.5t7 12.5t13.5 6.5q-9 6 -10 15t3.5 16.5t12.5 11t18 -0.5q-3 7 -2 14.5t5.5 13.5t12 8t17.5 -1l15 -7l35 72l-38 18q-9 4 -12 11t-1.5 13t7.5 9.5t16 2.5l65 -6zM850 541q10 -1 14.5 -7.5t3.5 -14t-6.5 -13.5t-15.5 -6q-46 4 -71 6t-36 3l-15 1q24 -28 38 -63
t14 -74q0 -43 -16.5 -81t-45 -66.5t-66 -45t-80.5 -16.5t-81 16.5t-66 45t-44.5 66.5t-16.5 81q0 41 15 77.5t41 64.5t61 45t75 20l26 5q20 4 60.5 11.5t117.5 21.5q10 2 16 -3.5t7 -13t-3 -15t-14 -9.5l-102 -18l6 -2q1 -1 2 -1l23 -2q17 -2 53.5 -5t105.5 -8zM304 255
q6 -29 0 -58t-26 -53q-17 -21 -39.5 -33t-47 -14.5t-48.5 4t-45 23.5t-32.5 39.5t-14.5 47t4 48.5t24 45t39.5 33.5t47 15t49 -4.5t44.5 -23q8 -5 13.5 -11t10.5 -13h58zM693 457q8 4 9.5 11.5t-1.5 14t-10 9.5t-14 -1l-79 -43q-14 -7 -13.5 -16.5t14.5 -15.5l79 -34
q7 -4 13.5 -1t9.5 9t1 13t-10 11l-45 19zM534 474q-16 19 -40 21t-44 -12q-20 -17 -21 -41t14 -44q16 -19 40 -21t44 14q19 16 21 40t-14 43zM655 311q9 0 13.5 5.5t4.5 12t-4.5 12t-13.5 5.5h-180q-9 0 -15 -4t-6 -13q0 -27 10.5 -45.5t22.5 -29.5q10 -8 23 -15
q11 -6 26.5 -11t33.5 -6q9 -1 14 4.5t5.5 12.5t-3.5 13t-13 6q-14 0 -25 3.5t-19 8.5q-10 5 -17 11q-13 13 -17 30h160zM279 214q-4 4 -9 4q-9 0 -9 -8q0 -6 7 -8l3 -1q2 -1 2 -3t-3 -2q-4 0 -5 3l-5 -4q4 -5 10 -5q10 0 10 9q0 5 -7 7l-3 1q-2 1 -2 3t2 2h1q1 0 3 -2z
M255 207h-11v4h11v6h-18v-26h18v7h-11v4h11v5zM205 256h-7v-12v-1l-21 16v-30h7v14v1l21 -15v27zM231 218h-8v-10h-13v10h-7v-27h7v11h13v-11h8v27zM137 282q0 8 -5.5 12.5t-13.5 4.5q-19 0 -19 -17q0 -8 5.5 -12t13.5 -4q19 0 19 16zM157 258l-16 -26l7 -3l2 5h14l3 -5l6 3
zM197 207h-17v-5h9v-4q-1 0 -2 -0.5t-3 -0.5q-8 0 -8 7t8 7q4 0 7 -2l4 5q-7 4 -12 4q-6 0 -10.5 -4.5t-4.5 -9.5q0 -13 16 -13q8 0 13 4v12zM137 256h-8v-27h8v27zM119 241q1 2 2 3t1 4q0 8 -10 8h-10v-27h7v10h3l1 -1l7 -9l6 5zM164 218h-8v-14q0 -6 -6 -6q-7 0 -7 6v14
h-8v-14q0 -14 15 -14q14 0 14 14v14zM194 170q0 9 -10 9q-9 0 -9 -9v-10q0 -9 9 -9q10 0 10 9v10zM169 170q0 9 -10 9q-9 0 -9 -9v-10q0 -9 9 -9q10 0 10 9v10zM129 218h-7v-10h-13v10h-7v-27h7v11h13v-11h7v27zM144 170q0 4 -3 6.5t-6 2.5q-9 0 -9 -9v-10q0 -9 9 -9
q3 0 6 2.5t3 6.5v10zM120 158h-9l5 6q3 3 3 6q0 9 -10 9q-4 0 -8 -4l-1 -2l5 -4q3 3 4 3q2 0 2.5 -1.5t-0.5 -2.5l-12 -17h21v7zM506 445q0 -9 -6 -15t-16 -6q-9 0 -15.5 7t-6.5 16t7 15.5t17 6.5q9 -1 15 -8t5 -16zM131 282q0 -11 -13 -11t-13 11q0 12 13 12t13 -12z
M153 240l4 6l3 -6h-7zM114 248q0 -3 -3 -3h-2v5h2q3 0 3 -2zM186 160q0 -2 -2 -2q-1 0 -1 2v10q0 2 1 2q2 0 2 -2v-10zM162 160q0 -2 -3 -2q-2 0 -2 2v10q0 2 2 2q3 0 3 -2v-10zM137 160q0 -1 -1 -1t-1 -1q-3 0 -3 2v10q0 2 3 2h1l1 -2v-10zM122 281q-1 -2 -4 -2q-4 0 -4 3
q0 4 4 4q2 0 4 -2l4 2q-3 5 -8 5q-10 0 -10 -9q0 -8 10 -8q4 0 8 4z" />
    <glyph glyph-name="uniFB01" unicode="&#xfb01;" horiz-adv-x="604" 
d="M367 0v358h-97v-358h-186v358h-83v111l83 40v37q0 52 19 83.5t57.5 49t95.5 23t134 5.5h165v-143h-165q-37 0 -60 -2t-35.5 -6t-16.5 -11.5t-4 -17.5v-17h281v-510h-188z" />
    <glyph glyph-name="uniFB02" unicode="&#xfb02;" horiz-adv-x="600" 
d="M367 0l2 359h-99v-359h-186v359h-83v111l83 40v36q0 48 16 79.5t50.5 50t89 25.5t130.5 6h182v-707h-185zM369 571q-32 1 -51 1t-28.5 -3.5t-12.5 -10t-3 -16.5v-32h95v61z" />
    <glyph glyph-name="glyph146" horiz-adv-x="258" 
d="M204 352h-83l1 119q-40 0 -66 21.5t-26 67.5t28 68t72 22q49 0 76 -25.5t21 -76.5z" />
    <glyph glyph-name="glyph153" horiz-adv-x="225" 
d="M202 -108q0 -14 -3 -38t-6 -47q-4 -27 -9 -57h-75v70q-48 0 -72.5 17t-24.5 55q0 45 27 61.5t70 16.5q41 0 67 -17t26 -61z" />
    <glyph glyph-name="glyph367" horiz-adv-x="657" 
d="M572 398q1 -1 3.5 -3t7.5 -2q4 0 8 4l10 -8q-8 -5 -11 -6t-7 -1q-25 0 -25 22q0 8 7 14.5t18 6.5q9 0 16.5 -6.5t7.5 -20.5h-35zM551 394q-7 -8 -12 -10t-10 -2q-10 0 -17 6t-7 16q0 8 7 14.5t17 6.5q5 0 9.5 -2t12.5 -9l-10 -9q-8 7 -12 7q-9 0 -9 -8q0 -10 9 -10
q2 0 12 8zM496 436q1 -2 -1.5 -4.5t-4.5 -3.5q-9 0 -9 7q-2 7 6 7q7 2 9 -6zM322 675q-1 -31 -23 -53t-53 -22q-32 0 -53.5 22t-20.5 53q0 31 22 53t53 22q32 0 53.5 -22t21.5 -53zM481 382v42h14v-42h-14zM449 379l-25 40l12 6l3.5 -7t3.5 -5q2 -3 3 -4l3 -5q1 1 1 1.5
t1 1.5q0 1 1 2t3 4q2 2 3.5 4.5t4.5 6.5l11 -6zM386 398q2 -1 3.5 -3t6.5 -2q4 0 9 4l10 -8q-8 -5 -11 -6t-8 -1q-11 0 -18 6t-7 16q0 8 7 14.5t18 6.5t17.5 -6.5t6.5 -20.5h-34zM349 382v3q-2 -2 -5.5 -2.5t-6.5 -0.5q-9 0 -15.5 6t-6.5 16q0 9 6.5 15t15.5 6q3 0 6.5 -1
t5.5 -3v15h14v-54h-14zM418 307q-34 -4 -50.5 -9t-24 -15.5t-10 -30t-7.5 -53.5q-7 -38 -12 -75q-5 -32 -10 -66t-9 -58q-43 -1 -76 19t-56 45q-27 28 -47 65q-20 39 -33.5 84t-21.5 85t-9.5 68.5t3.5 34.5q4 3 9 6q5 2 11.5 3t15.5 -2q-5 -50 -7 -85t1 -69l45 6
q-2 10 -4.5 30t-5 44.5t-4 51t-1 49.5t3 40.5t8.5 23.5q4 3 9 6q5 2 11.5 2.5t15.5 -3.5q-5 -29 -9 -61.5t-7 -65t-4 -62.5t-1 -53l45 8q-1 6 -1 28.5t1 53t2.5 65.5t4.5 65.5t7.5 53t11.5 28.5q5 4 10 6t11.5 2t15.5 -4q-9 -37 -18 -82.5t-15.5 -88.5t-11 -77t-4.5 -49
l40 6q9 91 17 143.5t14 80.5q7 32 13 43q5 5 11 8q5 2 12 2t17 -6q-24 -60 -38.5 -112.5t-22.5 -91.5q-10 -47 -14 -85q-6 -64 2.5 -89t21 -26t25 16.5t15.5 39.5q4 33 -2 59t-10.5 43.5t-1 26.5t27.5 8q10 -1 24 -3.5t27.5 -6t24.5 -9t14 -11.5zM592 409q0 1 -2.5 3t-6.5 2
q-5 0 -7.5 -2t-3.5 -3h20zM287 676q2 16 -9 27t-28 11h-29l-9 -77h28q18 0 31.5 11t15.5 28zM406 409l-3 3t-7 2t-6.5 -2t-3.5 -3h20zM349 404q0 3 -3 5.5t-6 2.5q-11 0 -11 -8q0 -10 11 -10q3 0 6 3t3 7zM266 676q-1 -9 -8 -14.5t-17 -5.5h-6l5 39h6q10 0 16 -5.5t4 -13.5z
" />
    <glyph glyph-name="f.aalt" horiz-adv-x="472" 
d="M309 545q0 23 -3 32t-16 9q-12 0 -16 -8.5t-4 -31.5v-36h171v-151h-175v-359h-174v359h-82l-1 123l83 28v40q0 33 8 62.5t29 52.5t56 36.5t89 13.5q57 0 94.5 -10.5t59.5 -31.5t30.5 -53t8.5 -75h-158z" />
    <glyph glyph-name="t.aalt" horiz-adv-x="535" 
d="M109 360h-84v110l84 40v130h187v-130h180v-150h-176v-191q0 -20 8 -25.5t19 -5.5q13 0 20 7t7 35h168q0 -43 -11.5 -78t-36.5 -60t-65.5 -38.5t-98.5 -13.5q-54 0 -92 12.5t-62.5 34.5t-35.5 52t-11 65v206z" />
    <glyph glyph-name="R.aalt" horiz-adv-x="629" 
d="M394 0v107q0 34 -3 57.5t-12 37t-25.5 19.5t-43.5 6h-59v-227h-192v640h245q94 0 149 -19t83.5 -47.5t36.5 -62.5t8 -64q0 -16 -3.5 -39t-14.5 -45.5t-33 -41t-58 -27.5q37 -9 60 -27t36 -42.5t17 -53.5t4 -59v-112h-195zM387 429q0 12 -3 22.5t-11 18.5t-23.5 12.5
t-39.5 4.5h-59v-116h59q24 0 39.5 4.5t23.5 12t11 18.5t3 23z" />
    </font>
</defs>
</svg>
